<svg width="100%" viewBox="0 0 709 394" fill="none" xmlns="http://www.w3.org/2000/svg">
<g style="mix-blend-mode:multiply" opacity="0.71">
<path fill-rule="evenodd" clip-rule="evenodd" d="M359.459 349.944C359.459 349.944 361.279 360.201 434.065 371.946C434.065 371.946 440.682 380.713 455.405 383.029C470.128 385.345 525.71 394.444 525.71 394.444H709V358.05C709 358.05 689.15 358.712 681.044 354.742C672.938 350.772 672.938 346.967 662.847 342.831C652.756 338.696 582.12 332.079 582.12 332.079L359.459 349.944Z" fill="url(#paint0_linear_1329_785)"/>
</g>
<path fill-rule="evenodd" clip-rule="evenodd" d="M602.136 349.779C602.136 349.779 555.818 356.892 503.709 355.569L503.213 344.32L483.858 355.734C483.858 355.734 459.872 354.411 434.562 349.614C424.636 347.794 414.711 345.313 405.778 342.17C405.282 342.004 404.785 341.839 404.289 341.673C404.289 341.673 406.44 331.252 409.583 315.04C410.575 310.739 411.402 305.776 412.56 300.648C415.207 287.414 418.516 272.03 421.824 255.984C422.32 253.668 422.817 251.352 423.313 249.036C424.305 244.073 425.463 238.945 426.456 233.982C426.952 231.335 427.614 228.854 428.11 226.207C432.907 203.875 437.539 181.874 441.344 164.669C441.344 164.669 453.585 147.134 469.797 140.021L478.234 143.33L487.332 140.021L487.994 169.632C487.994 169.632 490.31 150.277 493.949 125.629C494.776 119.839 495.603 113.553 496.596 107.433C497.258 103.462 497.754 99.3268 498.415 95.3566C498.746 93.3716 499.077 91.3865 499.408 89.2359C502.551 69.385 506.19 50.3612 509.499 38.1198C509.499 38.1198 542.584 0.0722656 569.879 0.0722656L572.526 76.4983V78.9796C572.526 78.9796 572.526 78.9796 572.526 79.1451V79.8068L572.691 84.9349L573.353 102.966L574.014 120.17L576.827 198.251L576.992 203.379L577.654 221.741L577.819 224.553L578.15 232.162C578.15 232.162 591.715 233.817 600.813 238.779L602.136 349.779Z" fill="url(#paint1_linear_1329_785)"/>
<g style="mix-blend-mode:multiply" opacity="0.5">
<path fill-rule="evenodd" clip-rule="evenodd" d="M569.548 0.0722656L549.531 50.0304V71.8664V95.1912L537.786 139.36L521.244 175.753L514.461 143.495L503.047 130.096L494.445 124.14L487.828 169.632L489.152 207.68L477.241 239.11L450.938 275.669L439.69 256.314L414.049 292.377L403.958 341.673C403.958 341.673 444.487 355.734 483.692 355.734L503.047 344.32L511.318 290.061L521.244 197.423L545.727 138.532L549.862 212.477V302.468L547.381 335.056L509.333 355.734C509.333 355.734 570.044 359.705 601.971 349.779L600.151 238.779L567.893 248.87L563.427 247.051L577.323 232.162L571.367 60.4521L569.548 0.0722656Z" fill="url(#paint2_linear_1329_785)"/>
</g>
<path fill-rule="evenodd" clip-rule="evenodd" d="M509.168 38.1197L521.244 52.5116L549.531 50.1957C549.531 50.1957 565.247 24.8858 569.548 0.237583C569.548 0.0721589 535.47 -4.72514 509.168 38.1197Z" fill="#2FA7FE"/>
<path fill-rule="evenodd" clip-rule="evenodd" d="M577.653 231.997L563.758 246.885L577.653 248.043L600.317 238.614C600.317 238.614 595.023 234.478 577.653 231.997Z" fill="#0C83DE"/>
<path fill-rule="evenodd" clip-rule="evenodd" d="M487.001 140.021L477.075 149.781L466.653 162.188L441.013 164.669C441.013 164.669 445.975 152.593 469.466 140.021H487.001V140.021Z" fill="#0C83DE"/>
<g style="mix-blend-mode:multiply" opacity="0.5">
<path fill-rule="evenodd" clip-rule="evenodd" d="M488.986 207.68L493.618 253.337L494.445 295.189L483.527 355.735L503.047 344.32L515.95 246.058L494.28 169.798L489.979 153.751L487.498 164.669L488.986 207.68Z" fill="url(#paint3_linear_1329_785)"/>
</g>
<g style="mix-blend-mode:multiply" opacity="0.5">
<path fill-rule="evenodd" clip-rule="evenodd" d="M549.531 50.0304V95.1912L537.786 139.36L545.726 138.367L558.96 105.448L568.059 78.4834L563.758 18.9307L549.531 50.0304Z" fill="url(#paint4_linear_1329_785)"/>
</g>
<g style="mix-blend-mode:multiply" opacity="0.5">
<path fill-rule="evenodd" clip-rule="evenodd" d="M563.758 246.885L557.306 285.925L560.449 336.71L568.059 354.576L509.333 355.734L550.027 334.891V275.669V234.974L576.495 199.408L577.653 231.997L563.758 246.885Z" fill="url(#paint5_linear_1329_785)"/>
</g>
<path fill-rule="evenodd" clip-rule="evenodd" d="M466.819 364.502C466.819 364.502 411.567 364.336 383.28 358.712C371.7 356.396 364.256 353.088 359.624 349.944C353.669 346.14 352.18 342.666 352.18 342.666C352.18 342.666 349.699 340.019 346.225 335.718C344.405 333.402 342.089 330.755 339.773 327.612C338.45 325.958 337.292 324.304 335.969 322.484C330.013 314.378 323.893 304.949 320.584 296.512C320.584 296.512 301.229 252.344 332.826 247.051C348.045 244.404 379.971 271.864 408.755 300.813C410.409 302.468 412.064 304.122 413.553 305.776C418.515 310.904 423.313 315.867 427.944 320.83C434.892 328.274 441.344 335.222 446.803 341.508C458.879 355.073 466.819 364.502 466.819 364.502Z" fill="url(#paint6_linear_1329_785)"/>
<path fill-rule="evenodd" clip-rule="evenodd" d="M314.794 266.736C314.794 266.736 317.606 280.136 334.645 293.204C351.684 306.273 395.687 310.904 404.289 307.431C412.725 303.957 368.557 257.307 345.067 251.352C321.577 245.231 314.463 255.487 314.794 266.736Z" fill="#2FA7FE"/>
<g style="mix-blend-mode:multiply" opacity="0.5">
<path fill-rule="evenodd" clip-rule="evenodd" d="M334.646 320.665C334.646 320.665 349.037 345.974 390.724 354.577C432.411 363.179 450.939 351.268 450.939 351.268L428.772 321.657L466.819 364.502C466.819 364.502 372.528 367.645 355.654 346.967L334.646 320.665Z" fill="url(#paint7_linear_1329_785)"/>
</g>
<g style="mix-blend-mode:soft-light">
<path fill-rule="evenodd" clip-rule="evenodd" d="M413.553 305.941C413.222 306.769 412.56 307.43 412.229 308.257C411.237 310.077 410.575 311.731 409.913 313.716C409.086 316.198 407.597 317.852 406.109 320.003C403.462 323.973 398.334 325.958 394.364 327.943C391.717 329.266 388.905 329.928 386.092 330.921C383.942 331.582 381.46 332.244 379.144 332.575C377.49 332.74 375.34 332.906 373.685 332.575C371.866 332.244 370.046 332.078 368.226 331.582C363.264 330.424 358.466 328.439 353.338 328.108C348.706 327.777 344.405 327.447 339.774 327.943C338.45 326.289 337.292 324.634 335.969 322.815C339.112 323.146 342.089 322.649 345.233 322.484C348.541 322.318 351.684 322.815 354.827 323.311C358.301 323.807 361.775 324.634 365.249 325.131C371.204 325.792 376.994 328.605 382.949 327.116C386.589 326.123 390.228 325.131 393.702 323.476C395.191 322.815 396.514 322.153 397.837 321.16C398.83 320.499 399.492 319.672 400.319 319.01C402.469 317.19 404.454 314.874 406.109 312.558C407.763 310.408 408.59 307.43 408.59 304.618C408.59 303.626 408.59 302.468 408.59 301.475V301.31C410.244 302.633 411.898 304.287 413.553 305.941Z" fill="#99A9BF"/>
</g>
<g style="mix-blend-mode:soft-light">
<path fill-rule="evenodd" clip-rule="evenodd" d="M446.802 341.673C444.321 343.162 441.84 344.816 439.358 346.47C437.373 347.628 435.388 349.117 433.238 350.11C430.922 351.433 428.771 352.922 426.455 354.08C422.154 356.23 417.191 357.719 412.56 358.546C408.093 359.208 403.296 358.712 398.995 357.885C396.844 357.554 394.859 356.892 392.709 356.561C390.889 356.23 388.904 356.23 387.084 355.734C383.61 354.742 380.136 354.08 376.662 353.584C374.347 353.253 371.865 353.418 369.384 352.922C366.737 352.426 364.256 351.599 361.609 350.771C360.782 350.606 360.12 350.275 359.293 349.944C353.338 346.14 351.849 342.666 351.849 342.666C351.849 342.666 349.367 340.019 345.894 335.718C346.555 335.883 347.052 336.049 347.713 336.049C350.856 336.71 354.33 336.71 357.473 336.876C361.94 337.041 365.414 339.357 369.384 341.508C372.858 343.327 376.497 343.989 380.302 344.155C383.114 344.32 385.926 343.658 388.738 343.658C391.551 343.658 394.528 343.327 397.341 343.327C402.138 343.162 407.762 342.004 412.229 339.853C416.199 337.868 419.507 334.394 422.32 331.251C423.643 329.928 424.47 328.274 425.628 326.62C426.29 325.627 427.117 324.304 427.448 323.146C427.613 322.649 427.613 321.822 427.779 320.995C434.892 328.439 441.343 335.387 446.802 341.673Z" fill="#99A9BF"/>
</g>
<g style="mix-blend-mode:soft-light">
<path fill-rule="evenodd" clip-rule="evenodd" d="M576.661 203.213C575.172 203.213 573.684 202.717 572.195 202.717C568.225 202.717 564.254 203.875 560.284 204.702C558.795 205.033 557.472 205.694 555.983 206.356C554.494 206.852 552.84 207.183 551.351 207.68C550.193 208.176 549.532 209.003 548.374 209.665C545.892 211.319 542.749 212.642 539.772 213.139C538.448 213.304 536.959 213.304 535.471 213.304C533.155 213.469 530.839 213.8 528.523 213.469C527.365 213.304 526.207 212.973 525.049 212.808C523.56 212.477 521.906 212.477 520.582 211.981C519.259 211.484 518.266 210.492 516.778 210.161C514.296 209.499 511.484 209.499 508.837 209.499C505.363 209.499 502.22 208.838 498.746 208.341C496.761 208.01 494.942 208.341 492.957 208.507C491.633 208.672 490.475 208.672 489.152 209.003C487.663 209.499 487.828 210.326 487.001 211.484C486.34 212.311 485.678 212.642 484.851 213.139C483.527 213.966 482.204 214.958 480.715 215.62C477.738 217.274 475.752 219.921 473.271 222.071C472.609 222.568 472.113 222.899 471.617 223.56C471.286 224.222 470.79 224.718 470.293 225.215C469.466 225.711 468.639 226.042 467.812 226.538C466.323 227.53 464.834 229.185 463.015 229.846C462.353 230.012 461.691 230.177 461.03 230.343C459.872 230.839 458.879 231.335 457.556 231.17C457.059 231.17 456.563 230.839 455.902 230.839C453.916 230.508 451.931 230.674 450.112 231.17C444.818 232.162 439.525 234.478 434.066 234.975C431.088 235.14 428.441 234.809 425.629 233.982C426.125 231.335 426.787 228.854 427.283 226.207C428.11 226.538 428.937 226.869 429.93 227.034C431.253 227.2 432.577 227.2 433.735 227.365C435.885 227.696 438.036 227.861 440.186 227.861C441.179 227.861 442.171 227.861 442.998 227.861C444.487 227.861 445.976 227.2 447.465 227.365C448.954 227.53 450.277 227.861 451.766 227.861C454.247 227.861 456.563 227.696 459.045 227.034C461.691 226.373 464.173 225.215 466.82 224.387C468.639 223.726 470.128 223.229 471.617 222.071C472.609 221.244 473.436 220.417 474.594 219.59C476.083 218.598 477.738 217.44 478.895 216.282C480.715 214.462 482.7 213.139 483.693 210.657C484.024 209.83 484.189 208.672 484.685 208.01C484.851 207.68 485.512 207.349 485.678 207.018C486.505 206.191 486.836 205.198 487.663 204.536C488.821 203.709 490.144 203.875 491.633 203.875C494.28 203.875 496.761 205.033 499.574 205.198C501.228 205.198 502.882 205.529 504.702 205.529C506.191 205.529 507.348 205.364 508.837 205.198C511.98 204.867 515.289 204.206 518.432 203.875C521.41 203.544 523.725 202.551 526.372 203.875C526.869 204.206 527.365 204.371 527.861 204.371C528.688 204.536 529.184 204.702 530.012 204.867C532.824 205.529 535.967 205.198 538.945 205.198C540.599 205.198 542.584 204.867 544.238 205.364C545.231 205.529 545.727 205.86 546.719 205.529C546.719 205.529 547.547 205.198 547.712 205.198C547.877 205.198 548.208 205.198 548.374 205.033C549.035 204.867 550.193 204.371 551.02 204.206C552.675 203.709 554.329 203.213 555.818 202.717C557.307 202.221 558.961 201.89 560.45 201.393C561.938 200.897 563.427 200.401 564.916 199.905C566.239 199.408 567.398 198.912 568.721 198.912C569.879 198.747 570.706 198.416 571.864 198.581C572.691 198.581 573.518 198.581 574.345 198.581C574.842 198.581 575.338 198.581 575.834 198.581L576.661 203.213Z" fill="#99A9BF"/>
</g>
<g style="mix-blend-mode:soft-light">
<path fill-rule="evenodd" clip-rule="evenodd" d="M465.992 250.359C468.473 250.028 470.624 248.705 472.444 247.051C471.12 248.54 469.797 250.028 467.977 251.186C467.315 251.517 466.985 252.014 466.323 252.344C465.165 253.171 463.014 253.337 461.691 253.502C460.037 253.668 458.383 253.999 456.563 253.833C454.743 253.833 452.924 254.164 451.104 254.164C447.134 254.329 443.329 255.322 439.359 256.149C435.058 257.142 430.426 257.142 425.959 257.142C424.305 257.142 422.651 256.645 421.162 255.984C421.658 253.668 422.155 251.352 422.651 249.036C422.651 249.036 422.651 249.036 422.816 249.036C425.463 249.532 427.944 250.194 430.757 250.525C433.9 250.856 436.877 250.69 440.02 250.856C444.156 251.186 448.292 251.517 452.427 251.021C456.894 250.856 461.526 251.021 465.992 250.359Z" fill="#99A9BF"/>
</g>
<path fill-rule="evenodd" clip-rule="evenodd" d="M472.443 246.885C473.105 246.223 473.767 245.562 474.428 244.9C473.767 245.727 473.105 246.389 472.443 246.885Z" fill="#99A9BF"/>
<g style="mix-blend-mode:soft-light">
<path fill-rule="evenodd" clip-rule="evenodd" d="M577.322 224.387C576.992 224.387 576.495 224.553 576.164 224.553C574.676 224.718 573.187 225.049 571.533 225.38C567.232 226.372 562.765 227.034 558.299 227.861C557.141 228.027 555.983 228.357 554.99 228.854C554.328 229.019 553.501 229.35 552.84 229.681C552.343 230.012 552.178 230.342 551.516 230.508C551.02 230.673 550.358 231.17 549.697 231.17C549.035 231.335 548.373 231.335 547.546 231.5C546.553 231.831 545.561 231.997 544.568 231.997C542.252 232.162 539.937 232.658 537.786 232.824C535.47 232.989 533.154 232.824 530.838 232.824C529.018 232.824 527.53 232.493 525.875 232.328C524.387 232.162 522.898 232.493 521.409 232.328C519.92 231.997 518.101 231.666 516.943 230.839C516.612 230.508 516.281 230.177 515.95 230.012C515.123 229.681 514.13 229.35 513.303 229.185C509.333 228.357 505.197 228.357 501.227 228.027C499.077 227.861 497.092 227.861 494.941 227.696C493.949 227.53 492.956 227.53 491.963 227.53C490.64 227.53 489.317 227.365 488.655 228.357C487.993 229.185 487.828 230.508 487.497 231.5C486.67 233.32 485.512 234.974 484.189 236.463C482.7 238.117 480.88 239.275 479.06 240.599C478.068 241.26 477.406 242.253 476.579 243.08C475.752 243.742 474.925 244.404 474.098 245.065C474.759 244.238 475.421 243.411 475.917 242.584C478.068 239.606 481.707 237.456 483.527 234.313C484.189 233.155 484.519 231.997 485.016 230.839C485.512 229.846 486.008 229.019 486.504 228.192C487.001 227.365 487.497 225.711 488.49 225.214C489.151 224.883 489.813 225.214 490.475 225.545C491.798 225.876 493.452 225.545 494.776 225.545C496.761 225.711 498.58 226.041 500.566 226.041C502.054 226.041 503.543 226.207 505.032 226.372C507.183 226.538 509.002 226.869 511.153 226.869C512.972 226.869 514.792 226.703 516.446 226.869C517.604 227.034 518.266 228.027 519.093 228.688C520.747 229.515 522.567 229.846 524.387 229.846C525.875 229.846 527.199 229.846 528.688 229.846C530.838 229.846 532.823 229.515 534.808 229.35C538.117 229.185 541.425 229.019 544.899 229.019C547.381 229.019 549.531 228.854 552.012 228.688C560.118 227.696 567.562 224.056 575.503 222.402C575.999 222.237 576.33 222.237 576.826 222.071L577.322 224.387Z" fill="#99A9BF"/>
</g>
<g style="mix-blend-mode:soft-light">
<path fill-rule="evenodd" clip-rule="evenodd" d="M572.36 79.8068L572.525 84.935C572.36 84.935 572.029 84.935 571.864 85.1004C571.533 85.2658 571.367 85.4312 570.871 85.4312C570.54 85.4312 569.879 85.4312 569.548 85.4312C566.405 85.4312 563.427 86.4238 560.449 87.2509C558.961 87.5818 557.306 87.9126 555.817 88.2435C554.825 88.4089 553.832 88.7397 552.84 88.7397C552.178 88.7397 551.02 88.5743 550.358 88.7397C550.028 88.7397 549.862 89.0706 549.531 89.236C549.035 89.4014 548.539 89.0706 548.043 89.236C547.546 89.236 547.215 89.5668 546.719 89.5668C546.223 89.5668 545.727 89.5668 545.23 89.5668C542.914 89.8977 540.598 90.7248 538.282 91.0557C532.823 91.7174 527.364 92.5445 521.905 93.2062C519.259 93.537 516.612 93.537 513.965 93.8679C510.326 94.1987 506.852 94.8604 503.047 95.0258C501.227 95.0258 499.573 95.1913 497.919 95.1913C498.25 93.2062 498.581 91.2211 498.912 89.0706H504.536C508.01 89.0706 511.318 88.7397 514.792 88.5743C517.935 88.4089 521.078 87.7472 524.221 87.4163C526.703 87.2509 529.35 86.5892 531.831 86.4238C532.658 86.4238 533.485 86.4238 534.312 86.4238C535.139 86.2584 535.967 86.0929 536.794 86.0929C538.117 86.0929 539.275 85.7621 540.598 85.5967C542.087 85.4312 543.411 85.7621 544.734 85.5967C545.727 85.4312 546.388 85.2658 547.381 85.2658C548.042 85.2658 548.704 85.1004 549.2 84.935C549.697 84.7695 550.358 84.6041 551.02 84.4387C552.509 84.1078 553.998 83.4461 555.487 83.1153C557.306 82.7845 559.291 82.1228 561.111 81.4611C563.427 80.6339 565.743 79.6414 567.893 78.4834C568.721 78.1526 569.548 77.6563 570.375 77.16C570.706 76.9946 571.367 76.4983 571.864 76.3329C571.864 76.3329 572.029 76.3329 572.194 76.1675C572.36 76.8292 572.36 77.4909 572.194 78.1526C572.194 78.4834 572.029 78.6488 572.029 78.8143C572.029 78.8143 572.029 78.8143 572.029 78.9797C572.194 79.3105 572.194 79.476 572.36 79.8068Z" fill="#99A9BF"/>
</g>
<g style="mix-blend-mode:soft-light">
<path fill-rule="evenodd" clip-rule="evenodd" d="M573.683 120.005C572.029 119.839 570.54 119.509 568.886 119.343C566.57 119.178 564.254 119.343 561.938 119.674C559.291 120.005 556.644 119.839 553.997 119.839C552.839 119.839 551.847 120.005 550.689 120.17C549.696 120.336 548.869 120.832 547.877 121.163C547.05 121.494 546.222 121.659 545.23 121.99C544.568 122.321 543.907 122.817 543.079 122.982C542.583 123.148 541.756 123.644 541.26 123.81C540.763 123.975 540.267 123.81 539.771 123.975C538.778 123.975 537.951 124.306 536.959 124.471C534.643 124.802 532.327 124.802 530.011 124.968C526.372 125.133 522.732 125.629 519.258 125.795C512.972 125.96 506.355 126.787 500.069 126.126C498.746 125.96 497.422 125.795 496.099 125.795C495.272 125.795 494.279 125.96 493.452 125.795C494.279 120.005 495.106 113.719 496.099 107.598C500.069 108.26 504.039 109.252 508.009 110.079C510.16 110.576 512.145 110.741 514.296 110.741C516.777 110.741 518.597 109.914 520.913 109.087C523.228 108.26 525.214 107.267 527.53 106.605C530.176 105.778 532.989 105.613 535.635 105.282C537.62 105.117 539.605 104.951 541.756 104.951C543.245 104.951 544.568 104.62 545.892 104.62C547.546 104.455 549.035 103.462 550.689 103.793C551.185 103.959 551.351 104.124 551.681 104.29C552.178 104.455 552.839 104.124 553.336 104.29C554.494 104.455 555.817 104.951 556.975 105.117C557.968 105.282 558.96 105.778 559.953 105.447C560.284 105.447 560.449 105.117 560.78 105.117C561.276 104.951 561.772 105.117 562.269 105.117C563.592 104.951 564.75 104.62 566.073 104.29C567.728 103.959 569.547 104.124 571.367 103.793C571.698 103.628 572.359 103.462 573.021 103.462L573.683 120.005Z" fill="#99A9BF"/>
</g>
<g style="mix-blend-mode:multiply" opacity="0.72">
<path fill-rule="evenodd" clip-rule="evenodd" d="M466.819 162.188L474.429 194.446L482.865 223.891L493.122 249.532L488.324 186.009L487.001 140.021L474.429 152.262L466.819 162.188Z" fill="url(#paint8_linear_1329_785)"/>
</g>
<path fill-rule="evenodd" clip-rule="evenodd" d="M460.037 162.85L470.955 156.895L467.316 164.669L460.037 162.85Z" fill="#2FA7FE"/>
<path fill-rule="evenodd" clip-rule="evenodd" d="M543.576 50.5264L552.84 42.7515L549.531 56.978L543.576 50.5264Z" fill="#2FA7FE"/>
<path fill-rule="evenodd" clip-rule="evenodd" d="M521.244 52.3461L509.499 95.191L493.618 125.629C493.618 125.629 502.22 61.7753 509.168 38.1196L521.244 52.3461Z" fill="#0C83DE"/>
<g style="mix-blend-mode:multiply" opacity="0.5">
<path fill-rule="evenodd" clip-rule="evenodd" d="M127.865 378.728C127.865 378.728 138.452 381.375 157.476 383.195C176.335 384.849 187.087 382.533 187.253 381.044C187.418 379.556 184.771 377.736 168.229 374.758C151.686 371.45 127.865 378.728 127.865 378.728Z" fill="url(#paint9_linear_1329_785)"/>
</g>
<path fill-rule="evenodd" clip-rule="evenodd" d="M172.199 377.405C170.379 380.217 130.678 380.879 127.865 378.728C126.211 377.57 130.181 374.427 133.986 372.111C136.964 370.292 139.776 368.803 139.776 368.803C139.776 368.803 148.543 365.66 153.671 366.322C158.8 366.983 169.552 371.284 169.552 371.284C169.552 371.284 169.552 371.284 169.718 371.284C170.048 371.781 174.019 374.758 172.199 377.405Z" fill="url(#paint10_linear_1329_785)"/>
<path opacity="0.3" fill-rule="evenodd" clip-rule="evenodd" d="M172.199 377.405C170.379 380.217 130.678 380.879 127.865 378.728C126.211 377.57 130.181 374.427 133.986 372.111C133.986 372.111 130.843 375.089 130.843 376.412C130.843 377.901 165.582 378.232 169.552 376.412C173.192 374.758 170.048 371.78 169.552 371.284C170.048 371.78 174.019 374.758 172.199 377.405Z" fill="url(#paint11_linear_1329_785)"/>
<path opacity="0.5" fill-rule="evenodd" clip-rule="evenodd" d="M3.46582 362.186C3.46582 362.186 6.27803 364.005 20.6699 365.329C35.0619 366.652 46.1453 365.163 46.3107 363.84C46.4761 362.682 44.3256 361.359 31.7534 359.043C19.1811 356.727 3.46582 362.186 3.46582 362.186Z" fill="url(#paint12_linear_1329_785)"/>
<path fill-rule="evenodd" clip-rule="evenodd" d="M32.5804 360.532L19.181 363.84C19.181 363.84 1.97692 364.667 0.984375 360.532C0.984375 360.532 1.97692 347.298 7.10507 344.982C10.9098 343.162 18.0231 353.584 23.3167 355.9C28.4448 358.05 32.5804 360.532 32.5804 360.532Z" fill="url(#paint13_linear_1329_785)"/>
<path opacity="0.3" fill-rule="evenodd" clip-rule="evenodd" d="M32.5804 360.531L19.181 363.84C19.181 363.84 1.97692 364.667 0.984375 360.531C0.984375 360.531 9.75186 362.186 17.3614 360.531C24.9709 358.877 23.3167 355.899 23.3167 355.899C28.4448 358.05 32.5804 360.531 32.5804 360.531Z" fill="url(#paint14_linear_1329_785)"/>
<g style="mix-blend-mode:multiply" opacity="0.5">
<path fill-rule="evenodd" clip-rule="evenodd" d="M284.19 354.08C284.19 354.08 288.326 359.208 310.162 361.193C331.998 363.178 353.999 362.02 355.985 361.193C357.97 360.366 334.149 350.771 334.149 350.771L284.19 354.08Z" fill="url(#paint15_linear_1329_785)"/>
</g>
<path fill-rule="evenodd" clip-rule="evenodd" d="M284.19 354.08C286.506 357.554 333.652 358.216 337.126 355.569C340.104 353.418 327.862 346.305 324.223 344.154C324.058 343.989 323.892 343.989 323.727 343.824C323.396 343.658 323.231 343.493 323.231 343.493C323.231 343.493 312.643 339.688 306.523 340.515C300.402 341.342 287.664 346.47 287.664 346.47C287.664 346.47 281.874 350.606 284.19 354.08Z" fill="url(#paint16_linear_1329_785)"/>
<g style="mix-blend-mode:multiply" opacity="0.3">
<path fill-rule="evenodd" clip-rule="evenodd" d="M284.19 354.08C286.506 357.554 333.652 358.215 337.126 355.569C340.104 353.418 327.862 346.305 324.223 344.154C326.87 345.809 333.818 350.11 331.171 352.426C327.862 355.238 292.296 356.561 284.19 354.08Z" fill="url(#paint17_linear_1329_785)"/>
</g>
<path fill-rule="evenodd" clip-rule="evenodd" d="M232.082 365.659C232.082 365.659 228.608 344.154 242.338 356.396L247.632 365.659H232.082Z" fill="url(#paint18_linear_1329_785)"/>
<g style="mix-blend-mode:multiply" opacity="0.5">
<path fill-rule="evenodd" clip-rule="evenodd" d="M232.082 365.66C232.082 365.66 249.948 369.63 256.896 369.299C263.843 368.968 247.632 365.66 247.632 365.66H232.082Z" fill="url(#paint19_linear_1329_785)"/>
</g>
<defs>
<linearGradient id="paint0_linear_1329_785" x1="534.337" y1="394.379" x2="534.337" y2="331.97" gradientUnits="userSpaceOnUse">
<stop stop-color="#38327F"/>
<stop offset="1" stop-color="#1513A7"/>
</linearGradient>
<linearGradient id="paint1_linear_1329_785" x1="502.998" y1="355.728" x2="502.998" y2="0.0577651" gradientUnits="userSpaceOnUse">
<stop stop-color="#2C0086"/>
<stop offset="1" stop-color="#2572FF"/>
</linearGradient>
<linearGradient id="paint2_linear_1329_785" x1="502.994" y1="356.484" x2="502.994" y2="0.064214" gradientUnits="userSpaceOnUse">
<stop stop-color="#38327F"/>
<stop offset="1" stop-color="#7B93FF"/>
</linearGradient>
<linearGradient id="paint3_linear_1329_785" x1="499.815" y1="355.724" x2="499.815" y2="153.727" gradientUnits="userSpaceOnUse">
<stop stop-color="#38327F"/>
<stop offset="1" stop-color="#7B93FF"/>
</linearGradient>
<linearGradient id="paint4_linear_1329_785" x1="552.976" y1="139.399" x2="552.976" y2="18.9859" gradientUnits="userSpaceOnUse">
<stop stop-color="#38327F"/>
<stop offset="1" stop-color="#7B93FF"/>
</linearGradient>
<linearGradient id="paint5_linear_1329_785" x1="543.518" y1="355.723" x2="543.518" y2="199.364" gradientUnits="userSpaceOnUse">
<stop stop-color="#38327F"/>
<stop offset="1" stop-color="#7B93FF"/>
</linearGradient>
<linearGradient id="paint6_linear_1329_785" x1="390.71" y1="364.487" x2="390.71" y2="246.964" gradientUnits="userSpaceOnUse">
<stop stop-color="#482ACC"/>
<stop offset="1" stop-color="#2588FF"/>
</linearGradient>
<linearGradient id="paint7_linear_1329_785" x1="400.696" y1="364.66" x2="400.696" y2="320.731" gradientUnits="userSpaceOnUse">
<stop stop-color="#38327F"/>
<stop offset="1" stop-color="#7B93FF"/>
</linearGradient>
<linearGradient id="paint8_linear_1329_785" x1="479.972" y1="249.604" x2="479.972" y2="139.992" gradientUnits="userSpaceOnUse">
<stop stop-color="#38327F"/>
<stop offset="1" stop-color="#7B93FF"/>
</linearGradient>
<linearGradient id="paint9_linear_1329_785" x1="157.518" y1="383.729" x2="157.518" y2="373.799" gradientUnits="userSpaceOnUse">
<stop stop-color="#38327F"/>
<stop offset="1" stop-color="#1513A7"/>
</linearGradient>
<linearGradient id="paint10_linear_1329_785" x1="150.053" y1="380.054" x2="150.053" y2="366.141" gradientUnits="userSpaceOnUse">
<stop stop-color="#482ACC"/>
<stop offset="1" stop-color="#2588FF"/>
</linearGradient>
<linearGradient id="paint11_linear_1329_785" x1="150.053" y1="380.053" x2="150.053" y2="371.303" gradientUnits="userSpaceOnUse">
<stop stop-color="#38327F"/>
<stop offset="1" stop-color="#7B93FF"/>
</linearGradient>
<linearGradient id="paint12_linear_1329_785" x1="24.9455" y1="365.688" x2="24.9455" y2="358.32" gradientUnits="userSpaceOnUse">
<stop stop-color="#38327F"/>
<stop offset="1" stop-color="#1513A7"/>
</linearGradient>
<linearGradient id="paint13_linear_1329_785" x1="16.7662" y1="363.83" x2="16.7662" y2="344.708" gradientUnits="userSpaceOnUse">
<stop stop-color="#482ACC"/>
<stop offset="1" stop-color="#2588FF"/>
</linearGradient>
<linearGradient id="paint14_linear_1329_785" x1="16.7662" y1="363.83" x2="16.7662" y2="355.842" gradientUnits="userSpaceOnUse">
<stop stop-color="#38327F"/>
<stop offset="1" stop-color="#7B93FF"/>
</linearGradient>
<linearGradient id="paint15_linear_1329_785" x1="320.076" y1="362.142" x2="320.076" y2="350.687" gradientUnits="userSpaceOnUse">
<stop stop-color="#38327F"/>
<stop offset="1" stop-color="#1513A7"/>
</linearGradient>
<linearGradient id="paint16_linear_1329_785" x1="310.552" y1="357.142" x2="310.552" y2="340.542" gradientUnits="userSpaceOnUse">
<stop stop-color="#482ACC"/>
<stop offset="1" stop-color="#2588FF"/>
</linearGradient>
<linearGradient id="paint17_linear_1329_785" x1="310.817" y1="357.142" x2="310.817" y2="344.231" gradientUnits="userSpaceOnUse">
<stop stop-color="#38327F"/>
<stop offset="1" stop-color="#7B93FF"/>
</linearGradient>
<linearGradient id="paint18_linear_1329_785" x1="239.715" y1="365.681" x2="239.715" y2="352.67" gradientUnits="userSpaceOnUse">
<stop stop-color="#482ACC"/>
<stop offset="1" stop-color="#2588FF"/>
</linearGradient>
<linearGradient id="paint19_linear_1329_785" x1="245.395" y1="369.406" x2="245.395" y2="365.681" gradientUnits="userSpaceOnUse">
<stop stop-color="#38327F"/>
<stop offset="1" stop-color="#1513A7"/>
</linearGradient>
</defs>
</svg>
