<svg width="100%" viewBox="0 0 1440 900" fill="none" xmlns="http://www.w3.org/2000/svg">
<mask id="mask0_1316_566" style="mask-type:alpha" maskUnits="userSpaceOnUse" x="0" y="0" width="1440" height="900">
<rect width="1440" height="900" fill="#D9D9D9"/>
</mask>
<g mask="url(#mask0_1316_566)">
<path opacity="0.1" d="M378.38 478.607C355.719 495.235 323.973 475.418 329.497 447.886C334.15 424.583 348.847 399.431 358.91 385.027C386.038 346.366 444.212 317.683 436.818 260.607C432.384 226.211 402.56 208.472 369.871 209.299C330.854 210.187 313.201 231.299 292.937 260.003C268.972 293.973 237.776 324.408 211.772 357.187C185.456 390.385 157.406 424.459 118.057 442.545C24.521 485.995 56.6812 319.207 48.904 266.288C30.6322 141.959 -58.9651 230.813 -117.408 274.573C-209.347 347.491 -287.659 237.454 -227.512 150.318C-183.533 81.7144 -61.004 -3.77698 21.0723 21.942C128.173 52.1859 81.327 156.258 148.023 205.862C247.691 277.713 384.714 125.093 488.41 169.384C589.637 213.789 423.956 439.472 378.38 478.607Z" fill="url(#paint0_linear_1316_566)"/>
<path opacity="0.2" fill-rule="evenodd" clip-rule="evenodd" d="M1476.03 -70.3511C1476.03 -70.3511 1400.22 -21.9571 1357.2 -5.38838C1314.18 11.1804 1294.24 -2.12126 1294.24 -2.12126C1294.24 -2.12126 1257.81 2.27474 1234.03 15.1802C1210.25 28.0857 1204.73 39.8961 1188.89 54.1836C1173.06 68.4712 1133.7 57.5266 1133.7 57.5266L1034.3 90.223L932.751 126.75C932.751 126.75 1033.76 87.8573 1046.19 72.9153C1058.61 57.9732 1144.08 10.5121 1159.91 -3.77539C1175.75 -18.0629 1193.21 -11.7427 1210.17 -32.6037C1227.13 -53.4647 1246.14 -77.2562 1270.79 -93.6007C1295.44 -109.945 1344.57 -132.2 1370.61 -141.418C1396.65 -150.637 1436.5 -157.702 1436.5 -157.702L1504.66 -161.881L1574.55 -186.448L1868.62 -138.664C1868.62 -138.664 1708.2 -63.0822 1638.48 -48.9485C1612.13 -43.6775 1476.03 -70.3511 1476.03 -70.3511Z" fill="url(#paint1_linear_1316_566)"/>
</g>
<defs>
<linearGradient id="paint0_linear_1316_566" x1="465.86" y1="406.722" x2="-185.446" y2="105.986" gradientUnits="userSpaceOnUse">
<stop stop-color="#4793FF"/>
<stop offset="0.2524" stop-color="#046462" stop-opacity="0"/>
<stop offset="0.468034" stop-color="#4793FF"/>
<stop offset="0.7533" stop-color="#046462" stop-opacity="0"/>
<stop offset="1" stop-color="#4793FF"/>
</linearGradient>
<linearGradient id="paint1_linear_1316_566" x1="932.748" y1="126.722" x2="1578.95" y2="-100.508" gradientUnits="userSpaceOnUse">
<stop stop-color="#4793FF"/>
<stop offset="1" stop-color="#080534"/>
</linearGradient>
</defs>
</svg>
