<svg width="100%" viewBox="0 0 1440 900" fill="none" xmlns="http://www.w3.org/2000/svg">
<mask id="mask0_1314_557" style="mask-type:alpha" maskUnits="userSpaceOnUse" x="0" y="0" width="1440" height="900">
<rect width="1440" height="900" fill="#D9D9D9"/>
</mask>
<g mask="url(#mask0_1314_557)">
<g filter="url(#filter0_f_1314_557)">
<path d="M106.5 471C27.3 455.8 -27.8333 300.667 -31.5 251V903H1484.5C1095 819 1242 726 1304.5 668C1367 610 1441.5 487 1441.5 351.5C1080 748 699.427 444 909.5 668C1000 764.5 957 789 879.5 763C802 737 767.5 722 552 748C336.5 774 229 692 227 610C225 528 205.5 490 106.5 471Z" fill="url(#paint0_linear_1314_557)"/>
</g>
<mask id="mask1_1314_557" style="mask-type:alpha" maskUnits="userSpaceOnUse" x="-4" y="436" width="1440" height="484">
<path d="M1436 436H-4V920H1436V436Z" fill="black"/>
</mask>
<g mask="url(#mask1_1314_557)">
<path d="M255.121 777.585L80.6494 773.92L83.093 726.026L87.4914 640.378L87.9802 631.459L89.3241 628.527L97.2658 609.956L108.873 555.341L141.983 548.011H142.106L153.102 589.43L159.333 613.01L206.005 649.908L255.121 777.585Z" fill="url(#paint1_linear_1314_557)"/>
<path d="M159.332 613.01L146.992 629.993L135.874 690.227L161.287 638.79L206.005 649.908L159.332 613.01Z" fill="url(#paint2_linear_1314_557)"/>
<path d="M142.105 548.011L124.267 562.672L110.094 743.864L83.0925 726.026L75.7617 721.139L87.4909 640.378L89.3236 628.527L97.2653 609.956L108.872 555.341L142.105 548.011Z" fill="url(#paint3_linear_1314_557)"/>
<path d="M159.332 613.01L161.287 638.79L206.004 649.908L159.332 613.01Z" fill="url(#paint4_linear_1314_557)"/>
<path d="M129.398 557.174L134.53 628.038L134.652 552.531L129.398 557.174Z" fill="url(#paint5_linear_1314_557)"/>
<path d="M177.537 643.555L170.084 625.961L184.012 645.021L183.402 679.964L177.537 643.555Z" fill="url(#paint6_linear_1314_557)"/>
<g style="mix-blend-mode:screen" opacity="0.2">
<path d="M153.101 589.43C148.458 586.864 143.449 583.198 140.15 577.822C132.453 565.238 124.145 562.794 124.145 562.794L141.983 548.011H142.105L153.101 589.43Z" fill="url(#paint7_linear_1314_557)"/>
</g>
<path d="M142.105 548.011L124.267 562.672L108.872 555.341L142.105 548.011Z" fill="url(#paint8_linear_1314_557)"/>
<g style="mix-blend-mode:color-dodge" opacity="0.4">
<path d="M255.12 777.585L80.6484 773.92L83.092 726.026L87.4905 640.378L87.9792 631.459L89.3232 628.527L97.2648 609.956L108.872 555.341L141.982 548.011H142.105L153.101 589.43L159.332 613.01L206.004 649.908L255.12 777.585Z" fill="url(#paint9_linear_1314_557)"/>
</g>
<path d="M233.128 777.096L228.73 770.254L228.119 769.277L227.997 769.155L226.531 766.955L225.431 765.123L216.756 751.683L176.437 689.127L174.482 688.516L141.738 678.62L138.317 677.52L132.208 675.688L131.842 674.954L117.425 650.152L105.207 629.015L100.931 612.521L100.198 609.466L98.6092 603.357L85.0473 550.576L81.8706 538.114L56.9461 521.497L48.6379 515.999L28.967 451L3.18723 459.553L-2.06647 504.026L-2.92173 511.112L-27.4797 541.779L-36.1545 595.905L-50.2051 608V795.423L5.1421 792.124H6.36389L45.7056 789.803L79.7936 787.848L234.228 778.807L233.128 777.096Z" fill="url(#paint10_linear_1314_557)"/>
<path d="M227.997 769.155L-35.2996 781.25L-37.7432 764.023L-22.9595 688.761L-4.14388 624.983L-3.28863 538.114L11.3729 519.298L13.0834 463.707L28.9667 451L48.6375 515.999L81.8703 538.114L105.207 629.015L132.208 675.688L176.437 689.127L227.997 769.155Z" fill="url(#paint11_linear_1314_557)"/>
<path d="M28.9673 451L13.084 463.707L3.1875 459.553L28.9673 451Z" fill="url(#paint12_linear_1314_557)"/>
<path d="M11.3735 519.299L-3.28801 538.114L-27.4795 541.78L-2.92147 511.113L11.3735 519.299Z" fill="url(#paint13_linear_1314_557)"/>
<path d="M48.6377 516L70.7521 603.236L56.8237 521.376L48.6377 516Z" fill="url(#paint14_linear_1314_557)"/>
<path d="M11.3728 519.299L17.3596 566.949L7.21875 524.675L11.3728 519.299Z" fill="url(#paint15_linear_1314_557)"/>
<path d="M3.1875 459.553L13.084 463.707L11.3735 519.298L11.4957 464.806L3.1875 459.553Z" fill="#212184"/>
<path d="M-17.9502 582.71L-3.53305 571.592L5.0195 578.312L-3.41087 564.872L-17.9502 582.71Z" fill="url(#paint16_linear_1314_557)"/>
<g style="mix-blend-mode:overlay" opacity="0.5">
<path d="M-4.14355 624.984L-3.53266 571.592L5.01989 578.312L-2.06651 573.791L-4.14355 624.984Z" fill="white"/>
</g>
<g style="mix-blend-mode:overlay" opacity="0.5">
<path d="M-3.28809 538.115L7.21932 524.675L17.3602 566.949L6.97496 529.806L-3.28809 538.115Z" fill="white"/>
</g>
<g style="mix-blend-mode:color-dodge" opacity="0.4">
<path d="M233.128 777.096L228.73 770.254L228.119 769.277L227.997 769.155L226.531 766.955L225.431 765.123L216.756 751.683L176.437 689.127L174.482 688.516L141.738 678.62L138.317 677.52L132.208 675.688L131.842 674.954L117.425 650.152L105.207 629.015L100.931 612.521L100.198 609.466L98.6092 603.357L85.0473 550.576L81.8706 538.114L56.9461 521.497L48.6379 515.999L28.967 451L3.18723 459.553L-2.06647 504.026L-2.92173 511.112L-27.4797 541.779L-36.1545 595.905L-50.2051 608V795.423L5.1421 792.124H6.36389L45.7056 789.803L79.7936 787.848L234.228 778.807L233.128 777.096Z" fill="url(#paint17_linear_1314_557)"/>
</g>
<path d="M266.85 726.025L232.884 735.433L221.155 738.732L210.647 722.482L249.623 720.039L266.85 726.025Z" fill="url(#paint18_linear_1314_557)"/>
<path d="M266.85 726.025L265.262 762.434L229.219 763.412L221.155 738.732L266.85 726.025Z" fill="url(#paint19_linear_1314_557)"/>
<path d="M221.155 738.732L241.193 733.234L239.604 754.005L227.02 755.715L221.155 738.732Z" fill="url(#paint20_linear_1314_557)"/>
<path d="M237.893 765.367L227.997 765.245L89.3235 763.779L13.0837 762.924L-23.8145 759.747C-23.8145 759.747 -2.31091 657.239 9.41829 646.12C19.3148 636.835 100.32 609.222 100.32 609.222L101.908 611.666L139.661 670.556L187.556 686.562L233.495 758.281L237.893 765.367Z" fill="url(#paint21_linear_1314_557)"/>
<path d="M233.495 758.403L227.997 765.245L224.454 769.644L89.3237 763.657L14.3057 760.358L24.6909 695.359L44.3618 681.186L49.8598 648.075L101.908 611.91L139.662 670.801L187.556 686.684L233.495 758.403Z" fill="url(#paint22_linear_1314_557)"/>
<path d="M187.556 686.684L130.987 694.747L108.262 757.914L64.6436 754.86L110.094 686.439L139.662 670.8L187.556 686.684Z" fill="url(#paint23_linear_1314_557)"/>
<path d="M24.6903 695.358L13.0833 762.801L-32.123 756.081L-9.03118 697.68L24.6903 695.358Z" fill="url(#paint24_linear_1314_557)"/>
<path d="M287.376 748.995L246.568 743.253L218.223 751.805L179.003 748.14L116.325 757.914L-50.2051 746.918V861.767V1038.07L43.6286 920H330.139V786.26L332.582 755.471L287.376 748.995Z" fill="url(#paint25_linear_1314_557)"/>
<g style="mix-blend-mode:screen" opacity="0.2">
<path d="M332.583 755.472L331.972 759.748L236.672 792.248C278.824 768.545 286.888 755.349 287.376 748.996L332.583 755.472Z" fill="url(#paint26_linear_1314_557)"/>
</g>
<path d="M281.512 775.142L289.575 771.965L332.582 755.471L330.139 786.26V920H43.6286L-50.2051 1038.07V832.321L10.6402 826.701L15.4052 825.357L73.0738 808.374L87.3687 804.22L123.656 793.591H125.489L236.672 792.369L281.512 775.142Z" fill="url(#paint27_linear_1314_557)"/>
<path d="M236.671 792.369L234.961 820.959L233.5 920H163L179.614 812.528L135.5 920H125.488V793.59L236.671 792.369Z" fill="url(#paint28_linear_1314_557)"/>
<path d="M289.575 771.843V771.965L288.598 814.239L281.878 775.142H281.512L210.525 768.544L289.575 771.843Z" fill="url(#paint29_linear_1314_557)"/>
<path d="M87.3692 804.22L77.3505 883.514L73.0742 808.374L87.3692 804.22Z" fill="url(#paint30_linear_1314_557)"/>
<path d="M15.4052 825.357L10.6402 826.701L-50.2051 832.322V1038.07L-23.2035 998.119L15.5273 825.48L15.4052 825.357Z" fill="url(#paint31_linear_1314_557)"/>
<path d="M125.488 793.591L74.5395 794.812L-35.5439 775.752L64.0321 786.749L163.242 793.224L125.488 793.591Z" fill="url(#paint32_linear_1314_557)"/>
<path d="M87.3688 804.22L57.5571 803.731L-7.56445 788.948L54.8691 804.953L73.0738 808.374L87.3688 804.22Z" fill="url(#paint33_linear_1314_557)"/>
<path d="M49.8596 648.075L44.3615 681.185L-6.2207 688.76L0.376976 668.356L49.8596 648.075Z" fill="url(#paint34_linear_1314_557)"/>
<path d="M139.661 670.8L110.094 686.439L130.986 694.747L187.555 686.684L139.661 670.8Z" fill="url(#paint35_linear_1314_557)"/>
<path d="M49.8596 648.075L70.7522 683.873L65.8651 741.542L66.2316 684.728L47.416 662.614L49.8596 648.075Z" fill="url(#paint36_linear_1314_557)"/>
<path d="M44.3611 681.186L45.3386 723.215L39.1074 684.729L44.3611 681.186Z" fill="url(#paint37_linear_1314_557)"/>
<g style="mix-blend-mode:overlay" opacity="0.5">
<path d="M47.416 662.615L66.2316 684.729L65.8651 741.543L63.4215 685.462L47.416 662.615Z" fill="white"/>
</g>
<path d="M83.0928 624.983L85.292 682.774L90.4235 618.019L83.0928 624.983Z" fill="url(#paint38_linear_1314_557)"/>
<g style="mix-blend-mode:overlay" opacity="0.5">
<path d="M49.8594 648.075L83.0921 624.983L85.2913 682.774L81.9925 627.671L49.8594 648.075Z" fill="white"/>
</g>
<path d="M152.002 691.693L132.453 685.462L164.586 689.86L161.287 741.909L152.002 691.693Z" fill="url(#paint39_linear_1314_557)"/>
<g style="mix-blend-mode:overlay" opacity="0.5">
<path d="M130.986 694.748L152.001 691.693L161.287 741.909L150.291 693.526L130.986 694.748Z" fill="white"/>
</g>
<path opacity="0.2" d="M266.849 726.025L233.006 735.433C244.857 729.202 249.622 720.039 249.622 720.039L266.849 726.025Z" fill="url(#paint40_linear_1314_557)"/>
<path d="M1143.67 777.585L1318.15 773.92L1315.7 726.026L1311.3 640.378L1310.81 631.459L1309.47 628.527L1301.53 609.956L1289.92 555.341L1256.81 548.011H1256.69L1245.69 589.43L1239.46 613.01L1192.79 649.908L1143.67 777.585Z" fill="url(#paint41_linear_1314_557)"/>
<path d="M1239.46 613.01L1251.8 629.993L1262.92 690.227L1237.51 638.79L1192.79 649.908L1239.46 613.01Z" fill="url(#paint42_linear_1314_557)"/>
<path d="M1256.69 548.011L1274.53 562.672L1288.7 743.864L1315.7 726.026L1323.03 721.139L1311.3 640.378L1309.47 628.527L1301.53 609.956L1289.92 555.341L1256.69 548.011Z" fill="url(#paint43_linear_1314_557)"/>
<path d="M1239.46 613.01L1237.51 638.79L1192.79 649.908L1239.46 613.01Z" fill="url(#paint44_linear_1314_557)"/>
<path d="M1269.4 557.174L1264.26 628.038L1264.14 552.531L1269.4 557.174Z" fill="url(#paint45_linear_1314_557)"/>
<path d="M1221.26 643.555L1228.71 625.961L1214.78 645.021L1215.39 679.964L1221.26 643.555Z" fill="url(#paint46_linear_1314_557)"/>
<g style="mix-blend-mode:screen" opacity="0.2">
<path d="M1245.69 589.43C1250.34 586.864 1255.35 583.198 1258.64 577.822C1266.34 565.238 1274.65 562.794 1274.65 562.794L1256.81 548.011H1256.69L1245.69 589.43Z" fill="url(#paint47_linear_1314_557)"/>
</g>
<path d="M1256.69 548.011L1274.53 562.672L1289.92 555.341L1256.69 548.011Z" fill="url(#paint48_linear_1314_557)"/>
<g style="mix-blend-mode:color-dodge" opacity="0.4">
<path d="M1143.67 777.585L1318.15 773.92L1315.7 726.026L1311.3 640.378L1310.82 631.459L1309.47 628.527L1301.53 609.956L1289.92 555.341L1256.81 548.011H1256.69L1245.69 589.43L1239.46 613.01L1192.79 649.908L1143.67 777.585Z" fill="url(#paint49_linear_1314_557)"/>
</g>
<path d="M1165.67 777.096L1170.06 770.254L1170.68 769.277L1170.8 769.155L1172.26 766.955L1173.36 765.123L1182.04 751.683L1222.36 689.127L1224.31 688.516L1257.06 678.62L1260.48 677.52L1266.59 675.688L1266.95 674.954L1281.37 650.152L1293.59 629.015L1297.86 612.521L1298.6 609.466L1300.19 603.357L1313.75 550.576L1316.92 538.114L1341.85 521.497L1350.16 515.999L1369.83 451L1395.61 459.553L1400.86 504.026L1401.72 511.112L1426.27 541.779L1434.95 595.905L1449 608V795.423L1393.65 792.124H1392.43L1353.09 789.803L1319 787.848L1164.57 778.807L1165.67 777.096Z" fill="url(#paint50_linear_1314_557)"/>
<path d="M1170.8 769.155L1434.09 781.25L1436.54 764.023L1421.75 688.761L1402.94 624.983L1402.08 538.114L1387.42 519.298L1385.71 463.707L1369.83 451L1350.16 515.999L1316.92 538.114L1293.59 629.015L1266.59 675.688L1222.36 689.127L1170.8 769.155Z" fill="url(#paint51_linear_1314_557)"/>
<path d="M1369.83 451L1385.71 463.707L1395.61 459.553L1369.83 451Z" fill="url(#paint52_linear_1314_557)"/>
<path d="M1387.42 519.299L1402.08 538.114L1426.27 541.78L1401.72 511.113L1387.42 519.299Z" fill="url(#paint53_linear_1314_557)"/>
<path d="M1402.94 624.983L1439.59 626.205L1437.15 609.711L1402.94 624.983Z" fill="url(#paint54_linear_1314_557)"/>
<path d="M1350.16 516L1328.04 603.236L1341.97 521.376L1350.16 516Z" fill="url(#paint55_linear_1314_557)"/>
<path d="M1387.42 519.299L1381.44 566.949L1391.58 524.675L1387.42 519.299Z" fill="url(#paint56_linear_1314_557)"/>
<path d="M1420.9 685.706L1449 706.843V746.796L1433.24 746.918H1432.87L1420.53 685.462L1420.9 685.706Z" fill="url(#paint57_linear_1314_557)"/>
<path d="M1411.74 653.94L1435.68 671.534L1414.06 662.615L1405.87 669.946L1411.74 653.94Z" fill="url(#paint58_linear_1314_557)"/>
<path d="M1395.61 459.553L1385.71 463.707L1387.42 519.298L1387.3 464.806L1395.61 459.553Z" fill="#212184"/>
<path d="M1416.75 582.71L1402.33 571.592L1393.78 578.312L1402.21 564.872L1416.75 582.71Z" fill="url(#paint59_linear_1314_557)"/>
<g style="mix-blend-mode:overlay" opacity="0.5">
<path d="M1402.94 624.984L1402.33 571.592L1393.78 578.312L1400.86 573.791L1402.94 624.984Z" fill="white"/>
</g>
<g style="mix-blend-mode:overlay" opacity="0.5">
<path d="M1402.08 538.115L1391.58 524.675L1381.43 566.949L1391.82 529.806L1402.08 538.115Z" fill="white"/>
</g>
<g style="mix-blend-mode:color-dodge" opacity="0.4">
<path d="M1165.67 777.096L1170.06 770.254L1170.68 769.277L1170.8 769.155L1172.26 766.955L1173.36 765.123L1182.04 751.683L1222.36 689.127L1224.31 688.516L1257.06 678.62L1260.48 677.52L1266.59 675.688L1266.95 674.954L1281.37 650.152L1293.59 629.015L1297.86 612.521L1298.6 609.466L1300.19 603.357L1313.75 550.576L1316.92 538.114L1341.85 521.497L1350.16 515.999L1369.83 451L1395.61 459.553L1400.86 504.026L1401.72 511.112L1426.27 541.779L1434.95 595.905L1449 608V795.423L1393.65 792.124H1392.43L1353.09 789.803L1319 787.848L1164.57 778.807L1165.67 777.096Z" fill="url(#paint60_linear_1314_557)"/>
</g>
<path d="M1131.95 726.025L1165.91 735.433L1177.64 738.732L1188.15 722.482L1149.17 720.039L1131.95 726.025Z" fill="url(#paint61_linear_1314_557)"/>
<path d="M1131.94 726.025L1133.53 762.434L1169.58 763.412L1177.64 738.732L1131.94 726.025Z" fill="url(#paint62_linear_1314_557)"/>
<path d="M1177.64 738.732L1157.6 733.234L1159.19 754.005L1171.78 755.715L1177.64 738.732Z" fill="url(#paint63_linear_1314_557)"/>
<path d="M1160.9 765.367L1170.8 765.245L1309.47 763.779L1385.71 762.924L1422.61 759.747C1422.61 759.747 1401.11 657.239 1389.38 646.12C1379.48 636.835 1298.48 609.222 1298.48 609.222L1296.89 611.666L1259.13 670.556L1211.24 686.562L1165.3 758.281L1160.9 765.367Z" fill="url(#paint64_linear_1314_557)"/>
<path d="M1165.3 758.403L1170.8 765.245L1174.34 769.644L1309.47 763.657L1384.49 760.358L1374.1 695.359L1354.43 681.186L1348.94 648.075L1296.89 611.91L1259.13 670.801L1211.24 686.684L1165.3 758.403Z" fill="url(#paint65_linear_1314_557)"/>
<path d="M1211.24 686.684L1267.81 694.747L1290.53 757.914L1334.15 754.86L1288.7 686.439L1259.13 670.8L1211.24 686.684Z" fill="url(#paint66_linear_1314_557)"/>
<path d="M1374.1 695.358L1385.71 762.801L1430.92 756.081L1407.83 697.68L1374.1 695.358Z" fill="url(#paint67_linear_1314_557)"/>
<path d="M1111.42 748.995L1152.23 743.253L1180.57 751.805L1219.79 748.14L1282.47 757.914L1449 746.918V861.767V1038.07L1355.17 920H1068.66V786.26L1066.21 755.471L1111.42 748.995Z" fill="url(#paint68_linear_1314_557)"/>
<g style="mix-blend-mode:screen" opacity="0.2">
<path d="M1066.21 755.472L1066.82 759.748L1162.12 792.248C1119.97 768.545 1111.91 755.349 1111.42 748.996L1066.21 755.472Z" fill="url(#paint69_linear_1314_557)"/>
</g>
<path d="M1117.28 775.142L1109.22 771.965L1066.21 755.471L1068.66 786.26V920H1355.17L1449 1038.07V832.321L1388.15 826.701L1383.39 825.357L1325.72 808.374L1311.43 804.22L1275.14 793.591H1273.31L1162.12 792.369L1117.28 775.142Z" fill="url(#paint70_linear_1314_557)"/>
<path d="M1162.12 792.369L1163.83 820.959L1165.3 920H1235.8L1219.18 812.528L1263.3 920H1273.31V793.59L1162.12 792.369Z" fill="url(#paint71_linear_1314_557)"/>
<path d="M1109.22 771.843V771.965L1110.2 814.239L1116.92 775.142H1117.28L1188.27 768.544L1109.22 771.843Z" fill="url(#paint72_linear_1314_557)"/>
<path d="M1311.43 804.22L1321.44 883.514L1325.72 808.374L1311.43 804.22Z" fill="url(#paint73_linear_1314_557)"/>
<path d="M1383.39 825.357L1388.15 826.701L1449 832.322V1038.07L1422 998.119L1383.27 825.48L1383.39 825.357Z" fill="url(#paint74_linear_1314_557)"/>
<path d="M1273.31 793.591L1324.26 794.812L1434.34 775.752L1334.76 786.749L1235.55 793.224L1273.31 793.591Z" fill="url(#paint75_linear_1314_557)"/>
<path d="M1311.43 804.22L1341.24 803.731L1406.36 788.948L1343.93 804.953L1325.72 808.374L1311.43 804.22Z" fill="url(#paint76_linear_1314_557)"/>
<path d="M1348.94 648.075L1354.43 681.185L1405.02 688.76L1398.42 668.356L1348.94 648.075Z" fill="url(#paint77_linear_1314_557)"/>
<path d="M1259.13 670.8L1288.7 686.439L1267.81 694.747L1211.24 686.684L1259.13 670.8Z" fill="url(#paint78_linear_1314_557)"/>
<path d="M1348.94 648.075L1328.04 683.873L1332.93 741.542L1332.56 684.728L1351.38 662.614L1348.94 648.075Z" fill="url(#paint79_linear_1314_557)"/>
<path d="M1354.43 681.186L1353.46 723.215L1359.69 684.729L1354.43 681.186Z" fill="url(#paint80_linear_1314_557)"/>
<g style="mix-blend-mode:overlay" opacity="0.5">
<path d="M1351.38 662.615L1332.56 684.729L1332.93 741.543L1335.37 685.462L1351.38 662.615Z" fill="white"/>
</g>
<path d="M1315.7 624.983L1313.5 682.774L1308.37 618.019L1315.7 624.983Z" fill="url(#paint81_linear_1314_557)"/>
<g style="mix-blend-mode:overlay" opacity="0.5">
<path d="M1348.94 648.075L1315.7 624.983L1313.5 682.774L1316.8 627.671L1348.94 648.075Z" fill="white"/>
</g>
<path d="M1246.79 691.693L1266.34 685.462L1234.21 689.86L1237.51 741.909L1246.79 691.693Z" fill="url(#paint82_linear_1314_557)"/>
<g style="mix-blend-mode:overlay" opacity="0.5">
<path d="M1267.81 694.748L1246.79 691.693L1237.51 741.909L1248.5 693.526L1267.81 694.748Z" fill="white"/>
</g>
<path opacity="0.2" d="M1131.95 726.025L1165.79 735.433C1153.94 729.202 1149.17 720.039 1149.17 720.039L1131.95 726.025Z" fill="url(#paint83_linear_1314_557)"/>
<path fill-rule="evenodd" clip-rule="evenodd" d="M458 781.987V782.171C457.632 784.745 455.241 804.971 454.321 809.752C453.401 814.716 451.562 814.716 451.562 814.716C451.562 814.716 446.411 828.874 441.997 831.081C437.582 833.287 423.602 830.345 423.602 830.345C423.602 830.345 405.943 817.106 403 783.826C403 783.826 419.555 775.919 431.144 776.471C442.916 777.023 458 781.987 458 781.987Z" fill="url(#paint84_linear_1314_557)"/>
<path fill-rule="evenodd" clip-rule="evenodd" d="M458 782.355C457.632 784.929 455.241 805.155 454.321 809.936C453.401 814.9 451.562 814.9 451.562 814.9C451.562 814.9 446.411 829.058 441.997 831.265C437.582 833.471 423.602 830.529 423.602 830.529C423.602 830.529 405.943 817.107 403 783.826C403 783.826 407.599 806.626 415.508 816.003C423.418 825.381 431.88 821.887 431.88 821.887L439.789 804.236L443.652 790.445L446.411 784.194L449.906 795.961L448.067 807.729H453.217L458 782.355Z" fill="url(#paint85_linear_1314_557)"/>
<path fill-rule="evenodd" clip-rule="evenodd" d="M403 783.826L418.268 783.642L432.615 782.355L451.378 781.987L458 782.355C458 782.355 441.629 775.92 432.431 775C423.05 774.081 403 783.826 403 783.826Z" fill="#A0FFED"/>
<path fill-rule="evenodd" clip-rule="evenodd" d="M913 780.986L915.603 797.514C915.603 797.514 924.37 800.519 925.877 803.387C927.247 806.256 932.863 857.751 932.863 857.751L938.89 862.532C938.89 862.532 942.726 871.956 945.74 870.864C948.89 869.771 952.041 856.931 952.041 856.931C952.041 856.931 952.589 856.385 953.274 855.429C954.096 854.473 955.055 852.97 956.151 851.194C957.521 849.009 959.027 840.267 959.986 833.984C960.534 830.159 960.945 827.291 960.945 827.291L976.425 824.013L978.342 820.188L991.219 812.402C995.192 793.416 991.219 769.376 991.219 769.376C986.973 766.098 967.521 761.454 961.082 762C955.055 762.547 942.452 766.781 940.945 767.191H940.808L938.616 779.347C928.342 776.479 913 780.986 913 780.986Z" fill="url(#paint86_linear_1314_557)"/>
<path fill-rule="evenodd" clip-rule="evenodd" d="M913 780.986L915.603 797.514C915.603 797.514 924.37 800.519 925.877 803.387C927.247 806.256 932.863 857.751 932.863 857.751L938.89 862.531C938.89 862.531 942.726 871.956 945.74 870.863C948.89 869.771 952.041 856.931 952.041 856.931C952.041 856.931 952.589 856.385 953.274 855.429L950.123 853.926L944.507 858.98L941.767 852.15L940.26 813.768L948.616 816.227L958.479 827.564L960.123 833.984C960.671 830.159 961.082 827.291 961.082 827.291L976.562 824.012L978.479 820.188L991.356 812.402L982.726 813.905L981.493 805.026L978.479 818.276L974.507 818.412L965.329 815.954C965.329 815.954 962.452 810.08 961.63 806.939C960.808 803.797 958.753 783.581 958.753 783.581L958.068 765.278L953 764.049L940.945 767.464H940.808L938.616 779.62C928.342 776.479 913 780.986 913 780.986Z" fill="url(#paint87_linear_1314_557)"/>
<path fill-rule="evenodd" clip-rule="evenodd" d="M392.012 715.767C394.759 714.836 396.819 708.783 398.422 702.963L398.65 702.264C399.337 699.471 400.253 696.91 400.711 695.047C402.542 689.46 404.831 676.19 400.711 673.397C397.277 671.069 392.928 672 389.494 673.862C386.518 675.492 384.229 677.82 384 678.984C383.771 681.545 388.12 717.164 392.012 715.767Z" fill="url(#paint88_linear_1314_557)"/>
<path fill-rule="evenodd" clip-rule="evenodd" d="M392.012 715.767C394.759 714.836 396.819 708.783 398.422 702.963L398.65 702.264H394.759L391.325 697.376L389.494 673.862C386.518 675.492 384.229 677.82 384 678.984C383.771 681.545 388.12 717.164 392.012 715.767Z" fill="url(#paint89_linear_1314_557)"/>
<path fill-rule="evenodd" clip-rule="evenodd" d="M805.012 914.767C807.759 913.836 809.819 907.783 811.422 901.963L811.65 901.264C812.337 898.471 813.253 895.91 813.711 894.047C815.542 888.46 817.831 875.19 813.711 872.397C810.277 870.069 805.928 871 802.494 872.862C799.518 874.492 797.229 876.82 797 877.984C796.771 880.545 801.12 916.164 805.012 914.767Z" fill="url(#paint90_linear_1314_557)"/>
<path fill-rule="evenodd" clip-rule="evenodd" d="M805.012 914.767C807.759 913.836 809.819 907.783 811.422 901.963L811.65 901.264H807.759L804.325 896.376L802.494 872.862C799.518 874.492 797.229 876.82 797 877.984C796.771 880.545 801.12 916.164 805.012 914.767Z" fill="url(#paint91_linear_1314_557)"/>
<path fill-rule="evenodd" clip-rule="evenodd" d="M593.639 853.857C595.229 853.286 596.422 849.571 597.35 846L597.482 845.571C597.88 843.857 598.41 842.286 598.675 841.143C599.735 837.714 601.06 829.571 598.675 827.857C596.687 826.429 594.169 827 592.181 828.143C590.458 829.143 589.133 830.571 589 831.286C588.868 832.857 591.386 854.714 593.639 853.857Z" fill="url(#paint92_linear_1314_557)"/>
<path fill-rule="evenodd" clip-rule="evenodd" d="M593.639 853.857C595.229 853.286 596.422 849.572 597.35 846L597.482 845.572H595.229L593.241 842.572L592.181 828.143C590.458 829.143 589.133 830.572 589 831.286C588.868 832.857 591.386 854.714 593.639 853.857Z" fill="url(#paint93_linear_1314_557)"/>
<path fill-rule="evenodd" clip-rule="evenodd" d="M487 743.1C487 743.1 484.3 751.3 482.4 753.5C480.4 755.7 465.9 756.8 465.9 756.8C465.9 756.8 455.2 751 453.9 747.6C453.8 747.2 453.6 746.7 453.5 746C452.6 739.8 452.6 721.5 454.8 718.9C454.8 718.9 458.8 713.8 461.4 712.3C464 710.8 477.1 715.6 479.3 717.1C479.7 717.4 480 717.7 480.2 718.1C480.2 718.1 480.2 718.2 480.3 718.3C481.4 720.3 481.5 723.4 481.5 723.7C481.5 723.7 484.7 725.6 485.3 727.2V727.3C486 729.2 487 743.1 487 743.1Z" fill="url(#paint94_linear_1314_557)"/>
<path fill-rule="evenodd" clip-rule="evenodd" d="M487 743.1C487 743.1 484.3 751.3 482.4 753.5C480.4 755.7 465.9 756.8 465.9 756.8C465.9 756.8 455.2 751 453.9 747.6C453.8 747.2 453.6 746.7 453.5 746C453.8 746.3 458.1 750.3 461.1 751.2C464.2 752.1 466.8 751.2 466.8 751.2L467.5 746L468.1 738.2L468.7 729.7L470 725.1V733.3C470 733.3 473.4 730.6 473.6 728.5C473.8 726.4 475.3 723 475.3 723L480.2 718C480.2 718 480.2 718.1 480.3 718.2C480.7 718.8 481.8 720.7 481.5 723.6L478.8 730L478.5 736.6L480.2 744.1C480.2 744.1 482.4 741.2 483.3 739.8C484.2 738.4 484.2 734.4 484.2 734.4L485.4 727.1V727.2C486 729.2 487 743.1 487 743.1Z" fill="url(#paint95_linear_1314_557)"/>
<path fill-rule="evenodd" clip-rule="evenodd" d="M454.399 719.8L467.799 722.9H473.799L476.099 722.3L480.299 718.1C480.299 718.1 479.999 715.9 477.499 714.9C474.999 713.9 462.299 711 462.299 711L460.799 712C460.799 712 455.599 717.4 454.399 719.8Z" fill="#A0FFED"/>
<path fill-rule="evenodd" clip-rule="evenodd" d="M481.5 723.7L478.8 730L482.2 730.8L485 729.8L485.5 727.2C485.3 727.2 483.5 724.5 481.5 723.7Z" fill="url(#paint96_linear_1314_557)"/>
</g>
<path opacity="0.2" fill-rule="evenodd" clip-rule="evenodd" d="M1312.84 331.672C1312.84 331.672 1273.8 357.168 1262.89 366.517C1251.99 375.866 1216.02 379.945 1209.03 382.665C1202.04 385.214 1185.17 408.671 1185.17 408.671C1185.17 408.671 1175.45 426.008 1173.07 438.246C1170.68 450.654 1139.49 464.592 1139.49 464.592L1110 477C1110 477 1155.85 425.668 1160.97 413.26C1166.08 400.852 1159.77 389.463 1173.07 382.665C1186.36 375.866 1218.58 364.987 1221.99 352.579C1225.4 340.171 1277.89 296.488 1294.6 288.839C1311.3 281.02 1360.56 262.323 1360.56 262.323C1360.56 262.323 1328.52 314.675 1312.84 331.672Z" fill="url(#paint97_linear_1314_557)"/>
<path opacity="0.2" fill-rule="evenodd" clip-rule="evenodd" d="M1477.66 63.9643C1477.66 63.9643 1425.67 110.367 1394.82 128.384C1363.97 146.402 1347.1 138.753 1347.1 138.753C1347.1 138.753 1319.82 146.741 1303.12 159.49C1286.42 172.238 1288.97 195.524 1278.75 208.272C1268.35 221.19 1225.74 212.181 1225.74 212.181L1161.82 282.55L1119.55 326.914C1119.55 326.914 1165.06 267.593 1172.73 254.845C1180.4 241.927 1233.41 167.308 1243.63 154.39C1254.03 141.472 1268.18 144.022 1278.58 126.005C1289.14 107.648 1300.73 87.0807 1317.44 71.6131C1334.31 56.1455 1369.08 33.0291 1387.83 22.6607C1406.58 12.2923 1436.41 2.09393 1436.41 2.09393L1488.06 -9.46427L1538.34 -37H1769.64C1769.64 -37 1656.29 40.6779 1604.65 60.0549C1585.21 67.3638 1477.66 63.9643 1477.66 63.9643Z" fill="url(#paint98_linear_1314_557)"/>
</g>
<defs>
<filter id="filter0_f_1314_557" x="-255.5" y="27" width="1964" height="1100" filterUnits="userSpaceOnUse" color-interpolation-filters="sRGB">
<feFlood flood-opacity="0" result="BackgroundImageFix"/>
<feBlend mode="normal" in="SourceGraphic" in2="BackgroundImageFix" result="shape"/>
<feGaussianBlur stdDeviation="112" result="effect1_foregroundBlur_1314_557"/>
</filter>
<linearGradient id="paint0_linear_1314_557" x1="726.5" y1="902.966" x2="726.5" y2="541" gradientUnits="userSpaceOnUse">
<stop stop-color="#080534"/>
<stop offset="1" stop-color="#5F357F"/>
</linearGradient>
<linearGradient id="paint1_linear_1314_557" x1="168.03" y1="783.784" x2="163.902" y2="556.739" gradientUnits="userSpaceOnUse">
<stop offset="0.00041336" stop-color="#0B0E5C"/>
<stop offset="1" stop-color="#433164"/>
</linearGradient>
<linearGradient id="paint2_linear_1314_557" x1="121.48" y1="739.352" x2="187.988" y2="619.178" gradientUnits="userSpaceOnUse">
<stop stop-color="#080534"/>
<stop offset="1" stop-color="#272060"/>
</linearGradient>
<linearGradient id="paint3_linear_1314_557" x1="75.7135" y1="645.896" x2="142.076" y2="645.896" gradientUnits="userSpaceOnUse">
<stop stop-color="#080534"/>
<stop offset="1" stop-color="#272060"/>
</linearGradient>
<linearGradient id="paint4_linear_1314_557" x1="38.6824" y1="550.763" x2="205.641" y2="653.965" gradientUnits="userSpaceOnUse">
<stop offset="0.00041336" stop-color="#0B0E5C"/>
<stop offset="1" stop-color="#433164"/>
</linearGradient>
<linearGradient id="paint5_linear_1314_557" x1="130.632" y1="549.077" x2="146.686" y2="715.576" gradientUnits="userSpaceOnUse">
<stop stop-color="#080534"/>
<stop offset="1" stop-color="#272060"/>
</linearGradient>
<linearGradient id="paint6_linear_1314_557" x1="168.021" y1="616.745" x2="221.687" y2="772.694" gradientUnits="userSpaceOnUse">
<stop stop-color="#080534"/>
<stop offset="1" stop-color="#272060"/>
</linearGradient>
<linearGradient id="paint7_linear_1314_557" x1="130.561" y1="579.143" x2="155.17" y2="564.021" gradientUnits="userSpaceOnUse">
<stop/>
<stop offset="0.0379315" stop-color="#101010"/>
<stop offset="0.1936" stop-color="#4F4F4F"/>
<stop offset="0.3477" stop-color="#848484"/>
<stop offset="0.4966" stop-color="#B0B0B0"/>
<stop offset="0.6393" stop-color="#D3D3D3"/>
<stop offset="0.774" stop-color="#EBEBEB"/>
<stop offset="0.8977" stop-color="#FAFAFA"/>
<stop offset="1" stop-color="white"/>
</linearGradient>
<linearGradient id="paint8_linear_1314_557" x1="64.8" y1="601.382" x2="140.482" y2="539.46" gradientUnits="userSpaceOnUse">
<stop offset="0.00041336" stop-color="#0B0E5C"/>
<stop offset="1" stop-color="#433164"/>
</linearGradient>
<linearGradient id="paint9_linear_1314_557" x1="168.029" y1="783.784" x2="163.901" y2="556.739" gradientUnits="userSpaceOnUse">
<stop offset="0.00041336"/>
<stop offset="1" stop-color="#DD9179"/>
</linearGradient>
<linearGradient id="paint10_linear_1314_557" x1="-50.2051" y1="623.186" x2="234.245" y2="623.186" gradientUnits="userSpaceOnUse">
<stop stop-color="#080534"/>
<stop offset="1" stop-color="#272060"/>
</linearGradient>
<linearGradient id="paint11_linear_1314_557" x1="95.2188" y1="769.14" x2="82.8345" y2="456.438" gradientUnits="userSpaceOnUse">
<stop offset="0.00041336" stop-color="#0B0E5C"/>
<stop offset="1" stop-color="#433164"/>
</linearGradient>
<linearGradient id="paint12_linear_1314_557" x1="-58.5065" y1="504.002" x2="39.8796" y2="441.392" gradientUnits="userSpaceOnUse">
<stop offset="0.00041336" stop-color="#0B0E5C"/>
<stop offset="1" stop-color="#433164"/>
</linearGradient>
<linearGradient id="paint13_linear_1314_557" x1="-86.1231" y1="587.912" x2="23.9593" y2="503.974" gradientUnits="userSpaceOnUse">
<stop stop-color="#080534"/>
<stop offset="1" stop-color="#272060"/>
</linearGradient>
<linearGradient id="paint14_linear_1314_557" x1="35.3071" y1="493.244" x2="142.179" y2="751.937" gradientUnits="userSpaceOnUse">
<stop offset="0.00082672" stop-color="#080534"/>
<stop offset="1" stop-color="#272060"/>
</linearGradient>
<linearGradient id="paint15_linear_1314_557" x1="-0.192761" y1="507.909" x2="106.679" y2="766.603" gradientUnits="userSpaceOnUse">
<stop offset="0.00082672" stop-color="#080534"/>
<stop offset="1" stop-color="#272060"/>
</linearGradient>
<linearGradient id="paint16_linear_1314_557" x1="-31.1767" y1="520.71" x2="75.6949" y2="779.403" gradientUnits="userSpaceOnUse">
<stop offset="0.00082672" stop-color="#080534"/>
<stop offset="1" stop-color="#272060"/>
</linearGradient>
<linearGradient id="paint17_linear_1314_557" x1="91.6177" y1="783.056" x2="58.593" y2="449.713" gradientUnits="userSpaceOnUse">
<stop offset="0.00041336"/>
<stop offset="1" stop-color="#DD9179"/>
</linearGradient>
<linearGradient id="paint18_linear_1314_557" x1="93.0274" y1="729.395" x2="264.355" y2="729.395" gradientUnits="userSpaceOnUse">
<stop offset="0.00041336" stop-color="#0B0E5C"/>
<stop offset="1" stop-color="#433164"/>
</linearGradient>
<linearGradient id="paint19_linear_1314_557" x1="144.17" y1="744.744" x2="275.811" y2="744.744" gradientUnits="userSpaceOnUse">
<stop stop-color="#080534"/>
<stop offset="1" stop-color="#272060"/>
</linearGradient>
<linearGradient id="paint20_linear_1314_557" x1="214.807" y1="766.673" x2="268.931" y2="696.037" gradientUnits="userSpaceOnUse">
<stop offset="0.00082672" stop-color="#080534"/>
<stop offset="1" stop-color="#272060"/>
</linearGradient>
<linearGradient id="paint21_linear_1314_557" x1="-18.898" y1="906.498" x2="246.676" y2="532.218" gradientUnits="userSpaceOnUse">
<stop stop-color="#080534"/>
<stop offset="1" stop-color="#272060"/>
</linearGradient>
<linearGradient id="paint22_linear_1314_557" x1="124.048" y1="770.747" x2="121.984" y2="612.847" gradientUnits="userSpaceOnUse">
<stop offset="0.00041336" stop-color="#0B0E5C"/>
<stop offset="1" stop-color="#433164"/>
</linearGradient>
<linearGradient id="paint23_linear_1314_557" x1="89.4549" y1="786.878" x2="175.686" y2="631.386" gradientUnits="userSpaceOnUse">
<stop stop-color="#080534"/>
<stop offset="1" stop-color="#272060"/>
</linearGradient>
<linearGradient id="paint24_linear_1314_557" x1="-36.7031" y1="764.098" x2="195.158" y2="561.134" gradientUnits="userSpaceOnUse">
<stop offset="0.00082672" stop-color="#080534"/>
<stop offset="1" stop-color="#272060"/>
</linearGradient>
<linearGradient id="paint25_linear_1314_557" x1="-50.1993" y1="890.623" x2="332.564" y2="890.623" gradientUnits="userSpaceOnUse">
<stop offset="0.00041336" stop-color="#0B0E5C"/>
<stop offset="1" stop-color="#433164"/>
</linearGradient>
<linearGradient id="paint26_linear_1314_557" x1="264.97" y1="769.887" x2="357.464" y2="744.747" gradientUnits="userSpaceOnUse">
<stop/>
<stop offset="0.0379315" stop-color="#101010"/>
<stop offset="0.1936" stop-color="#4F4F4F"/>
<stop offset="0.3477" stop-color="#848484"/>
<stop offset="0.4966" stop-color="#B0B0B0"/>
<stop offset="0.6393" stop-color="#D3D3D3"/>
<stop offset="0.774" stop-color="#EBEBEB"/>
<stop offset="0.8977" stop-color="#FAFAFA"/>
<stop offset="1" stop-color="white"/>
</linearGradient>
<linearGradient id="paint27_linear_1314_557" x1="-50.2051" y1="896.761" x2="332.561" y2="896.761" gradientUnits="userSpaceOnUse">
<stop stop-color="#080534"/>
<stop offset="1" stop-color="#272060"/>
</linearGradient>
<linearGradient id="paint28_linear_1314_557" x1="119.932" y1="826.759" x2="341.579" y2="826.759" gradientUnits="userSpaceOnUse">
<stop offset="0.00082672" stop-color="#080534"/>
<stop offset="1" stop-color="#272060"/>
</linearGradient>
<linearGradient id="paint29_linear_1314_557" x1="209.603" y1="791.427" x2="437.119" y2="791.427" gradientUnits="userSpaceOnUse">
<stop offset="0.00082672" stop-color="#080534"/>
<stop offset="1" stop-color="#272060"/>
</linearGradient>
<linearGradient id="paint30_linear_1314_557" x1="68.3315" y1="843.879" x2="357.659" y2="843.879" gradientUnits="userSpaceOnUse">
<stop offset="0.00082672" stop-color="#080534"/>
<stop offset="1" stop-color="#272060"/>
</linearGradient>
<linearGradient id="paint31_linear_1314_557" x1="-50.2051" y1="931.671" x2="15.4956" y2="931.671" gradientUnits="userSpaceOnUse">
<stop offset="0.00082672" stop-color="#02001A"/>
<stop offset="1" stop-color="#080534"/>
</linearGradient>
<linearGradient id="paint32_linear_1314_557" x1="-35.5057" y1="785.266" x2="697.266" y2="785.266" gradientUnits="userSpaceOnUse">
<stop offset="0.00082672" stop-color="#080534"/>
<stop offset="1" stop-color="#272060"/>
</linearGradient>
<linearGradient id="paint33_linear_1314_557" x1="-7.35052" y1="798.675" x2="584.375" y2="798.675" gradientUnits="userSpaceOnUse">
<stop offset="0.00082672" stop-color="#080534"/>
<stop offset="1" stop-color="#272060"/>
</linearGradient>
<linearGradient id="paint34_linear_1314_557" x1="-12.9149" y1="694.7" x2="238.898" y2="552.281" gradientUnits="userSpaceOnUse">
<stop offset="0.00082672" stop-color="#080534"/>
<stop offset="1" stop-color="#272060"/>
</linearGradient>
<linearGradient id="paint35_linear_1314_557" x1="-21.8713" y1="682.734" x2="193.578" y2="682.734" gradientUnits="userSpaceOnUse">
<stop offset="0.00041336" stop-color="#0B0E5C"/>
<stop offset="1" stop-color="#433164"/>
</linearGradient>
<linearGradient id="paint36_linear_1314_557" x1="50.2138" y1="619.984" x2="105.943" y2="952.983" gradientUnits="userSpaceOnUse">
<stop stop-color="#080534"/>
<stop offset="1" stop-color="#272060"/>
</linearGradient>
<linearGradient id="paint37_linear_1314_557" x1="31.5936" y1="623.1" x2="87.3229" y2="956.099" gradientUnits="userSpaceOnUse">
<stop stop-color="#080534"/>
<stop offset="1" stop-color="#272060"/>
</linearGradient>
<linearGradient id="paint38_linear_1314_557" x1="81.9114" y1="614.679" x2="137.641" y2="947.678" gradientUnits="userSpaceOnUse">
<stop stop-color="#080534"/>
<stop offset="1" stop-color="#272060"/>
</linearGradient>
<linearGradient id="paint39_linear_1314_557" x1="145.264" y1="676.827" x2="193.425" y2="836.905" gradientUnits="userSpaceOnUse">
<stop stop-color="#080534"/>
<stop offset="1" stop-color="#272060"/>
</linearGradient>
<linearGradient id="paint40_linear_1314_557" x1="232.943" y1="727.756" x2="266.813" y2="727.756" gradientUnits="userSpaceOnUse">
<stop/>
<stop offset="0.0379315" stop-color="#101010"/>
<stop offset="0.1936" stop-color="#4F4F4F"/>
<stop offset="0.3477" stop-color="#848484"/>
<stop offset="0.4966" stop-color="#B0B0B0"/>
<stop offset="0.6393" stop-color="#D3D3D3"/>
<stop offset="0.774" stop-color="#EBEBEB"/>
<stop offset="0.8977" stop-color="#FAFAFA"/>
<stop offset="1" stop-color="white"/>
</linearGradient>
<linearGradient id="paint41_linear_1314_557" x1="1230.76" y1="783.784" x2="1234.89" y2="556.739" gradientUnits="userSpaceOnUse">
<stop offset="0.00041336" stop-color="#0B0E5C"/>
<stop offset="1" stop-color="#433164"/>
</linearGradient>
<linearGradient id="paint42_linear_1314_557" x1="1277.31" y1="739.352" x2="1210.81" y2="619.178" gradientUnits="userSpaceOnUse">
<stop stop-color="#080534"/>
<stop offset="1" stop-color="#272060"/>
</linearGradient>
<linearGradient id="paint43_linear_1314_557" x1="1323.08" y1="645.896" x2="1256.72" y2="645.896" gradientUnits="userSpaceOnUse">
<stop stop-color="#080534"/>
<stop offset="1" stop-color="#272060"/>
</linearGradient>
<linearGradient id="paint44_linear_1314_557" x1="1360.11" y1="550.763" x2="1193.15" y2="653.965" gradientUnits="userSpaceOnUse">
<stop offset="0.00041336" stop-color="#0B0E5C"/>
<stop offset="1" stop-color="#433164"/>
</linearGradient>
<linearGradient id="paint45_linear_1314_557" x1="1268.16" y1="549.077" x2="1252.11" y2="715.576" gradientUnits="userSpaceOnUse">
<stop stop-color="#080534"/>
<stop offset="1" stop-color="#272060"/>
</linearGradient>
<linearGradient id="paint46_linear_1314_557" x1="1230.77" y1="616.745" x2="1177.11" y2="772.694" gradientUnits="userSpaceOnUse">
<stop stop-color="#080534"/>
<stop offset="1" stop-color="#272060"/>
</linearGradient>
<linearGradient id="paint47_linear_1314_557" x1="1268.23" y1="579.143" x2="1243.62" y2="564.021" gradientUnits="userSpaceOnUse">
<stop/>
<stop offset="0.0379315" stop-color="#101010"/>
<stop offset="0.1936" stop-color="#4F4F4F"/>
<stop offset="0.3477" stop-color="#848484"/>
<stop offset="0.4966" stop-color="#B0B0B0"/>
<stop offset="0.6393" stop-color="#D3D3D3"/>
<stop offset="0.774" stop-color="#EBEBEB"/>
<stop offset="0.8977" stop-color="#FAFAFA"/>
<stop offset="1" stop-color="white"/>
</linearGradient>
<linearGradient id="paint48_linear_1314_557" x1="1333.99" y1="601.382" x2="1258.31" y2="539.46" gradientUnits="userSpaceOnUse">
<stop offset="0.00041336" stop-color="#0B0E5C"/>
<stop offset="1" stop-color="#433164"/>
</linearGradient>
<linearGradient id="paint49_linear_1314_557" x1="1230.77" y1="783.784" x2="1234.89" y2="556.739" gradientUnits="userSpaceOnUse">
<stop offset="0.00041336"/>
<stop offset="1" stop-color="#DD9179"/>
</linearGradient>
<linearGradient id="paint50_linear_1314_557" x1="1449" y1="623.186" x2="1164.55" y2="623.186" gradientUnits="userSpaceOnUse">
<stop stop-color="#080534"/>
<stop offset="1" stop-color="#272060"/>
</linearGradient>
<linearGradient id="paint51_linear_1314_557" x1="1303.58" y1="769.14" x2="1315.96" y2="456.438" gradientUnits="userSpaceOnUse">
<stop offset="0.00041336" stop-color="#0B0E5C"/>
<stop offset="1" stop-color="#433164"/>
</linearGradient>
<linearGradient id="paint52_linear_1314_557" x1="1457.3" y1="504.002" x2="1358.92" y2="441.392" gradientUnits="userSpaceOnUse">
<stop offset="0.00041336" stop-color="#0B0E5C"/>
<stop offset="1" stop-color="#433164"/>
</linearGradient>
<linearGradient id="paint53_linear_1314_557" x1="1484.92" y1="587.912" x2="1374.84" y2="503.974" gradientUnits="userSpaceOnUse">
<stop stop-color="#080534"/>
<stop offset="1" stop-color="#272060"/>
</linearGradient>
<linearGradient id="paint54_linear_1314_557" x1="1490.74" y1="669.169" x2="1399.47" y2="602.202" gradientUnits="userSpaceOnUse">
<stop stop-color="#080534"/>
<stop offset="1" stop-color="#272060"/>
</linearGradient>
<linearGradient id="paint55_linear_1314_557" x1="1363.49" y1="493.244" x2="1256.62" y2="751.937" gradientUnits="userSpaceOnUse">
<stop offset="0.00082672" stop-color="#080534"/>
<stop offset="1" stop-color="#272060"/>
</linearGradient>
<linearGradient id="paint56_linear_1314_557" x1="1398.99" y1="507.909" x2="1292.12" y2="766.603" gradientUnits="userSpaceOnUse">
<stop offset="0.00082672" stop-color="#080534"/>
<stop offset="1" stop-color="#272060"/>
</linearGradient>
<linearGradient id="paint57_linear_1314_557" x1="1478.75" y1="767.489" x2="1374.63" y2="655.572" gradientUnits="userSpaceOnUse">
<stop stop-color="#080534"/>
<stop offset="1" stop-color="#272060"/>
</linearGradient>
<linearGradient id="paint58_linear_1314_557" x1="1427.45" y1="649.732" x2="1391.22" y2="763.942" gradientUnits="userSpaceOnUse">
<stop offset="0.00082672" stop-color="#080534"/>
<stop offset="1" stop-color="#272060"/>
</linearGradient>
<linearGradient id="paint59_linear_1314_557" x1="1429.97" y1="520.71" x2="1323.1" y2="779.403" gradientUnits="userSpaceOnUse">
<stop offset="0.00082672" stop-color="#080534"/>
<stop offset="1" stop-color="#272060"/>
</linearGradient>
<linearGradient id="paint60_linear_1314_557" x1="1307.18" y1="783.056" x2="1340.2" y2="449.713" gradientUnits="userSpaceOnUse">
<stop offset="0.00041336"/>
<stop offset="1" stop-color="#DD9179"/>
</linearGradient>
<linearGradient id="paint61_linear_1314_557" x1="1305.77" y1="729.395" x2="1134.44" y2="729.395" gradientUnits="userSpaceOnUse">
<stop offset="0.00041336" stop-color="#0B0E5C"/>
<stop offset="1" stop-color="#433164"/>
</linearGradient>
<linearGradient id="paint62_linear_1314_557" x1="1254.62" y1="744.744" x2="1122.98" y2="744.744" gradientUnits="userSpaceOnUse">
<stop stop-color="#080534"/>
<stop offset="1" stop-color="#272060"/>
</linearGradient>
<linearGradient id="paint63_linear_1314_557" x1="1183.99" y1="766.673" x2="1129.86" y2="696.037" gradientUnits="userSpaceOnUse">
<stop offset="0.00082672" stop-color="#080534"/>
<stop offset="1" stop-color="#272060"/>
</linearGradient>
<linearGradient id="paint64_linear_1314_557" x1="1417.69" y1="906.498" x2="1152.12" y2="532.218" gradientUnits="userSpaceOnUse">
<stop stop-color="#080534"/>
<stop offset="1" stop-color="#272060"/>
</linearGradient>
<linearGradient id="paint65_linear_1314_557" x1="1274.75" y1="770.747" x2="1276.81" y2="612.847" gradientUnits="userSpaceOnUse">
<stop offset="0.00041336" stop-color="#0B0E5C"/>
<stop offset="1" stop-color="#433164"/>
</linearGradient>
<linearGradient id="paint66_linear_1314_557" x1="1309.34" y1="786.878" x2="1223.11" y2="631.386" gradientUnits="userSpaceOnUse">
<stop stop-color="#080534"/>
<stop offset="1" stop-color="#272060"/>
</linearGradient>
<linearGradient id="paint67_linear_1314_557" x1="1435.5" y1="764.098" x2="1203.64" y2="561.134" gradientUnits="userSpaceOnUse">
<stop offset="0.00082672" stop-color="#080534"/>
<stop offset="1" stop-color="#272060"/>
</linearGradient>
<linearGradient id="paint68_linear_1314_557" x1="1448.99" y1="890.623" x2="1066.23" y2="890.623" gradientUnits="userSpaceOnUse">
<stop offset="0.00041336" stop-color="#0B0E5C"/>
<stop offset="1" stop-color="#433164"/>
</linearGradient>
<linearGradient id="paint69_linear_1314_557" x1="1133.83" y1="769.887" x2="1041.33" y2="744.747" gradientUnits="userSpaceOnUse">
<stop/>
<stop offset="0.0379315" stop-color="#101010"/>
<stop offset="0.1936" stop-color="#4F4F4F"/>
<stop offset="0.3477" stop-color="#848484"/>
<stop offset="0.4966" stop-color="#B0B0B0"/>
<stop offset="0.6393" stop-color="#D3D3D3"/>
<stop offset="0.774" stop-color="#EBEBEB"/>
<stop offset="0.8977" stop-color="#FAFAFA"/>
<stop offset="1" stop-color="white"/>
</linearGradient>
<linearGradient id="paint70_linear_1314_557" x1="1449" y1="896.761" x2="1066.23" y2="896.761" gradientUnits="userSpaceOnUse">
<stop stop-color="#080534"/>
<stop offset="1" stop-color="#272060"/>
</linearGradient>
<linearGradient id="paint71_linear_1314_557" x1="1278.86" y1="826.759" x2="1057.22" y2="826.759" gradientUnits="userSpaceOnUse">
<stop offset="0.00082672" stop-color="#080534"/>
<stop offset="1" stop-color="#272060"/>
</linearGradient>
<linearGradient id="paint72_linear_1314_557" x1="1189.19" y1="791.427" x2="961.676" y2="791.427" gradientUnits="userSpaceOnUse">
<stop offset="0.00082672" stop-color="#080534"/>
<stop offset="1" stop-color="#272060"/>
</linearGradient>
<linearGradient id="paint73_linear_1314_557" x1="1330.46" y1="843.879" x2="1041.14" y2="843.879" gradientUnits="userSpaceOnUse">
<stop offset="0.00082672" stop-color="#080534"/>
<stop offset="1" stop-color="#272060"/>
</linearGradient>
<linearGradient id="paint74_linear_1314_557" x1="1449" y1="931.671" x2="1383.3" y2="931.671" gradientUnits="userSpaceOnUse">
<stop offset="0.00082672" stop-color="#02001A"/>
<stop offset="1" stop-color="#080534"/>
</linearGradient>
<linearGradient id="paint75_linear_1314_557" x1="1434.3" y1="785.266" x2="701.529" y2="785.266" gradientUnits="userSpaceOnUse">
<stop offset="0.00082672" stop-color="#080534"/>
<stop offset="1" stop-color="#272060"/>
</linearGradient>
<linearGradient id="paint76_linear_1314_557" x1="1406.15" y1="798.675" x2="814.42" y2="798.675" gradientUnits="userSpaceOnUse">
<stop offset="0.00082672" stop-color="#080534"/>
<stop offset="1" stop-color="#272060"/>
</linearGradient>
<linearGradient id="paint77_linear_1314_557" x1="1411.71" y1="694.7" x2="1159.9" y2="552.281" gradientUnits="userSpaceOnUse">
<stop offset="0.00082672" stop-color="#080534"/>
<stop offset="1" stop-color="#272060"/>
</linearGradient>
<linearGradient id="paint78_linear_1314_557" x1="1420.67" y1="682.734" x2="1205.22" y2="682.734" gradientUnits="userSpaceOnUse">
<stop offset="0.00041336" stop-color="#0B0E5C"/>
<stop offset="1" stop-color="#433164"/>
</linearGradient>
<linearGradient id="paint79_linear_1314_557" x1="1348.58" y1="619.984" x2="1292.85" y2="952.983" gradientUnits="userSpaceOnUse">
<stop stop-color="#080534"/>
<stop offset="1" stop-color="#272060"/>
</linearGradient>
<linearGradient id="paint80_linear_1314_557" x1="1367.2" y1="623.1" x2="1311.47" y2="956.099" gradientUnits="userSpaceOnUse">
<stop stop-color="#080534"/>
<stop offset="1" stop-color="#272060"/>
</linearGradient>
<linearGradient id="paint81_linear_1314_557" x1="1316.88" y1="614.679" x2="1261.15" y2="947.678" gradientUnits="userSpaceOnUse">
<stop stop-color="#080534"/>
<stop offset="1" stop-color="#272060"/>
</linearGradient>
<linearGradient id="paint82_linear_1314_557" x1="1253.53" y1="676.827" x2="1205.37" y2="836.905" gradientUnits="userSpaceOnUse">
<stop stop-color="#080534"/>
<stop offset="1" stop-color="#272060"/>
</linearGradient>
<linearGradient id="paint83_linear_1314_557" x1="1165.85" y1="727.756" x2="1131.98" y2="727.756" gradientUnits="userSpaceOnUse">
<stop/>
<stop offset="0.0379315" stop-color="#101010"/>
<stop offset="0.1936" stop-color="#4F4F4F"/>
<stop offset="0.3477" stop-color="#848484"/>
<stop offset="0.4966" stop-color="#B0B0B0"/>
<stop offset="0.6393" stop-color="#D3D3D3"/>
<stop offset="0.774" stop-color="#EBEBEB"/>
<stop offset="0.8977" stop-color="#FAFAFA"/>
<stop offset="1" stop-color="white"/>
</linearGradient>
<linearGradient id="paint84_linear_1314_557" x1="430.518" y1="832.04" x2="430.518" y2="776.472" gradientUnits="userSpaceOnUse">
<stop stop-color="#4C51DD"/>
<stop offset="0.9944" stop-color="#57CFFF"/>
</linearGradient>
<linearGradient id="paint85_linear_1314_557" x1="430.5" y1="832.04" x2="430.5" y2="782.294" gradientUnits="userSpaceOnUse">
<stop stop-color="#3E47BE"/>
<stop offset="1" stop-color="#239ABA"/>
</linearGradient>
<linearGradient id="paint86_linear_1314_557" x1="993.947" y1="814.92" x2="914.451" y2="818.032" gradientUnits="userSpaceOnUse">
<stop stop-color="#4CCCED"/>
<stop offset="1" stop-color="#39D0DD"/>
</linearGradient>
<linearGradient id="paint87_linear_1314_557" x1="955.093" y1="870.597" x2="950.946" y2="764.029" gradientUnits="userSpaceOnUse">
<stop stop-color="#1F4D95"/>
<stop offset="0.9777" stop-color="#291689"/>
</linearGradient>
<linearGradient id="paint88_linear_1314_557" x1="393.555" y1="715.885" x2="393.555" y2="672" gradientUnits="userSpaceOnUse">
<stop stop-color="#4CCCED"/>
<stop offset="1" stop-color="#39D0DD"/>
</linearGradient>
<linearGradient id="paint89_linear_1314_557" x1="391.344" y1="715.885" x2="391.344" y2="673.76" gradientUnits="userSpaceOnUse">
<stop stop-color="#0E2463"/>
<stop offset="1" stop-color="#004D93"/>
</linearGradient>
<linearGradient id="paint90_linear_1314_557" x1="806.555" y1="914.885" x2="806.555" y2="871" gradientUnits="userSpaceOnUse">
<stop stop-color="#4CCCED"/>
<stop offset="1" stop-color="#39D0DD"/>
</linearGradient>
<linearGradient id="paint91_linear_1314_557" x1="804.344" y1="914.885" x2="804.344" y2="872.76" gradientUnits="userSpaceOnUse">
<stop stop-color="#0E2463"/>
<stop offset="1" stop-color="#004D93"/>
</linearGradient>
<linearGradient id="paint92_linear_1314_557" x1="594.532" y1="853.929" x2="594.532" y2="827" gradientUnits="userSpaceOnUse">
<stop stop-color="#4CCCED"/>
<stop offset="1" stop-color="#39D0DD"/>
</linearGradient>
<linearGradient id="paint93_linear_1314_557" x1="593.252" y1="853.93" x2="593.252" y2="828.08" gradientUnits="userSpaceOnUse">
<stop stop-color="#0E2463"/>
<stop offset="1" stop-color="#004D93"/>
</linearGradient>
<linearGradient id="paint94_linear_1314_557" x1="470.001" y1="756.867" x2="470.001" y2="711.996" gradientUnits="userSpaceOnUse">
<stop stop-color="#4C51DD"/>
<stop offset="0.9944" stop-color="#86F9FF"/>
</linearGradient>
<linearGradient id="paint95_linear_1314_557" x1="470.291" y1="756.867" x2="470.291" y2="718.091" gradientUnits="userSpaceOnUse">
<stop stop-color="#3E47BE"/>
<stop offset="1" stop-color="#239ABA"/>
</linearGradient>
<linearGradient id="paint96_linear_1314_557" x1="478.759" y1="727.248" x2="485.349" y2="727.248" gradientUnits="userSpaceOnUse">
<stop stop-color="#4CCCED"/>
<stop offset="1" stop-color="#39D0DD"/>
</linearGradient>
<linearGradient id="paint97_linear_1314_557" x1="1319.47" y1="232.331" x2="1219" y2="539.27" gradientUnits="userSpaceOnUse">
<stop stop-color="#080534"/>
<stop offset="1" stop-color="#4793FF"/>
</linearGradient>
<linearGradient id="paint98_linear_1314_557" x1="1663.01" y1="-87.8413" x2="1545.21" y2="463.026" gradientUnits="userSpaceOnUse">
<stop stop-color="#080534"/>
<stop offset="1" stop-color="#4793FF"/>
</linearGradient>
</defs>
</svg>
