<svg width="100%" viewBox="0 0 1440 900" fill="none" xmlns="http://www.w3.org/2000/svg">
<mask id="mask0_1328_18" style="mask-type:alpha" maskUnits="userSpaceOnUse" x="0" y="0" width="1440" height="900">
<rect width="1440" height="900" fill="#D9D9D9"/>
</mask>
<g mask="url(#mask0_1328_18)">
<path opacity="0.1" d="M-2.78043 100.002C30.6196 96.6558 76.9196 176.802 153.72 154.102C278.92 111.402 179.32 0.50174 182.12 -84.8983C185.02 -198.698 304.52 -227.098 401.22 -218.598C443.92 -212.898 526.419 -201.498 523.519 -144.598C517.819 -96.1983 449.52 -70.5983 418.22 -44.9983C318.62 40.3017 406.819 125.702 500.719 168.402C566.119 196.802 731.119 225.302 640.119 330.602C608.819 367.602 554.819 373.302 512.119 344.802C469.419 316.402 472.32 268.002 441.02 233.902C367.02 154.202 221.92 239.602 139.52 256.702C79.7196 270.702 -29.6007 176.902 -37.3804 151.402C-45.1601 125.902 -36.1805 103.348 -2.78043 100.002Z" fill="url(#paint0_linear_1328_18)"/>
<path opacity="0.1" d="M1229.7 345.3C1249.9 334.6 1273.1 354.3 1265.4 375.8C1258.9 394 1244.1 412.5 1234.3 422.9C1207.9 450.8 1157.7 467 1156.9 513.8C1156.4 542 1178.3 559.8 1204.7 563C1236.2 566.9 1252.9 552 1272.6 531.3C1295.9 506.8 1324.6 486 1349.4 462.7C1374.5 439.1 1401.1 415 1434.9 405.1C1515.3 381.2 1469.7 511.6 1469.7 555.1C1469.7 657.3 1552.3 596.4 1604.5 568.1C1687.1 520.3 1737.1 618.1 1678.4 681.1C1634.9 731.1 1526.2 785.4 1463.2 755C1380.6 718 1430.6 639.8 1382.8 592C1311.1 522.4 1182.8 629 1104.6 581.1C1028.4 533.4 1188.4 371.4 1229.7 345.3Z" fill="url(#paint1_linear_1328_18)"/>
<path opacity="0.1" d="M277.601 504.6C294.101 477.9 350.401 488.8 317.701 536.4C292.201 572.1 277.001 601.2 319.301 635C390.801 690.3 484.301 694.1 547.701 762.4C574.001 791.4 608.401 846.7 593.501 886.3C575.701 933.5 507.701 929 486.801 979.4C461.301 1041 531.801 1076.6 566.701 1114.9C585.701 1135.7 591.601 1167.7 564.701 1185.2C531.701 1206.7 502.201 1186.6 479.801 1161.2C454.301 1132.3 437.401 1105.2 439.701 1066C441.801 1030.5 416.901 1000.4 419.401 963.1C423.301 911 480.201 898.8 501.301 854.8C523.301 807.5 484.201 771.3 443.401 754.5C180.401 646.4 277.601 504.6 277.601 504.6Z" fill="url(#paint2_linear_1328_18)"/>
<path d="M1440 693.2V900H0V414C89.9 524.3 360.8 761.8 1026.1 761.8C1193.2 761.9 1329.2 735.6 1440 693.2Z" fill="url(#paint3_linear_1328_18)"/>
<path d="M871.5 900.1H0V414.1C68.5 498.1 242 656 615 726.4C612 729.4 610.2 733 610.2 737.4C610.2 761 648.9 769.3 720 777.9C791.1 786.5 822 795.8 822 808.6C822 821.4 793.5 833.2 742 841.4C690.5 849.6 647.8 855.3 708 877.7C735.9 888.1 799.3 895.9 871.5 900.1Z" fill="url(#paint4_linear_1328_18)"/>
<path d="M630.6 842.7C630.6 876.3 554.1 873.9 507.4 871.9C462.9 870 383.9 869.9 393 900H0V414C55.5 482.1 180.1 598.8 424 678.1C416.9 681.6 411.7 686.2 410 692.1C402.8 717.5 453.4 730.3 501.5 752.7C549.7 775.1 630.6 809.2 630.6 842.7Z" fill="url(#paint5_linear_1328_18)"/>
<path d="M1440 693.2V712.2C1425.7 711 1408 710.8 1386.6 711.8C1405 706 1422.8 699.8 1440 693.2Z" fill="url(#paint6_linear_1328_18)"/>
<path d="M1245.4 826.2C1319.1 808 1379.9 792.7 1439.9 767.6V900H1087.3C1097.4 899.3 1107 898.5 1116.1 897.5C1239.8 884.3 1235.3 870.3 1214.7 860.6C1194.1 850.8 1167.5 845.5 1245.4 826.2Z" fill="url(#paint7_linear_1328_18)"/>
<g style="mix-blend-mode:screen">
<path d="M1366.5 758.5C1366.5 791.5 1232.3 813.6 1162.7 827.8C1093.1 842 1101.9 853.7 1107.4 860.1C1112.9 866.4 1143.6 891.1 988.2 891.1C832.8 891.1 837.3 861.3 890.7 833C944.2 804.8 936.4 792.5 847.7 785.3C803.4 781.7 771 763.8 749.6 746.6C833.2 756.3 925.1 761.8 1026.2 761.8C1132.6 761.8 1226.3 751.2 1309 732.5C1337.2 734.9 1366.5 741.5 1366.5 758.5Z" fill="url(#paint8_radial_1328_18)"/>
</g>
<path d="M1440 814.4V900H1357.6C1360.5 895.5 1359.8 889.3 1352.5 881.1C1326.2 851.5 1319.3 826.8 1440 814.4Z" fill="url(#paint9_linear_1328_18)"/>
<path d="M1406 836C1409.8 834.2 1413.8 832.9 1417.8 831.8C1420 831.3 1422.3 830.8 1424.5 830.2C1427.8 829.5 1431 829 1434.2 828.4C1436.1 828.1 1438 827.8 1439.9 827.5V824.2C1433.1 825.4 1426.5 827.5 1420 829.7C1419.9 829.7 1419.8 829.7 1419.7 829.7C1412.9 831.4 1405.5 833.4 1399.7 837.5C1398.6 838.3 1398.1 839.1 1398.1 839.8C1397.4 840.9 1396.9 842.1 1396.3 843.4C1395.1 845.9 1393.9 848.3 1392.6 850.8C1390.2 855.1 1388.2 859.9 1385 863.7C1384.7 864.1 1385.2 864.2 1385.5 864C1389.2 861.2 1391.8 856.7 1394.1 852.8C1396.2 849.2 1398 845.6 1399.1 841.7C1399.8 842.3 1400.8 842.8 1401.8 843.1C1403.5 843.6 1405.2 843.9 1407 844.1C1406.8 844.5 1406.5 844.9 1406.4 845.3C1405.7 847.1 1404.5 848.7 1403.6 850.4C1402.6 852.2 1401.8 854.1 1400.8 856C1400 857.7 1399.5 859.9 1398.1 861.3C1397.9 861.5 1398.3 861.6 1398.4 861.5C1400.7 859.5 1402 855.9 1403.5 853.4C1404.5 851.6 1405.5 849.8 1406.7 848.1C1407.4 847 1407.8 845.5 1408.6 844.4C1409.5 844.5 1410.3 844.6 1411.2 844.6C1410.8 845.5 1410.7 846.7 1410.3 847.6C1410.1 848 1409.6 850.7 1409.3 850.8C1409.1 850.8 1408.8 851.2 1409.1 851.2C1410 851.2 1410.5 849.7 1410.7 849.1C1411.3 847.7 1411.9 846.2 1412.4 844.7C1412.5 844.7 1412.6 844.7 1412.8 844.7C1420.5 845.3 1428.4 845 1436.2 845.2C1437.5 845.2 1438.8 845.3 1440 845.3V833.4C1435.6 834 1431.1 834.9 1426.8 836.2C1423.5 837.2 1419.5 838.5 1417.2 841.2C1416.8 841.7 1416.5 842.1 1416.4 842.6C1413.9 842.6 1411.4 842.5 1408.8 842.2C1406.6 842 1404.4 841.7 1402.3 841C1401.7 840.8 1400.7 840.4 1400.6 839.7C1400.4 838.3 1405.2 836.4 1406 836Z" fill="url(#paint10_linear_1328_18)"/>
<path d="M415.7 828.3C421 824.6 426.2 819.8 430.1 814.8C432.2 812.1 434.4 809.3 436.2 806.3C436.7 805.5 437.1 804.5 437.5 803.6C438.7 805.2 440.8 806.8 442.4 807.9C441.4 808.9 440.7 810.3 439.9 811.2C438 813.6 436.4 816.2 434.5 818.5C434.2 818.9 435.1 819.6 435.4 819.2C437.3 817.2 438.9 814.9 440.7 812.9C441.8 811.7 443 810.3 444.1 809C444.3 809.1 444.5 809.2 444.6 809.3C449.5 812.2 454.6 814.6 459.9 816.8C459.6 817.3 459.4 817.9 459.1 818.6C458.3 820.2 457.2 821.5 456.3 823C454.8 825.7 453.6 829.3 451.4 831.5C451 831.8 452 832.7 452.3 832.4C454.8 830.5 456.4 827.2 458.1 824.6C459.4 822.6 461.8 820.3 462.3 817.8C471.5 821.4 481.1 824.3 490.6 826.9C492.6 827.5 494.7 828 496.7 828.5C496.7 829 496.7 829.4 496.8 829.8C496.9 831.5 496.9 833.4 496.7 835.1C496.7 835.4 497.4 836 497.5 835.6C497.9 834.2 498.3 832.6 498.3 831.1C498.3 830.4 498.5 829.7 498.6 829C499.1 829.1 499.7 829.3 500.2 829.4C499.6 832 499.3 834.8 499.1 837.4C498.9 841.3 499.3 845.4 498.5 849.3C498.4 849.6 499.1 850.1 499.3 849.7C500.5 846.1 500.4 842 501 838.3C501.4 835.6 502.3 832.8 502.4 830C508.7 831.4 515 832.5 521.3 833.5C530.8 834.9 540.3 837 549.9 838C550 838 550.2 838 550.3 838C550.5 839.9 551 841.8 551.4 843.7C551.6 844.6 551.8 846.4 552.9 846.6C553.3 846.7 553 846.1 552.8 846C552.4 845.8 552.3 842.5 552.2 841.9C552 840.6 552.1 839.3 551.8 838C552.9 838.1 553.9 838.2 555 838.3C555.7 839.8 555.8 841.7 556.5 843.2C557.5 845.6 558.4 848 559.2 850.4C560.4 853.9 561.3 858.5 563.6 861.4C563.8 861.6 564.3 861.6 564 861.3C562.6 859.3 562.5 856.6 561.9 854.3C561.2 851.8 560.5 849.3 559.7 846.9C559 844.6 557.8 842.5 557.4 840.1C557.3 839.5 557.1 838.9 556.9 838.5C559.1 838.6 561.3 838.6 563.4 838.4C564.7 838.3 566 837.9 567 837.4C567.5 842.4 568.9 847.1 570.7 852C572.6 857.3 574.9 863.3 578.8 867.5C579.1 867.8 579.8 867.8 579.5 867.3C576.4 862 575 855.7 573 850C571.9 846.7 570.9 843.5 570 840.2C569.6 838.6 569.2 837 568.6 835.5C568.7 834.7 568.3 833.6 567.1 832.4C560.9 826.2 552.4 822.1 544.4 818.6C544.3 818.6 544.2 818.5 544.1 818.5C533.2 812.5 522 806.8 509.9 804.3C493.5 800.8 477.4 795.8 460.5 796C455.9 796 451.4 796.2 446.9 796.6C443.9 796.9 440.1 797.2 437.5 798.8C437 799.1 436.6 799.5 436.4 799.9C435.3 800.8 434.7 802.5 434 803.5C432.1 806.5 430 809.2 427.9 812C423.8 817.6 419.3 822.7 414.6 827.8C414.7 827.9 415.4 828.5 415.7 828.3ZM443.7 800.7C445.9 800.2 448.2 800 450.5 799.8C454.6 799.5 458.8 799.2 462.9 799.2C472.8 799.6 482.9 801.4 492.4 803.5C504.3 806.1 516 809.5 527.4 813.6C531.2 815 535 816.4 538.9 817.9C541.5 819 544.1 820.1 546.7 821.2C551.4 823.4 556 825.9 560.2 828.9C561.1 829.5 566.5 832.8 566 834.2C565.7 835 564.4 835.3 563.6 835.4C560.9 835.8 558.1 835.7 555.4 835.5C552.3 835.2 549.2 834.8 546.1 834.3C546 833.8 545.8 833.1 545.4 832.5C543.2 828.7 538.6 826.3 534.8 824.4C524.5 819.1 513.2 816.1 502 813.4C496.2 812 490.4 810.7 484.5 809.8C478.8 808.9 472.9 807.6 467.2 807.6C462.8 807.6 457.3 807.3 453.2 809C452.7 809.2 452.4 809.8 452.3 810.4C449.6 809.1 447 807.6 444.5 806C443.4 805.3 441.7 804.3 440.9 803.3C439.5 801.5 443.1 800.9 443.7 800.7Z" fill="url(#paint11_linear_1328_18)"/>
<path d="M685.9 803.5C685.9 803.5 667.8 807.8 657.8 809.8C647.8 811.7 642.3 819 661.7 819.8C681.1 820.6 638.4 835.4 667.4 837.3C696.4 839.2 743.1 834.8 767.9 814C778.9 804.9 685.9 803.5 685.9 803.5Z" fill="url(#paint12_linear_1328_18)"/>
<path d="M694.3 789C694.3 789 690.7 799.8 685.6 803.5C685.6 803.5 683.5 813.7 696.7 815.4C709.9 817.1 714.4 817.8 722.8 823.3C731.2 828.7 741.8 829.1 748.5 822C755.3 814.9 771.5 818.9 769.2 808.5C769.2 808.5 763 802.8 760.6 793.8C760.6 793.8 759.3 795.4 747.2 796.2C735.1 797 711.4 794.4 704.6 793C698 791.6 694.3 789 694.3 789Z" fill="#272060"/>
<path d="M694.3 789C694.3 789 690.7 799.8 685.6 803.5C685.6 803.5 683.5 813.7 696.7 815.4C709.9 817.1 714.4 817.8 722.8 823.3C731.2 828.7 741.8 829.1 748.5 822C755.3 814.9 771.5 818.9 769.2 808.5C769.2 808.5 763 802.8 760.6 793.8C760.6 793.8 759.3 795.4 747.2 796.2C735.1 797 711.4 794.4 704.6 793C698 791.6 694.3 789 694.3 789Z" fill="url(#paint13_linear_1328_18)"/>
<path d="M686 803.5C688.2 801.3 690.4 798.5 691.9 795.7C692.7 794.2 693.5 792.6 694.1 791.1C694.3 790.6 694.4 790.2 694.5 789.7C695.2 790.4 696.4 791 697.3 791.4C696.9 792 696.7 792.7 696.4 793.2C695.7 794.5 695.1 795.9 694.4 797.2C694.3 797.4 694.8 797.7 694.9 797.5C695.7 796.4 696.2 795.1 697 794C697.4 793.3 697.9 792.6 698.3 791.8C698.4 791.8 698.5 791.9 698.6 791.9C701.2 792.9 703.9 793.6 706.7 794.2C706.6 794.5 706.6 794.8 706.5 795.1C706.3 795.9 705.8 796.7 705.5 797.5C705 798.9 704.8 800.8 703.9 802C703.8 802.2 704.3 802.5 704.4 802.3C705.5 801.2 705.9 799.4 706.6 798C707.1 796.9 708 795.6 708 794.4C712.8 795.4 717.7 795.9 722.5 796.4C723.5 796.5 724.6 796.6 725.6 796.6C725.6 796.8 725.7 797.1 725.7 797.3C725.9 798.1 726 799 726.1 799.9C726.1 800.1 726.5 800.3 726.5 800.1C726.6 799.4 726.6 798.5 726.5 797.8C726.4 797.5 726.5 797.1 726.5 796.8C726.8 796.8 727.1 796.8 727.3 796.8C727.3 798.1 727.3 799.5 727.5 800.8C727.7 802.7 728.3 804.7 728.2 806.6C728.2 806.8 728.6 806.9 728.6 806.7C728.9 804.8 728.5 802.9 728.4 801C728.4 799.6 728.6 798.2 728.4 796.8C731.6 796.9 734.7 797 737.9 796.9C742.6 796.8 747.4 796.9 752.2 796.6C752.3 796.6 752.3 796.6 752.4 796.6C752.7 797.5 753 798.4 753.4 799.3C753.6 799.7 753.8 800.6 754.4 800.6C754.6 800.6 754.4 800.3 754.3 800.3C754.1 800.3 753.8 798.6 753.7 798.4C753.5 797.8 753.4 797.1 753.2 796.6C753.7 796.6 754.2 796.5 754.8 796.5C755.3 797.1 755.5 798.1 755.9 798.7C756.6 799.8 757.2 800.8 757.9 802C758.8 803.6 759.6 805.8 761 807C761.1 807.1 761.3 807 761.2 806.9C760.4 806 760.1 804.8 759.6 803.7C759 802.6 758.5 801.4 757.9 800.3C757.3 799.2 756.6 798.3 756.2 797.2C756.1 796.9 756 796.7 755.8 796.5C756.9 796.4 757.9 796.2 759 795.9C759.6 795.7 760.2 795.4 760.7 795.1C761.4 797.5 762.5 799.6 763.8 801.9C765.2 804.3 766.8 807 769.1 808.7C769.2 808.8 769.6 808.8 769.4 808.5C767.5 806.2 766.2 803.2 764.7 800.6C763.9 799.1 763.1 797.7 762.4 796.1C762 795.3 761.7 794.6 761.3 793.9C761.3 793.5 761 793 760.3 792.5C756.8 790 752.2 788.8 748.1 787.8H748C742.2 785.8 736.2 784 730.1 783.8C721.8 783.5 713.6 782.5 705.4 784C703.2 784.4 701 784.9 698.8 785.5C697.3 785.9 695.6 786.3 694.4 787.4C694.2 787.6 694 787.8 693.9 788C693.5 788.5 693.3 789.4 693 790C692.3 791.6 691.5 793.1 690.8 794.7C689.3 797.8 687.5 800.6 685.7 803.5C685.6 803.4 685.9 803.6 686 803.5ZM697.3 787.7C698.3 787.3 699.4 787 700.5 786.7C702.5 786.2 704.5 785.7 706.5 785.4C711.4 784.7 716.4 784.8 721.2 785C727.2 785.3 733.2 785.9 739.1 786.9C741.1 787.2 743 787.6 745 788C746.4 788.3 747.7 788.6 749.1 788.9C751.6 789.6 754 790.4 756.3 791.5C756.8 791.7 759.7 792.9 759.6 793.6C759.5 794 758.9 794.3 758.5 794.4C757.2 794.8 755.9 795 754.5 795.1C753 795.2 751.4 795.3 749.9 795.3C749.8 795 749.7 794.7 749.4 794.5C748 792.9 745.6 792.1 743.6 791.5C738.1 789.8 732.4 789.3 726.7 789C723.8 788.8 720.8 788.7 717.9 788.7C715.1 788.8 712.1 788.6 709.3 789.1C707.2 789.5 704.5 789.8 702.6 791C702.4 791.1 702.3 791.5 702.3 791.8C700.9 791.4 699.5 790.9 698.1 790.3C697.5 790 696.6 789.7 696.1 789.3C695.3 788.5 697 787.8 697.3 787.7Z" fill="url(#paint14_linear_1328_18)"/>
<path d="M1291.1 790.8C1291.1 790.8 1309.1 795.6 1319.2 797.1C1341.4 800.3 1337.2 808.7 1317.9 809.5C1298.5 810.3 1341.2 825.1 1312.2 827C1283.3 828.9 1236.5 824.5 1211.7 803.7C1200.7 794.4 1291.1 790.8 1291.1 790.8Z" fill="url(#paint15_linear_1328_18)"/>
<path d="M1209.2 800.7C1209.2 800.7 1211 806.9 1221.9 807.8C1232.9 808.6 1239.8 809.4 1247.4 813.3C1255 817.1 1267.6 817.3 1272.5 810.7C1277.4 804.1 1283.4 801.6 1287.7 800.8C1291.9 800 1293.6 794.5 1291.1 790.8L1209.2 800.7Z" fill="url(#paint16_linear_1328_18)"/>
<path d="M1216.4 781.5C1216.4 781.5 1212.6 791.5 1208 795.8C1208 795.8 1207.2 806.2 1220.5 806.2C1233.8 806.2 1238.3 806.4 1247.4 810.7C1256.5 815 1266.9 814.1 1272.7 806.1C1278.5 798.2 1294.9 800.7 1291.3 790.7C1291.3 790.7 1286.3 784.3 1282.8 775.6C1282.8 775.6 1282.2 778.5 1270.3 780.8C1258.4 783.1 1237.2 784.5 1226.1 783.2C1219.5 782.5 1216.4 781.5 1216.4 781.5Z" fill="#272060"/>
<path d="M1216.4 781.5C1216.4 781.5 1212.6 791.5 1208 795.8C1208 795.8 1207.2 806.2 1220.5 806.2C1233.8 806.2 1238.3 806.4 1247.4 810.7C1256.5 815 1266.9 814.1 1272.7 806.1C1278.5 798.2 1294.9 800.7 1291.3 790.7C1291.3 790.7 1286.3 784.3 1282.8 775.6C1282.8 775.6 1282.2 778.5 1270.3 780.8C1258.4 783.1 1237.2 784.5 1226.1 783.2C1219.5 782.5 1216.4 781.5 1216.4 781.5Z" fill="url(#paint17_linear_1328_18)"/>
<path d="M1291.5 790.5C1289.7 787.6 1287.9 784.8 1286.4 781.7C1285.6 780.2 1284.8 778.7 1284.2 777.1C1284 776.5 1283.8 775.7 1283.3 775.1C1283.2 774.9 1283.1 774.7 1282.9 774.5C1281.8 773.5 1280 773 1278.5 772.6C1276.3 772 1274.1 771.5 1271.9 771.1C1263.7 769.6 1255.4 770.6 1247.2 770.9C1241.1 771.1 1235.2 772.9 1229.4 774.9C1229.3 774.9 1229.3 774.9 1229.2 774.9C1225.1 775.9 1220.5 777.1 1217 779.7C1216.3 780.2 1216 780.6 1216 781.1C1215.6 781.8 1215.3 782.5 1214.9 783.3C1214.2 784.8 1213.5 786.3 1212.6 787.8C1211.1 790.4 1209.9 793.4 1208 795.7C1207.8 795.9 1208.1 796 1208.3 795.9C1210.5 794.2 1212.2 791.5 1213.6 789.1C1214.9 786.9 1216 784.7 1216.7 782.3C1217.1 782.7 1217.7 783 1218.4 783.1C1219.4 783.4 1220.5 783.6 1221.6 783.7C1221.5 783.9 1221.3 784.2 1221.2 784.5C1220.8 785.6 1220 786.6 1219.5 787.6C1218.9 788.7 1218.4 789.9 1217.8 791C1217.3 792.1 1217 793.3 1216.2 794.2C1216.1 794.3 1216.3 794.4 1216.4 794.3C1217.8 793.1 1218.6 790.9 1219.5 789.3C1220.1 788.2 1220.8 787.1 1221.5 786.1C1221.9 785.4 1222.2 784.5 1222.6 783.9C1223.1 783.9 1223.7 784 1224.2 784C1223.9 784.6 1223.9 785.3 1223.7 785.8C1223.6 786 1223.3 787.7 1223.1 787.7C1223 787.7 1222.8 788 1223 788C1223.6 788 1223.8 787.1 1224 786.7C1224.4 785.8 1224.7 784.9 1225 784C1225.1 784 1225.1 784 1225.2 784C1229.9 784.3 1234.7 784.1 1239.5 784.3C1242.7 784.4 1245.9 784.4 1249 784.2C1248.8 785.6 1249 787 1249 788.4C1248.9 790.3 1248.5 792.2 1248.8 794.1C1248.8 794.3 1249.2 794.1 1249.2 794C1249.1 792.1 1249.7 790.1 1249.9 788.2C1250.1 786.9 1250.1 785.5 1250.1 784.2C1250.4 784.2 1250.7 784.2 1250.9 784.2C1250.9 784.5 1250.9 784.9 1250.9 785.2C1250.8 785.9 1250.8 786.7 1250.9 787.4C1250.9 787.6 1251.3 787.4 1251.3 787.3C1251.4 786.4 1251.5 785.5 1251.7 784.7C1251.8 784.5 1251.8 784.3 1251.9 784C1252.9 783.9 1254 783.9 1255 783.8C1259.8 783.3 1264.7 782.8 1269.5 781.8C1269.5 783.1 1270.5 784.4 1270.9 785.4C1271.5 786.8 1272 788.6 1273.1 789.7C1273.2 789.9 1273.8 789.6 1273.6 789.4C1272.7 788.2 1272.5 786.3 1272 784.9C1271.7 784.1 1271.3 783.4 1271 782.5C1270.9 782.1 1270.9 781.8 1270.7 781.5C1273.4 780.9 1276.1 780.2 1278.8 779.2C1278.9 779.2 1279 779.1 1279.1 779.1C1279.5 779.8 1280 780.6 1280.4 781.3C1281.1 782.5 1281.7 783.7 1282.5 784.9C1282.6 785.1 1283.1 784.8 1283 784.6C1282.3 783.3 1281.7 781.9 1281 780.6C1280.7 780.1 1280.5 779.3 1280.1 778.8C1281 778.4 1282.1 777.8 1282.9 777.1C1283 777.6 1283.1 778.1 1283.3 778.5C1283.9 780.1 1284.7 781.6 1285.5 783.1C1287 785.9 1289.1 788.7 1291.4 790.9C1291.3 790.9 1291.6 790.7 1291.5 790.5ZM1281.1 776.4C1280.6 776.9 1279.7 777.2 1279.1 777.4C1277.7 778 1276.3 778.5 1274.9 778.9C1274.9 778.6 1274.8 778.3 1274.6 778.1C1272.8 776.9 1270 776.6 1267.9 776.2C1265.1 775.7 1262.1 775.8 1259.3 775.8C1256.3 775.8 1253.4 775.9 1250.5 776C1244.8 776.4 1239.1 776.8 1233.6 778.5C1231.6 779.1 1229.2 779.9 1227.8 781.5C1227.6 781.8 1227.4 782.1 1227.3 782.3C1225.8 782.3 1224.2 782.2 1222.7 782.1C1221.4 782 1220 781.8 1218.7 781.4C1218.3 781.3 1217.7 781 1217.6 780.6C1217.5 779.9 1220.4 778.7 1220.9 778.5C1223.2 777.4 1225.6 776.6 1228.1 775.9C1229.5 775.6 1230.8 775.3 1232.2 775C1234.2 774.6 1236.2 774.2 1238.1 773.9C1244 772.9 1250 772.3 1256 772C1260.8 771.8 1265.9 771.8 1270.7 772.4C1272.7 772.8 1274.7 773.2 1276.7 773.8C1277.8 774.1 1278.9 774.4 1279.9 774.8C1280.2 775.1 1281.8 775.7 1281.1 776.4Z" fill="url(#paint18_linear_1328_18)"/>
<path d="M930.5 848.2C930.5 848.2 912.4 852.5 902.4 854.5C892.4 856.4 886.9 863.7 906.3 864.5C925.7 865.3 883 880.1 912 882C941 883.9 976 876 989 869.8C1002 863.6 930.5 848.2 930.5 848.2Z" fill="url(#paint19_linear_1328_18)"/>
<path d="M940.3 835C940.3 835 935.2 844.4 930.2 848.1C930.2 848.1 928.1 858.3 941.3 860C954.5 861.7 959 862.4 967.4 867.9C975.8 873.4 986.4 873.7 993.1 866.6C999.8 859.5 1016 863 1013.7 852.6C1013.7 852.6 1008.9 845.8 1006.5 836.8C1006.5 836.8 1005.5 839.6 993.5 840.4C981.5 841.2 956.5 839.5 949.8 838.1C943.2 836.6 940.3 835 940.3 835Z" fill="#272060"/>
<path d="M940.3 835C940.3 835 935.2 844.4 930.2 848.1C930.2 848.1 928.1 858.3 941.3 860C954.5 861.7 959 862.4 967.4 867.9C975.8 873.4 986.4 873.7 993.1 866.6C999.8 859.5 1016 863 1013.7 852.6C1013.7 852.6 1008.9 845.8 1006.5 836.8C1006.5 836.8 1005.5 839.6 993.5 840.4C981.5 841.2 956.5 839.5 949.8 838.1C943.2 836.6 940.3 835 940.3 835Z" fill="url(#paint20_linear_1328_18)"/>
<path d="M1013.8 852.5C1012.3 849.4 1010.9 846.4 1009.7 843.2C1009.1 841.6 1008.5 840 1008 838.3C1007.8 837.7 1007.7 836.8 1007.4 836.2C1007.3 836 1007.2 835.8 1007 835.5C1006 834.3 1004.3 833.7 1002.9 833.1C1000.8 832.3 998.701 831.5 996.501 830.9C988.501 828.4 980.201 828.5 972.001 827.9C965.901 827.4 959.801 828.5 953.801 829.8H953.701C949.501 830.3 944.801 831 941.001 833.1C940.301 833.5 939.901 833.9 939.801 834.4C939.301 835 938.901 835.7 938.501 836.4C937.601 837.8 936.701 839.2 935.701 840.6C933.901 843 932.401 845.8 930.201 847.9C930.001 848.1 930.301 848.2 930.501 848.1C932.901 846.7 934.801 844.1 936.501 841.9C938.001 839.8 939.301 837.8 940.301 835.5C940.701 835.9 941.301 836.3 941.901 836.5C942.901 836.9 943.901 837.2 945.001 837.5C944.801 837.7 944.701 837.9 944.501 838.2C944.001 839.3 943.101 840.1 942.401 841.1C941.701 842.2 941.001 843.2 940.301 844.3C939.701 845.3 939.201 846.5 938.301 847.3C938.101 847.4 938.401 847.5 938.501 847.4C940.001 846.4 941.101 844.3 942.101 842.8C942.901 841.8 943.601 840.8 944.401 839.8C944.901 839.2 945.201 838.3 945.801 837.7C946.301 837.8 946.801 837.9 947.301 838C947.001 838.5 946.901 839.2 946.601 839.8C946.501 840 946.001 841.6 945.801 841.6C945.701 841.6 945.501 841.8 945.701 841.8C946.301 841.8 946.601 841 946.801 840.6C947.301 839.8 947.701 838.9 948.101 838.1C948.201 838.1 948.201 838.1 948.301 838.1C953.001 839 957.701 839.3 962.401 840C965.601 840.5 968.701 840.8 971.901 841C971.501 842.3 971.601 843.8 971.401 845.1C971.101 847 970.501 848.8 970.601 850.8C970.601 851 971.001 850.9 971.001 850.7C971.201 848.8 972.001 846.9 972.401 845C972.701 843.7 972.901 842.4 973.001 841.1C973.301 841.1 973.501 841.1 973.801 841.1C973.801 841.4 973.801 841.8 973.701 842.1C973.501 842.8 973.501 843.6 973.501 844.3C973.501 844.5 973.901 844.4 974.001 844.2C974.201 843.4 974.401 842.5 974.701 841.7C974.801 841.5 974.901 841.3 974.901 841.1C975.901 841.1 977.001 841.2 978.001 841.2C982.801 841.3 987.801 841.3 992.701 840.9C992.601 842.2 993.401 843.6 993.701 844.7C994.101 846.2 994.401 848 995.401 849.2C995.501 849.4 996.101 849.1 996.001 848.9C995.301 847.6 995.201 845.7 994.901 844.2C994.701 843.3 994.401 842.6 994.201 841.7C994.101 841.3 994.101 841 994.101 840.7C996.901 840.4 999.701 840 1002.4 839.3C1002.5 839.3 1002.6 839.3 1002.7 839.2C1003 840 1003.4 840.8 1003.7 841.5C1004.3 842.7 1004.7 844 1005.3 845.2C1005.4 845.4 1005.9 845.2 1005.8 845C1005.2 843.6 1004.8 842.2 1004.2 840.8C1004 840.2 1003.8 839.5 1003.5 838.9C1004.4 838.6 1005.6 838.1 1006.4 837.5C1006.5 838 1006.5 838.5 1006.7 839C1007.1 840.7 1007.8 842.3 1008.4 843.9C1009.6 846.8 1011.4 849.8 1013.3 852.3C1013.5 852.9 1013.9 852.7 1013.8 852.5ZM1005 837.4C1004.5 837.8 1003.5 838 1002.9 838.2C1001.5 838.6 1000 838.9 998.601 839.2C998.601 838.9 998.601 838.6 998.401 838.4C996.701 837 994.101 836.4 992.001 835.7C989.301 834.9 986.301 834.7 983.501 834.3C980.601 833.9 977.601 833.7 974.701 833.5C969.001 833.2 963.201 833 957.601 834.1C955.501 834.5 953.001 835 951.401 836.5C951.101 836.8 950.901 837 950.801 837.3C949.301 837.1 947.801 836.9 946.201 836.6C944.901 836.3 943.501 836 942.301 835.4C942.001 835.2 941.401 835 941.301 834.5C941.301 833.8 944.301 833 944.801 832.8C947.201 832 949.701 831.4 952.301 831.1C953.701 830.9 955.101 830.8 956.501 830.6C958.501 830.4 960.601 830.3 962.501 830.2C968.501 829.9 974.501 829.9 980.501 830.4C985.301 830.7 990.301 831.3 995.101 832.5C997.101 833.1 999.001 833.8 1000.9 834.5C1002 834.9 1003 835.3 1004 835.9C1004.3 835.9 1005.9 836.7 1005 837.4Z" fill="url(#paint21_linear_1328_18)"/>
<g style="mix-blend-mode:lighten">
<path d="M1332.3 726.9C1330.8 727.3 1329.2 727.7 1327.7 728.1L1321 729.7L1307.5 733L1304.2 733.8L1300.8 734.5L1294 736L1280.5 739C1272.6 740.5 1264.3 742.2 1253.3 744.2C1250.1 744.7 1246.8 745.3 1243.6 745.8C1237.8 746.8 1231.8 747.8 1225.9 748.7C1191.3 754 1155.3 757.9 1115.8 760.5C1086.9 762.4 1056.1 763.2 1021.5 763.2C1016.2 763.2 1010.7 763.2 1005.1 763.1C965.8 762.7 929.6 761.7 894.4 759.8C854.7 757.6 818.6 754.8 784 751.1C748.5 747.4 713 742.6 678.2 737C712 741.8 747.6 746 784.1 749.4C854.8 756 929.1 759.6 1005 760.1C1012.2 760.2 1019.4 760.2 1026.5 760.2C1096.1 760.2 1163.1 755.7 1225.7 746.9C1262.4 741.9 1298.3 735.2 1332.3 726.9Z" fill="url(#paint22_linear_1328_18)"/>
</g>
</g>
<defs>
<linearGradient id="paint0_linear_1328_18" x1="-37.0407" y1="-172.987" x2="526.226" y2="438.641" gradientUnits="userSpaceOnUse">
<stop stop-color="#4793FF"/>
<stop offset="0.2524" stop-color="#046462" stop-opacity="0"/>
<stop offset="0.2711" stop-color="#0F6B7B" stop-opacity="0.0753608"/>
<stop offset="0.3061" stop-color="#2077A3" stop-opacity="0.2168"/>
<stop offset="0.3421" stop-color="#2E81C4" stop-opacity="0.3624"/>
<stop offset="0.3789" stop-color="#3989DE" stop-opacity="0.511"/>
<stop offset="0.4167" stop-color="#418FF0" stop-opacity="0.6637"/>
<stop offset="0.4562" stop-color="#4592FB" stop-opacity="0.8231"/>
<stop offset="0.5" stop-color="#4793FF"/>
<stop offset="0.7533" stop-color="#046462" stop-opacity="0"/>
<stop offset="1" stop-color="#4793FF"/>
</linearGradient>
<linearGradient id="paint1_linear_1328_18" x1="1084.21" y1="553.122" x2="1703.86" y2="553.122" gradientUnits="userSpaceOnUse">
<stop stop-color="#4793FF"/>
<stop offset="0.2524" stop-color="#046462" stop-opacity="0"/>
<stop offset="0.2711" stop-color="#0F6B7B" stop-opacity="0.0753608"/>
<stop offset="0.3061" stop-color="#2077A3" stop-opacity="0.2168"/>
<stop offset="0.3421" stop-color="#2E81C4" stop-opacity="0.3624"/>
<stop offset="0.3789" stop-color="#3989DE" stop-opacity="0.511"/>
<stop offset="0.4167" stop-color="#418FF0" stop-opacity="0.6637"/>
<stop offset="0.4562" stop-color="#4592FB" stop-opacity="0.8231"/>
<stop offset="0.5" stop-color="#4793FF"/>
<stop offset="0.7533" stop-color="#046462" stop-opacity="0"/>
<stop offset="1" stop-color="#4793FF"/>
</linearGradient>
<linearGradient id="paint2_linear_1328_18" x1="173.269" y1="613.879" x2="665.974" y2="1080.33" gradientUnits="userSpaceOnUse">
<stop stop-color="#4793FF"/>
<stop offset="0.2524" stop-color="#046462" stop-opacity="0"/>
<stop offset="0.2711" stop-color="#0F6B7B" stop-opacity="0.0753608"/>
<stop offset="0.3061" stop-color="#2077A3" stop-opacity="0.2168"/>
<stop offset="0.3421" stop-color="#2E81C4" stop-opacity="0.3624"/>
<stop offset="0.3789" stop-color="#3989DE" stop-opacity="0.511"/>
<stop offset="0.4167" stop-color="#418FF0" stop-opacity="0.6637"/>
<stop offset="0.4562" stop-color="#4592FB" stop-opacity="0.8231"/>
<stop offset="0.5" stop-color="#4793FF"/>
<stop offset="0.7533" stop-color="#046462" stop-opacity="0"/>
<stop offset="1" stop-color="#4793FF"/>
</linearGradient>
<linearGradient id="paint3_linear_1328_18" x1="-0.0442" y1="657.045" x2="1439.96" y2="657.045" gradientUnits="userSpaceOnUse">
<stop offset="0.00041336" stop-color="#0B0E5C"/>
<stop offset="0.7142" stop-color="#433164"/>
<stop offset="1" stop-color="#272060"/>
</linearGradient>
<linearGradient id="paint4_linear_1328_18" x1="-0.0442" y1="657.045" x2="871.506" y2="657.045" gradientUnits="userSpaceOnUse">
<stop stop-color="#080534"/>
<stop offset="1" stop-color="#272060"/>
</linearGradient>
<linearGradient id="paint5_linear_1328_18" x1="533.5" y1="608" x2="315" y2="900" gradientUnits="userSpaceOnUse">
<stop stop-color="#130F43"/>
<stop offset="1" stop-color="#080534"/>
</linearGradient>
<linearGradient id="paint6_linear_1328_18" x1="1085.55" y1="702.7" x2="1747.78" y2="702.7" gradientUnits="userSpaceOnUse">
<stop stop-color="#272060"/>
<stop offset="1" stop-color="#080534"/>
</linearGradient>
<linearGradient id="paint7_linear_1328_18" x1="1085.55" y1="833.87" x2="1747.78" y2="833.87" gradientUnits="userSpaceOnUse">
<stop stop-color="#272060"/>
<stop offset="1" stop-color="#080534"/>
</linearGradient>
<radialGradient id="paint8_radial_1328_18" cx="0" cy="0" r="1" gradientUnits="userSpaceOnUse" gradientTransform="translate(1067.27 679.833) scale(381.408 219.615)">
<stop stop-color="#DD9179"/>
<stop offset="0.0783275" stop-color="#C6826C"/>
<stop offset="0.3303" stop-color="#805446"/>
<stop offset="0.5575" stop-color="#493028"/>
<stop offset="0.7518" stop-color="#211612"/>
<stop offset="0.9057" stop-color="#090605"/>
<stop offset="1"/>
</radialGradient>
<linearGradient id="paint9_linear_1328_18" x1="1372.5" y1="824.5" x2="1409.6" y2="902.566" gradientUnits="userSpaceOnUse">
<stop stop-color="#130F43"/>
<stop offset="1" stop-color="#080534"/>
</linearGradient>
<linearGradient id="paint10_linear_1328_18" x1="1411.78" y1="824.201" x2="1415.44" y2="931.439" gradientUnits="userSpaceOnUse">
<stop stop-color="#01001A"/>
<stop offset="1" stop-color="#080534"/>
</linearGradient>
<linearGradient id="paint11_linear_1328_18" x1="502.205" y1="801.774" x2="489.253" y2="924.533" gradientUnits="userSpaceOnUse">
<stop stop-color="#080534"/>
<stop offset="1" stop-color="#272060"/>
</linearGradient>
<linearGradient id="paint12_linear_1328_18" x1="728.047" y1="813.783" x2="657.606" y2="827.871" gradientUnits="userSpaceOnUse">
<stop stop-color="#080534" stop-opacity="0.4"/>
<stop offset="0.3148" stop-color="#0B0738" stop-opacity="0.2741"/>
<stop offset="0.6017" stop-color="#120E43" stop-opacity="0.1593"/>
<stop offset="0.8769" stop-color="#1F1955" stop-opacity="0.0492536"/>
<stop offset="1" stop-color="#272060" stop-opacity="0"/>
</linearGradient>
<linearGradient id="paint13_linear_1328_18" x1="731.024" y1="802.591" x2="769.956" y2="787.271" gradientUnits="userSpaceOnUse">
<stop stop-color="#83596D" stop-opacity="0"/>
<stop offset="1" stop-color="#83596D"/>
</linearGradient>
<linearGradient id="paint14_linear_1328_18" x1="725.759" y1="780.75" x2="729.419" y2="835.091" gradientUnits="userSpaceOnUse">
<stop stop-color="#080534"/>
<stop offset="1" stop-color="#272060"/>
</linearGradient>
<linearGradient id="paint15_linear_1328_18" x1="1262.95" y1="797.377" x2="1316.64" y2="829.099" gradientUnits="userSpaceOnUse">
<stop stop-color="#080534" stop-opacity="0.4"/>
<stop offset="0.3148" stop-color="#0B0738" stop-opacity="0.2741"/>
<stop offset="0.6017" stop-color="#120E43" stop-opacity="0.1593"/>
<stop offset="0.8769" stop-color="#1F1955" stop-opacity="0.0492536"/>
<stop offset="1" stop-color="#272060" stop-opacity="0"/>
</linearGradient>
<linearGradient id="paint16_linear_1328_18" x1="1245.22" y1="793.891" x2="1279.86" y2="814.362" gradientUnits="userSpaceOnUse">
<stop stop-color="#080534" stop-opacity="0.4"/>
<stop offset="0.3148" stop-color="#0B0738" stop-opacity="0.2741"/>
<stop offset="0.6017" stop-color="#120E43" stop-opacity="0.1593"/>
<stop offset="0.8769" stop-color="#1F1955" stop-opacity="0.0492536"/>
<stop offset="1" stop-color="#272060" stop-opacity="0"/>
</linearGradient>
<linearGradient id="paint17_linear_1328_18" x1="1289.44" y1="805.752" x2="1205.73" y2="774.217" gradientUnits="userSpaceOnUse">
<stop stop-color="#83596D" stop-opacity="0"/>
<stop offset="1" stop-color="#83596D"/>
</linearGradient>
<linearGradient id="paint18_linear_1328_18" x1="1252.34" y1="770.465" x2="1249.71" y2="793.365" gradientUnits="userSpaceOnUse">
<stop stop-color="#080534"/>
<stop offset="1" stop-color="#272060"/>
</linearGradient>
<linearGradient id="paint19_linear_1328_18" x1="956.651" y1="860.998" x2="900.794" y2="872.17" gradientUnits="userSpaceOnUse">
<stop stop-color="#0B0E5C" stop-opacity="0.4"/>
<stop offset="0.388" stop-color="#0F105D" stop-opacity="0.2448"/>
<stop offset="0.741" stop-color="#1A175E" stop-opacity="0.1036"/>
<stop offset="1" stop-color="#272060" stop-opacity="0"/>
</linearGradient>
<linearGradient id="paint20_linear_1328_18" x1="976.061" y1="847.967" x2="1015.06" y2="832.622" gradientUnits="userSpaceOnUse">
<stop stop-color="#83596D" stop-opacity="0"/>
<stop offset="1" stop-color="#83596D"/>
</linearGradient>
<linearGradient id="paint21_linear_1328_18" x1="974.569" y1="827.77" x2="971.753" y2="852.547" gradientUnits="userSpaceOnUse">
<stop stop-color="#080534"/>
<stop offset="1" stop-color="#272060"/>
</linearGradient>
<linearGradient id="paint22_linear_1328_18" x1="678.286" y1="745.105" x2="1332.33" y2="745.105" gradientUnits="userSpaceOnUse">
<stop/>
<stop offset="0.051123" stop-color="#080504"/>
<stop offset="0.1306" stop-color="#1E1410"/>
<stop offset="0.2283" stop-color="#422B24"/>
<stop offset="0.3407" stop-color="#744C3F"/>
<stop offset="0.4638" stop-color="#B37562"/>
<stop offset="0.5394" stop-color="#DD9179"/>
<stop offset="0.6787" stop-color="#9E6756"/>
<stop offset="1"/>
</linearGradient>
</defs>
</svg>
