<svg width="100%" viewBox="0 0 1440 561" fill="none" xmlns="http://www.w3.org/2000/svg">
<mask id="mask0_1317_575" style="mask-type:alpha" maskUnits="userSpaceOnUse" x="0" y="0" width="1440" height="561">
<rect width="1440" height="561" fill="#D9D9D9"/>
</mask>
<g mask="url(#mask0_1317_575)">
<path opacity="0.1" d="M1541.85 316.97C1519.57 322.077 1502.26 297.044 1515.27 278.269C1526.25 262.372 1545.34 248.332 1557.5 240.823C1590.22 220.707 1642.9 218.052 1655.79 173.053C1663.57 145.944 1647.02 123.082 1622.35 113.158C1592.93 101.238 1572.94 111.308 1548.56 126.204C1519.71 143.839 1486.6 156.502 1456.62 172.589C1426.27 188.889 1394.33 205.283 1359.12 206.098C1275.28 208.374 1353.07 94.2197 1364.33 52.2019C1390.78 -46.5157 1295.24 -9.06931 1237.49 4.75604C1145.33 29.5488 1122.35 -77.8597 1195.36 -123.52C1250.31 -160.558 1369.36 -184.874 1422.35 -139.204C1492.56 -82.0866 1424.02 -19.4922 1457.82 39.0506C1509.07 124.836 1660.58 55.0752 1723.72 121.583C1784.98 187.379 1588.5 302.448 1541.85 316.97Z" fill="url(#paint0_linear_1317_575)"/>
</g>
<defs>
<linearGradient id="paint0_linear_1317_575" x1="1630.35" y1="291.51" x2="1241.06" y2="-143.053" gradientUnits="userSpaceOnUse">
<stop stop-color="#4793FF"/>
<stop offset="0.2524" stop-color="#046462" stop-opacity="0"/>
<stop offset="0.468034" stop-color="#4793FF"/>
<stop offset="0.7533" stop-color="#046462" stop-opacity="0"/>
<stop offset="1" stop-color="#4793FF"/>
</linearGradient>
</defs>
</svg>
