<svg width="100%" viewBox="0 0 1440 1100" fill="none" xmlns="http://www.w3.org/2000/svg">
<path d="M1440 0H0V1100H1440V0Z" fill="url(#paint0_linear_1122_14013)"/>
<mask id="mask0_1122_14013" style="mask-type:alpha" maskUnits="userSpaceOnUse" x="0" y="0" width="1440" height="1100">
<path d="M1440 0H0V1100H1440V0Z" fill="url(#paint1_linear_1122_14013)"/>
</mask>
<g mask="url(#mask0_1122_14013)">
<g clip-path="url(#clip0_1122_14013)">
<path fill-rule="evenodd" clip-rule="evenodd" d="M1007.9 460.05C1007.9 462.358 1009.92 464.376 1012.23 464.376C1014.54 464.376 1016.56 462.358 1016.56 460.05C1016.56 457.743 1014.54 455.725 1012.23 455.725C1009.92 455.725 1007.9 457.743 1007.9 460.05Z" fill="#B6EBFF"/>
<path d="M1122.81 195.308C1120.42 195.308 1118.48 193.371 1118.48 190.982C1118.48 188.593 1120.42 186.656 1122.81 186.656C1125.2 186.656 1127.14 188.593 1127.14 190.982C1127.14 193.371 1125.2 195.308 1122.81 195.308Z" fill="#19AABF"/>
<path d="M1158.61 234.817C1156.21 234.817 1154.28 232.881 1154.28 230.491C1154.28 228.102 1156.21 226.166 1158.61 226.166C1161 226.166 1162.94 228.102 1162.94 230.491C1162.94 232.881 1161 234.817 1158.61 234.817Z" fill="#19AABF"/>
<path d="M1326.34 383.05C1323.95 383.05 1322.01 381.113 1322.01 378.724C1322.01 376.335 1323.95 374.398 1326.34 374.398C1328.73 374.398 1330.67 376.335 1330.67 378.724C1330.67 381.113 1328.73 383.05 1326.34 383.05Z" fill="#19AABF"/>
<path d="M1016.56 383.05C1014.17 383.05 1012.23 381.113 1012.23 378.724C1012.23 376.335 1014.17 374.398 1016.56 374.398C1018.96 374.398 1020.9 376.335 1020.9 378.724C1020.9 381.113 1018.96 383.05 1016.56 383.05Z" fill="#B6EBFF"/>
<path d="M1330.67 307.203C1328.28 307.203 1326.34 305.267 1326.34 302.878C1326.34 300.489 1328.28 298.552 1330.67 298.552C1333.07 298.552 1335 300.489 1335 302.878C1335 305.267 1333.07 307.203 1330.67 307.203Z" fill="#19AABF"/>
<path fill-rule="evenodd" clip-rule="evenodd" d="M951.896 477.643C951.896 479.373 953.339 480.815 955.071 480.815C956.804 480.815 958.247 479.373 958.247 477.643C958.247 475.912 956.804 474.47 955.071 474.47C953.339 474.759 951.896 476.201 951.896 477.643Z" fill="#19AABF"/>
<path d="M1373.98 381.897C1372.23 381.897 1370.8 380.477 1370.8 378.725C1370.8 376.973 1372.23 375.552 1373.98 375.552C1375.73 375.552 1377.15 376.973 1377.15 378.725C1377.15 380.477 1375.73 381.897 1373.98 381.897Z" fill="#19AABF"/>
<path fill-rule="evenodd" clip-rule="evenodd" d="M1075.46 432.077C1075.46 433.807 1076.9 435.249 1078.64 435.249C1080.37 435.249 1081.81 433.807 1081.81 432.077C1081.81 430.346 1080.37 428.904 1078.64 428.904C1076.9 429.193 1075.46 430.635 1075.46 432.077Z" fill="#36AAFF"/>
<path fill-rule="evenodd" clip-rule="evenodd" d="M925.334 259.619C925.334 261.349 926.778 262.791 928.51 262.791C930.242 262.791 931.686 261.349 931.686 259.619C931.686 257.889 930.242 256.447 928.51 256.447C926.778 256.447 925.334 257.889 925.334 259.619Z" fill="#19AABF"/>
<path fill-rule="evenodd" clip-rule="evenodd" d="M923.025 388.53C923.025 390.26 924.468 391.702 926.201 391.702C927.933 391.702 929.376 390.26 929.376 388.53C929.376 386.799 927.933 385.357 926.201 385.357C924.18 385.357 923.025 386.799 923.025 388.53Z" fill="#19AABF"/>
<path fill-rule="evenodd" clip-rule="evenodd" d="M1098.56 396.605C1098.56 397.758 1099.42 398.912 1100.87 398.912C1102.31 398.912 1103.18 398.046 1103.18 396.605C1103.18 395.451 1102.31 394.297 1100.87 394.297C1099.42 394.297 1098.56 395.451 1098.56 396.605Z" fill="#36AAFF"/>
<path fill-rule="evenodd" clip-rule="evenodd" d="M1248.39 363.728C1248.39 364.882 1249.26 366.035 1250.7 366.035C1252.15 366.035 1253.01 365.17 1253.01 363.728C1253.01 362.574 1252.15 361.421 1250.7 361.421C1249.26 361.421 1248.39 362.286 1248.39 363.728Z" fill="#19AABF"/>
<path fill-rule="evenodd" clip-rule="evenodd" d="M1406.31 246.353C1406.31 247.507 1407.18 248.66 1408.62 248.66C1409.78 248.66 1410.93 247.795 1410.93 246.353C1410.93 245.199 1410.07 244.046 1408.62 244.046C1407.18 244.334 1406.31 245.199 1406.31 246.353Z" fill="#19AABF"/>
<path fill-rule="evenodd" clip-rule="evenodd" d="M1002.71 443.324C1002.71 444.189 1003.28 444.766 1004.15 444.766C1005.02 444.766 1005.59 444.189 1005.59 443.324C1005.59 442.459 1005.02 441.882 1004.15 441.882C1003.28 441.882 1002.71 442.459 1002.71 443.324Z" fill="#19AABF"/>
<path fill-rule="evenodd" clip-rule="evenodd" d="M1084.99 430.635C1084.99 431.5 1085.56 432.077 1086.43 432.077C1087.3 432.077 1087.87 431.5 1087.87 430.635C1087.87 429.77 1087.3 429.193 1086.43 429.193C1085.85 429.481 1084.99 430.058 1084.99 430.635Z" fill="#36AAFF"/>
<path fill-rule="evenodd" clip-rule="evenodd" d="M1083.83 464.377C1083.83 465.242 1084.41 465.818 1085.28 465.818C1086.14 465.818 1086.72 465.242 1086.72 464.377C1086.72 463.511 1086.14 462.935 1085.28 462.935C1084.41 462.935 1083.83 463.511 1083.83 464.377Z" fill="#36AAFF"/>
<path fill-rule="evenodd" clip-rule="evenodd" d="M1065.36 455.725C1065.36 456.59 1065.93 457.167 1066.8 457.167C1067.67 457.167 1068.24 456.59 1068.24 455.725C1068.24 454.859 1067.67 454.283 1066.8 454.283C1065.93 454.283 1065.36 455.148 1065.36 455.725Z" fill="#36AAFF"/>
<path fill-rule="evenodd" clip-rule="evenodd" d="M1103.75 462.069C1103.75 462.935 1104.33 463.511 1105.2 463.511C1106.06 463.511 1106.64 462.935 1106.64 462.069C1106.64 461.204 1106.06 460.627 1105.2 460.627C1104.33 460.627 1103.75 461.204 1103.75 462.069Z" fill="#36AAFF"/>
<path fill-rule="evenodd" clip-rule="evenodd" d="M990.004 350.751C990.004 351.616 990.581 352.192 991.448 352.192C992.314 352.192 992.891 351.616 992.891 350.751C992.891 349.885 992.314 349.309 991.448 349.309C990.581 349.309 990.004 349.885 990.004 350.751Z" fill="#19AABF"/>
<path d="M1060.74 433.519C1060.42 433.519 1060.16 433.261 1060.16 432.942C1060.16 432.624 1060.42 432.365 1060.74 432.365C1061.05 432.365 1061.31 432.624 1061.31 432.942C1061.31 433.261 1061.05 433.519 1060.74 433.519Z" fill="#19AABF"/>
<path fill-rule="evenodd" clip-rule="evenodd" d="M1246.66 593.287C1246.66 593.864 1246.95 594.152 1247.53 594.152C1248.1 594.152 1248.39 593.864 1248.39 593.287C1248.39 592.71 1248.1 592.422 1247.53 592.422C1246.95 592.422 1246.66 592.71 1246.66 593.287Z" fill="#19AABF"/>
<path fill-rule="evenodd" clip-rule="evenodd" d="M1231.94 433.519C1231.94 433.807 1232.23 434.095 1232.51 434.095C1232.8 434.095 1233.09 433.807 1233.09 433.519C1233.09 433.23 1232.8 432.942 1232.51 432.942C1232.23 432.942 1231.94 433.23 1231.94 433.519Z" fill="#19AABF"/>
<path d="M1395.34 424.002C1395.02 424.002 1394.77 423.743 1394.77 423.425C1394.77 423.106 1395.02 422.848 1395.34 422.848C1395.66 422.848 1395.92 423.106 1395.92 423.425C1395.92 423.743 1395.66 424.002 1395.34 424.002Z" fill="#19AABF"/>
<path d="M1149.95 423.425C1149.63 423.425 1149.37 423.167 1149.37 422.848C1149.37 422.53 1149.63 422.271 1149.95 422.271C1150.26 422.271 1150.52 422.53 1150.52 422.848C1150.52 423.167 1150.26 423.425 1149.95 423.425Z" fill="#19AABF"/>
<path d="M1250.7 430.058C1250.38 430.058 1250.13 429.8 1250.13 429.481C1250.13 429.163 1250.38 428.904 1250.7 428.904C1251.02 428.904 1251.28 429.163 1251.28 429.481C1251.28 429.8 1251.02 430.058 1250.7 430.058Z" fill="#19AABF"/>
<path fill-rule="evenodd" clip-rule="evenodd" d="M1070.84 444.478C1070.84 444.766 1071.13 445.054 1071.42 445.054C1071.71 445.054 1072 444.766 1072 444.478C1072 444.189 1071.71 443.901 1071.42 443.901C1071.13 443.901 1070.84 444.189 1070.84 444.478Z" fill="#36AAFF"/>
<path d="M1207.4 445.92C1207.08 445.92 1206.82 445.661 1206.82 445.343C1206.82 445.024 1207.08 444.766 1207.4 444.766C1207.72 444.766 1207.97 445.024 1207.97 445.343C1207.97 445.661 1207.72 445.92 1207.4 445.92Z" fill="#19AABF"/>
<path fill-rule="evenodd" clip-rule="evenodd" d="M1395.34 447.362C1395.34 447.65 1395.63 447.938 1395.92 447.938C1396.21 447.938 1396.5 447.65 1396.5 447.362C1396.5 447.073 1396.21 446.785 1395.92 446.785C1395.63 446.785 1395.34 447.073 1395.34 447.362Z" fill="#19AABF"/>
<path fill-rule="evenodd" clip-rule="evenodd" d="M1065.36 421.406C1065.36 422.272 1065.93 422.848 1066.8 422.848C1067.67 422.848 1068.24 422.272 1068.24 421.406C1068.24 420.541 1067.67 419.964 1066.8 419.964C1065.93 419.964 1065.36 420.541 1065.36 421.406Z" fill="#36AAFF"/>
<path fill-rule="evenodd" clip-rule="evenodd" d="M1131.18 419.964C1131.18 420.83 1131.76 421.406 1132.62 421.406C1133.49 421.406 1134.07 420.83 1134.07 419.964C1134.07 419.099 1133.49 418.522 1132.62 418.522C1131.76 418.522 1131.18 419.099 1131.18 419.964Z" fill="#36AAFF"/>
<path d="M1404.87 360.844C1404.07 360.844 1403.43 360.199 1403.43 359.402C1403.43 358.606 1404.07 357.96 1404.87 357.96C1405.67 357.96 1406.31 358.606 1406.31 359.402C1406.31 360.199 1405.67 360.844 1404.87 360.844Z" fill="#19AABF"/>
<path fill-rule="evenodd" clip-rule="evenodd" d="M1103.75 248.66C1103.75 249.525 1104.33 250.102 1105.2 250.102C1106.06 250.102 1106.64 249.525 1106.64 248.66C1106.64 247.795 1106.06 247.218 1105.2 247.218C1104.33 247.218 1103.75 247.795 1103.75 248.66Z" fill="#19AABF"/>
<path fill-rule="evenodd" clip-rule="evenodd" d="M1157.45 155.221C1157.45 156.086 1158.03 156.663 1158.9 156.663C1159.76 156.663 1160.34 156.086 1160.34 155.221C1160.34 154.356 1159.76 153.779 1158.9 153.779C1158.03 153.779 1157.45 154.356 1157.45 155.221Z" fill="#19AABF"/>
<path fill-rule="evenodd" clip-rule="evenodd" d="M1178.53 468.414C1178.53 469.279 1179.1 469.856 1179.97 469.856C1180.84 469.856 1181.41 469.279 1181.41 468.414C1181.41 467.549 1180.84 466.972 1179.97 466.972C1179.1 466.972 1178.53 467.549 1178.53 468.414Z" fill="#19AABF"/>
<path d="M1412.09 359.402C1411.29 359.402 1410.64 358.757 1410.64 357.96C1410.64 357.164 1411.29 356.519 1412.09 356.519C1412.88 356.519 1413.53 357.164 1413.53 357.96C1413.53 358.757 1412.88 359.402 1412.09 359.402Z" fill="#19AABF"/>
<path fill-rule="evenodd" clip-rule="evenodd" d="M1434.61 274.615C1434.61 275.48 1435.18 276.057 1436.05 276.057C1436.92 276.057 1437.49 275.48 1437.49 274.615C1437.49 273.75 1436.92 273.173 1436.05 273.173C1435.18 273.173 1434.61 273.75 1434.61 274.615Z" fill="#19AABF"/>
<path d="M1312.49 196.75C1311.69 196.75 1311.04 196.104 1311.04 195.308C1311.04 194.511 1311.69 193.866 1312.49 193.866C1313.28 193.866 1313.93 194.511 1313.93 195.308C1313.93 196.104 1313.28 196.75 1312.49 196.75Z" fill="#19AABF"/>
<path fill-rule="evenodd" clip-rule="evenodd" d="M1191.23 158.106C1191.23 158.971 1191.81 159.547 1192.67 159.547C1193.54 159.547 1194.12 158.971 1194.12 158.106C1194.12 157.24 1193.54 156.664 1192.67 156.664C1191.81 156.664 1191.23 157.24 1191.23 158.106Z" fill="#19AABF"/>
<path fill-rule="evenodd" clip-rule="evenodd" d="M1412.09 271.732C1412.09 272.597 1412.66 273.173 1413.53 273.173C1414.4 273.173 1414.97 272.597 1414.97 271.732C1414.97 270.866 1414.4 270.29 1413.53 270.29C1412.95 270.29 1412.09 270.866 1412.09 271.732Z" fill="#19AABF"/>
<path d="M1286.5 215.495C1285.7 215.495 1285.06 214.85 1285.06 214.053C1285.06 213.257 1285.7 212.611 1286.5 212.611C1287.3 212.611 1287.95 213.257 1287.95 214.053C1287.95 214.85 1287.3 215.495 1286.5 215.495Z" fill="#19AABF"/>
<path fill-rule="evenodd" clip-rule="evenodd" d="M1149.95 352.192C1149.95 353.058 1150.52 353.634 1151.39 353.634C1152.26 353.634 1152.83 353.058 1152.83 352.192C1152.83 351.327 1152.26 350.75 1151.39 350.75C1150.52 350.75 1149.95 351.327 1149.95 352.192Z" fill="#19AABF"/>
<path d="M1389.86 254.428C1389.06 254.428 1388.41 253.782 1388.41 252.986C1388.41 252.19 1389.06 251.544 1389.86 251.544C1390.65 251.544 1391.3 252.19 1391.3 252.986C1391.3 253.782 1390.65 254.428 1389.86 254.428Z" fill="#19AABF"/>
<path fill-rule="evenodd" clip-rule="evenodd" d="M1175.64 286.151C1175.64 287.016 1176.22 287.593 1177.08 287.593C1177.95 287.593 1178.53 287.016 1178.53 286.151C1178.53 285.286 1177.95 284.709 1177.08 284.709C1176.22 284.709 1175.64 285.574 1175.64 286.151Z" fill="#19AABF"/>
<path fill-rule="evenodd" clip-rule="evenodd" d="M1391.59 179.158C1391.59 180.023 1392.17 180.6 1393.03 180.6C1393.9 180.6 1394.48 180.023 1394.48 179.158C1394.48 178.293 1393.9 177.716 1393.03 177.716C1392.17 177.716 1391.59 178.293 1391.59 179.158Z" fill="#19AABF"/>
<path fill-rule="evenodd" clip-rule="evenodd" d="M1077.19 343.829C1077.19 344.694 1077.77 345.271 1078.64 345.271C1079.5 345.271 1080.08 344.694 1080.08 343.829C1080.08 342.964 1079.5 342.387 1078.64 342.387C1077.77 342.387 1077.19 342.964 1077.19 343.829Z" fill="#19AABF"/>
<path fill-rule="evenodd" clip-rule="evenodd" d="M44.5018 413.331C43.6357 412.466 41.9034 412.466 41.0373 413.331C40.1712 414.197 40.1712 415.927 41.0373 416.792C41.9034 417.657 43.6357 417.657 44.5018 416.792C45.3679 415.927 45.3679 414.197 44.5018 413.331Z" fill="#19AABF"/>
<path fill-rule="evenodd" clip-rule="evenodd" d="M925.912 240.008C924.18 238.278 921.582 238.278 919.849 240.008C918.117 241.739 918.117 244.334 919.849 246.064C921.582 247.795 924.18 247.795 925.912 246.064C927.644 244.334 927.644 241.45 925.912 240.008Z" fill="#19AABF"/>
<path fill-rule="evenodd" clip-rule="evenodd" d="M801.481 288.746C799.749 287.016 797.151 287.016 795.418 288.746C793.686 290.477 793.686 293.072 795.418 294.803C797.151 296.533 799.749 296.533 801.481 294.803C803.213 293.072 803.213 290.188 801.481 288.746Z" fill="#19AABF"/>
<path fill-rule="evenodd" clip-rule="evenodd" d="M774.343 175.986C773.188 174.832 771.167 174.832 770.012 175.986C768.858 177.139 768.858 179.158 770.012 180.312C771.167 181.465 773.188 181.465 774.343 180.312C775.498 179.158 775.498 177.139 774.343 175.986Z" fill="#19AABF"/>
<path d="M26.6027 456.013C25.646 456.013 24.8704 455.238 24.8704 454.283C24.8704 453.327 25.646 452.552 26.6027 452.552C27.5595 452.552 28.335 453.327 28.335 454.283C28.335 455.238 27.5595 456.013 26.6027 456.013Z" fill="#19AABF"/>
<path fill-rule="evenodd" clip-rule="evenodd" d="M857.778 218.667C856.623 217.514 854.602 217.514 853.448 218.667C852.293 219.821 852.293 221.84 853.448 222.993C854.602 224.147 856.623 224.147 857.778 222.993C858.933 221.84 859.222 219.821 857.778 218.667Z" fill="#19AABF"/>
<path fill-rule="evenodd" clip-rule="evenodd" d="M33.2427 477.354C32.6653 476.777 31.7992 476.777 31.5105 477.354C30.933 477.931 30.933 478.796 31.5105 479.084C32.0879 479.661 32.954 479.661 33.2427 479.084C33.8201 478.508 33.8201 477.642 33.2427 477.354Z" fill="#19AABF"/>
<path d="M52.8745 419.676C52.3961 419.676 52.0083 419.288 52.0083 418.811C52.0083 418.333 52.3961 417.945 52.8745 417.945C53.3529 417.945 53.7407 418.333 53.7407 418.811C53.7407 419.288 53.3529 419.676 52.8745 419.676Z" fill="#19AABF"/>
<path fill-rule="evenodd" clip-rule="evenodd" d="M24.5818 457.455C24.293 457.167 23.7155 457.167 23.4268 457.455C23.138 457.743 23.138 458.32 23.4268 458.609C23.7155 458.897 24.293 458.897 24.5818 458.609C24.8705 458.32 24.8705 457.743 24.5818 457.455Z" fill="#19AABF"/>
<path fill-rule="evenodd" clip-rule="evenodd" d="M11.0127 443.036C10.724 442.747 10.1466 442.747 9.8579 443.036C9.56918 443.324 9.56918 443.901 9.8579 444.189C10.1466 444.478 10.724 444.478 11.0127 444.189C11.5902 443.901 11.5902 443.324 11.0127 443.036Z" fill="#19AABF"/>
<path fill-rule="evenodd" clip-rule="evenodd" d="M22.2718 438.71C21.9831 438.422 21.4056 438.422 21.1169 438.71C20.8282 438.998 20.8282 439.575 21.1169 439.863C21.4056 440.152 21.9831 440.152 22.2718 439.863C22.5605 439.575 22.5605 439.287 22.2718 438.71Z" fill="#19AABF"/>
<path fill-rule="evenodd" clip-rule="evenodd" d="M837.28 292.784C836.703 292.207 835.837 292.207 835.259 292.784C834.682 293.361 834.682 294.226 835.259 294.803C835.837 295.38 836.703 295.38 837.28 294.803C837.858 294.226 837.858 293.361 837.28 292.784Z" fill="#19AABF"/>
<path d="M33.8199 446.785C33.6605 446.785 33.5312 446.656 33.5312 446.496C33.5312 446.337 33.6605 446.208 33.8199 446.208C33.9793 446.208 34.1084 446.337 34.1084 446.496C34.1084 446.656 33.9793 446.785 33.8199 446.785Z" fill="#19AABF"/>
<path fill-rule="evenodd" clip-rule="evenodd" d="M1.19661 487.448C0.907977 487.159 0.907941 487.159 0.619308 487.448C0.330674 487.736 0.330674 487.736 0.619308 488.025C0.907941 488.313 0.907977 488.313 1.19661 488.025C1.48524 487.736 1.48524 487.448 1.19661 487.448Z" fill="#19AABF"/>
<path d="M914.075 165.315C913.756 165.315 913.498 165.057 913.498 164.738C913.498 164.42 913.756 164.162 914.075 164.162C914.394 164.162 914.653 164.42 914.653 164.738C914.653 165.057 914.394 165.315 914.075 165.315Z" fill="#19AABF"/>
<path d="M24.5815 446.208C24.4221 446.208 24.293 446.079 24.293 445.919C24.293 445.76 24.4221 445.631 24.5815 445.631C24.741 445.631 24.8701 445.76 24.8701 445.919C24.8701 446.079 24.741 446.208 24.5815 446.208Z" fill="#19AABF"/>
<path fill-rule="evenodd" clip-rule="evenodd" d="M36.7073 453.129C36.4186 452.841 35.8412 452.841 35.5525 453.129C35.2638 453.418 35.2638 453.995 35.5525 454.283C35.8412 454.571 36.4186 454.571 36.7073 454.283C36.996 453.995 36.996 453.418 36.7073 453.129Z" fill="#19AABF"/>
<path fill-rule="evenodd" clip-rule="evenodd" d="M9.85773 481.103C9.56908 480.815 8.99171 480.815 8.70306 481.103C8.41441 481.391 8.41441 481.968 8.70306 482.257C8.99171 482.545 9.56908 482.545 9.85773 482.257C10.1464 481.968 10.1464 481.391 9.85773 481.103Z" fill="#19AABF"/>
<path d="M972.104 167.622C971.307 167.622 970.661 166.977 970.661 166.18C970.661 165.384 971.307 164.738 972.104 164.738C972.902 164.738 973.548 165.384 973.548 166.18C973.548 166.977 972.902 167.622 972.104 167.622Z" fill="#19AABF"/>
<path d="M29.7783 518.594C29.2999 518.594 28.9121 518.207 28.9121 517.729C28.9121 517.251 29.2999 516.864 29.7783 516.864C30.2567 516.864 30.6445 517.251 30.6445 517.729C30.6445 518.207 30.2567 518.594 29.7783 518.594Z" fill="#19AABF"/>
<path fill-rule="evenodd" clip-rule="evenodd" d="M780.406 359.114C779.828 358.537 778.962 358.537 778.385 359.114C777.808 359.691 777.808 360.556 778.385 361.132C778.962 361.709 779.828 361.709 780.406 361.132C780.983 360.556 780.983 359.691 780.406 359.114Z" fill="#19AABF"/>
<path d="M8.12552 456.878C7.16881 456.878 6.39331 456.104 6.39331 455.148C6.39331 454.192 7.16881 453.417 8.12552 453.417C9.08224 453.417 9.85791 454.192 9.85791 455.148C9.85791 456.104 9.08224 456.878 8.12552 456.878Z" fill="#19AABF"/>
<path fill-rule="evenodd" clip-rule="evenodd" d="M49.1214 563.583C48.544 563.006 47.678 563.006 47.3893 563.583C46.812 564.16 46.812 565.025 47.3893 565.313C47.9667 565.89 48.8327 565.89 49.1214 565.313C49.4101 565.025 49.4101 564.16 49.1214 563.583Z" fill="#19AABF"/>
<path fill-rule="evenodd" clip-rule="evenodd" d="M825.443 252.121C824.866 251.544 824 251.544 823.422 252.121C822.845 252.698 822.845 253.563 823.422 254.14C824 254.717 824.866 254.717 825.443 254.14C826.021 253.563 826.021 252.698 825.443 252.121Z" fill="#19AABF"/>
<path fill-rule="evenodd" clip-rule="evenodd" d="M992.602 242.027C992.025 241.451 991.159 241.451 990.581 242.027C990.004 242.604 990.004 243.469 990.581 244.046C991.159 244.623 992.025 244.623 992.602 244.046C992.891 243.469 992.891 242.604 992.602 242.027Z" fill="#19AABF"/>
<path d="M0.0419922 506.482C-0.117422 506.482 -0.246582 506.352 -0.246582 506.193C-0.246582 506.034 -0.117422 505.905 0.0419922 505.905C0.201406 505.905 0.330566 506.034 0.330566 506.193C0.330566 506.352 0.201406 506.482 0.0419922 506.482Z" fill="#19AABF"/>
<path fill-rule="evenodd" clip-rule="evenodd" d="M782.138 245.776C781.849 245.488 781.272 245.488 780.983 245.776C780.694 246.065 780.694 246.642 780.983 246.93C781.272 247.218 781.849 247.218 782.138 246.93C782.427 246.642 782.427 246.065 782.138 245.776Z" fill="#19AABF"/>
<path d="M944.389 419.676C944.07 419.676 943.812 419.418 943.812 419.099C943.812 418.781 944.07 418.522 944.389 418.522C944.708 418.522 944.966 418.781 944.966 419.099C944.966 419.418 944.708 419.676 944.389 419.676Z" fill="#19AABF"/>
<path d="M957.958 282.402C957.161 282.402 956.514 281.756 956.514 280.96C956.514 280.164 957.161 279.518 957.958 279.518C958.755 279.518 959.401 280.164 959.401 280.96C959.401 281.756 958.755 282.402 957.958 282.402Z" fill="#19AABF"/>
<path fill-rule="evenodd" clip-rule="evenodd" d="M935.15 232.222C933.996 231.068 931.975 231.068 930.82 232.222C929.665 233.375 929.665 235.394 930.82 236.547C931.975 237.701 933.996 237.701 935.15 236.547C936.305 235.394 936.305 233.375 935.15 232.222Z" fill="#19AABF"/>
<path fill-rule="evenodd" clip-rule="evenodd" d="M906.569 215.207C905.991 214.63 905.125 214.63 904.548 215.207C903.971 215.784 903.971 216.649 904.548 217.226C905.125 217.803 905.991 217.803 906.569 217.226C907.146 216.649 907.146 215.784 906.569 215.207Z" fill="#19AABF"/>
<path fill-rule="evenodd" clip-rule="evenodd" d="M925.624 208.286C925.046 207.709 924.18 207.709 923.603 208.286C923.025 208.862 923.025 209.728 923.603 210.304C924.18 210.881 925.046 210.881 925.624 210.304C926.201 209.728 926.201 208.862 925.624 208.286Z" fill="#19AABF"/>
<path d="M944.967 221.84C944.648 221.84 944.389 221.581 944.389 221.263C944.389 220.944 944.648 220.686 944.967 220.686C945.285 220.686 945.544 220.944 945.544 221.263C945.544 221.581 945.285 221.84 944.967 221.84Z" fill="#19AABF"/>
<path fill-rule="evenodd" clip-rule="evenodd" d="M929.665 220.109C929.377 219.821 928.799 219.821 928.51 220.109C928.222 220.398 928.222 220.975 928.51 221.263C928.799 221.551 929.377 221.551 929.665 221.263C929.954 220.975 929.954 220.398 929.665 220.109Z" fill="#19AABF"/>
<path d="M949.009 235.106C948.211 235.106 947.565 234.46 947.565 233.664C947.565 232.867 948.211 232.222 949.009 232.222C949.806 232.222 950.452 232.867 950.452 233.664C950.452 234.46 949.806 235.106 949.009 235.106Z" fill="#19AABF"/>
<path fill-rule="evenodd" clip-rule="evenodd" d="M858.933 402.084C857.778 400.93 855.757 400.93 854.602 402.084C853.447 403.237 853.447 405.256 854.602 406.41C855.757 407.563 857.778 407.563 858.933 406.41C860.088 405.256 860.088 403.237 858.933 402.084Z" fill="#19AABF"/>
<path d="M852.582 314.99C850.828 314.99 849.406 313.57 849.406 311.818C849.406 310.066 850.828 308.646 852.582 308.646C854.335 308.646 855.757 310.066 855.757 311.818C855.757 313.57 854.335 314.99 852.582 314.99Z" fill="#19AABF"/>
<path d="M1373.98 413.62C1372.23 413.62 1370.8 412.199 1370.8 410.447C1370.8 408.695 1372.23 407.275 1373.98 407.275C1375.73 407.275 1377.15 408.695 1377.15 410.447C1377.15 412.199 1375.73 413.62 1373.98 413.62Z" fill="#19AABF"/>
<path fill-rule="evenodd" clip-rule="evenodd" d="M867.883 443.612C867.017 442.747 865.573 442.747 864.707 443.612C863.841 444.477 863.841 445.919 864.707 446.785C865.573 447.65 867.017 447.65 867.883 446.785C868.749 445.919 868.749 444.477 867.883 443.612Z" fill="#19AABF"/>
<path fill-rule="evenodd" clip-rule="evenodd" d="M853.159 409.871C852.581 409.294 851.715 409.294 851.138 409.871C850.56 410.447 850.56 411.313 851.138 411.889C851.715 412.466 852.581 412.466 853.159 411.889C853.736 411.313 853.736 410.447 853.159 409.871Z" fill="#19AABF"/>
<path fill-rule="evenodd" clip-rule="evenodd" d="M830.351 385.069C829.774 384.492 828.908 384.492 828.33 385.069C827.753 385.646 827.753 386.511 828.33 387.088C828.908 387.664 829.774 387.664 830.351 387.088C830.929 386.511 830.929 385.646 830.351 385.069Z" fill="#19AABF"/>
<path d="M802.925 302.301C802.127 302.301 801.481 301.655 801.481 300.859C801.481 300.063 802.127 299.417 802.925 299.417C803.722 299.417 804.368 300.063 804.368 300.859C804.368 301.655 803.722 302.301 802.925 302.301Z" fill="#19AABF"/>
<path fill-rule="evenodd" clip-rule="evenodd" d="M849.406 378.147C848.828 377.571 847.962 377.571 847.385 378.147C846.807 378.724 846.807 379.589 847.385 380.166C847.962 380.743 848.828 380.743 849.406 380.166C849.983 379.589 849.983 378.724 849.406 378.147Z" fill="#19AABF"/>
<path d="M869.038 391.702C868.719 391.702 868.46 391.444 868.46 391.125C868.46 390.807 868.719 390.548 869.038 390.548C869.357 390.548 869.615 390.807 869.615 391.125C869.615 391.444 869.357 391.702 869.038 391.702Z" fill="#19AABF"/>
<path fill-rule="evenodd" clip-rule="evenodd" d="M897.042 449.668C896.753 449.38 896.176 449.38 895.887 449.668C895.598 449.957 895.598 450.534 895.887 450.822C896.176 451.11 896.753 451.11 897.042 450.822C897.33 450.245 897.33 449.957 897.042 449.668Z" fill="#19AABF"/>
<path d="M813.029 462.07C812.71 462.07 812.452 461.811 812.452 461.493C812.452 461.174 812.71 460.916 813.029 460.916C813.348 460.916 813.606 461.174 813.606 461.493C813.606 461.811 813.348 462.07 813.029 462.07Z" fill="#19AABF"/>
<path d="M853.159 391.125C852.84 391.125 852.582 390.867 852.582 390.548C852.582 390.23 852.84 389.972 853.159 389.972C853.478 389.972 853.736 390.23 853.736 390.548C853.736 390.867 853.478 391.125 853.159 391.125Z" fill="#19AABF"/>
<path d="M872.791 404.968C871.993 404.968 871.347 404.322 871.347 403.526C871.347 402.73 871.993 402.084 872.791 402.084C873.588 402.084 874.234 402.73 874.234 403.526C874.234 404.322 873.588 404.968 872.791 404.968Z" fill="#19AABF"/>
<path d="M970.661 404.103C969.864 404.103 969.217 403.457 969.217 402.661C969.217 401.864 969.864 401.219 970.661 401.219C971.458 401.219 972.104 401.864 972.104 402.661C972.104 403.457 971.458 404.103 970.661 404.103Z" fill="#19AABF"/>
<path fill-rule="evenodd" clip-rule="evenodd" d="M828.331 449.957C827.753 449.38 826.887 449.38 826.31 449.957C825.732 450.534 825.732 451.399 826.31 451.976C826.887 452.552 827.753 452.552 828.331 451.976C828.908 451.399 828.908 450.534 828.331 449.957Z" fill="#19AABF"/>
<path fill-rule="evenodd" clip-rule="evenodd" d="M1058.72 617.801C1058.72 620.396 1060.74 622.415 1063.33 622.415C1065.93 622.415 1067.95 620.396 1067.95 617.801C1067.95 615.205 1065.93 613.187 1063.33 613.187C1060.74 613.187 1058.72 615.494 1058.72 617.801Z" fill="#19AABF"/>
<path d="M1178.24 342.387C1175.69 342.387 1173.62 340.321 1173.62 337.773C1173.62 335.225 1175.69 333.159 1178.24 333.159C1180.79 333.159 1182.86 335.225 1182.86 337.773C1182.86 340.321 1180.79 342.387 1178.24 342.387Z" fill="#19AABF"/>
<path fill-rule="evenodd" clip-rule="evenodd" d="M1211.15 379.013C1211.15 381.608 1213.17 383.627 1215.77 383.627C1218.37 383.627 1220.39 381.608 1220.39 379.013C1220.39 376.417 1218.37 374.398 1215.77 374.398C1213.17 374.398 1211.15 376.417 1211.15 379.013Z" fill="#19AABF"/>
<path d="M1390.15 537.916C1387.6 537.916 1385.53 535.85 1385.53 533.302C1385.53 530.753 1387.6 528.688 1390.15 528.688C1392.7 528.688 1394.77 530.753 1394.77 533.302C1394.77 535.85 1392.7 537.916 1390.15 537.916Z" fill="#B6EBFF"/>
<path d="M1067.66 537.916C1065.11 537.916 1063.05 535.85 1063.05 533.302C1063.05 530.753 1065.11 528.688 1067.66 528.688C1070.22 528.688 1072.28 530.753 1072.28 533.302C1072.28 535.85 1070.22 537.916 1067.66 537.916Z" fill="#19AABF"/>
<path fill-rule="evenodd" clip-rule="evenodd" d="M1390.15 454.283C1390.15 456.878 1392.17 458.897 1394.77 458.897C1397.36 458.897 1399.38 456.878 1399.38 454.283C1399.38 451.687 1397.36 449.668 1394.77 449.668C1392.17 449.957 1390.15 451.976 1390.15 454.283Z" fill="#19AABF"/>
<path fill-rule="evenodd" clip-rule="evenodd" d="M1000.4 636.257C1000.4 637.988 1001.84 639.43 1003.57 639.43C1005.31 639.43 1006.75 637.988 1006.75 636.257C1006.75 634.527 1005.31 633.085 1003.57 633.085C1001.84 633.085 1000.4 634.527 1000.4 636.257Z" fill="#19AABF"/>
<path fill-rule="evenodd" clip-rule="evenodd" d="M1436.63 533.302C1436.63 535.032 1438.07 536.474 1439.8 536.474C1441.54 536.474 1442.98 535.032 1442.98 533.302C1442.98 531.572 1441.54 530.13 1439.8 530.13C1438.07 530.13 1436.63 531.572 1436.63 533.302Z" fill="#19AABF"/>
<path fill-rule="evenodd" clip-rule="evenodd" d="M1129.16 588.961C1129.16 590.692 1130.6 592.134 1132.33 592.134C1134.07 592.134 1135.51 590.692 1135.51 588.961C1135.51 587.231 1134.07 585.789 1132.33 585.789C1130.6 585.789 1129.16 587.231 1129.16 588.961Z" fill="#19AABF"/>
<path d="M975.857 412.466C974.103 412.466 972.682 411.046 972.682 409.294C972.682 407.542 974.103 406.122 975.857 406.122C977.611 406.122 979.033 407.542 979.033 409.294C979.033 411.046 977.611 412.466 975.857 412.466Z" fill="#19AABF"/>
<path fill-rule="evenodd" clip-rule="evenodd" d="M970.372 543.395C970.372 545.126 971.816 546.568 973.548 546.568C975.28 546.568 976.724 545.126 976.724 543.395C976.724 541.665 975.28 540.223 973.548 540.223C971.816 540.223 970.372 541.665 970.372 543.395Z" fill="#19AABF"/>
<path d="M1155.43 554.066C1154.16 554.066 1153.12 553.033 1153.12 551.759C1153.12 550.485 1154.16 549.452 1155.43 549.452C1156.71 549.452 1157.74 550.485 1157.74 551.759C1157.74 553.033 1156.71 554.066 1155.43 554.066Z" fill="#19AABF"/>
<path d="M1311.33 519.748C1310.05 519.748 1309.02 518.715 1309.02 517.44C1309.02 516.166 1310.05 515.133 1311.33 515.133C1312.61 515.133 1313.64 516.166 1313.64 517.44C1313.64 518.715 1312.61 519.748 1311.33 519.748Z" fill="#19AABF"/>
<path d="M1054.96 601.651C1054.17 601.651 1053.52 601.005 1053.52 600.209C1053.52 599.412 1054.17 598.767 1054.96 598.767C1055.76 598.767 1056.41 599.412 1056.41 600.209C1056.41 601.005 1055.76 601.651 1054.96 601.651Z" fill="#19AABF"/>
<path d="M1140.71 588.961C1139.91 588.961 1139.26 588.316 1139.26 587.52C1139.26 586.723 1139.91 586.078 1140.71 586.078C1141.5 586.078 1142.15 586.723 1142.15 587.52C1142.15 588.316 1141.5 588.961 1140.71 588.961Z" fill="#19AABF"/>
<path d="M1139.26 623.857C1138.47 623.857 1137.82 623.211 1137.82 622.415C1137.82 621.618 1138.47 620.973 1139.26 620.973C1140.06 620.973 1140.71 621.618 1140.71 622.415C1140.71 623.211 1140.06 623.857 1139.26 623.857Z" fill="#19AABF"/>
<path d="M1119.92 614.917C1119.12 614.917 1118.48 614.271 1118.48 613.475C1118.48 612.678 1119.12 612.033 1119.92 612.033C1120.72 612.033 1121.36 612.678 1121.36 613.475C1121.36 614.271 1120.72 614.917 1119.92 614.917Z" fill="#19AABF"/>
<path d="M1159.76 621.549C1158.96 621.549 1158.32 620.904 1158.32 620.107C1158.32 619.311 1158.96 618.666 1159.76 618.666C1160.56 618.666 1161.21 619.311 1161.21 620.107C1161.21 620.904 1160.56 621.549 1159.76 621.549Z" fill="#19AABF"/>
<path d="M1041.68 505.616C1040.88 505.616 1040.24 504.971 1040.24 504.174C1040.24 503.378 1040.88 502.732 1041.68 502.732C1042.48 502.732 1043.13 503.378 1043.13 504.174C1043.13 504.971 1042.48 505.616 1041.68 505.616Z" fill="#19AABF"/>
<path d="M1113.57 590.403C1113.09 590.403 1112.7 590.016 1112.7 589.538C1112.7 589.06 1113.09 588.673 1113.57 588.673C1114.05 588.673 1114.44 589.06 1114.44 589.538C1114.44 590.016 1114.05 590.403 1113.57 590.403Z" fill="#19AABF"/>
<path d="M1292.56 591.268C1292.09 591.268 1291.7 590.881 1291.7 590.403C1291.7 589.925 1292.09 589.538 1292.56 589.538C1293.04 589.538 1293.43 589.925 1293.43 590.403C1293.43 590.881 1293.04 591.268 1292.56 591.268Z" fill="#19AABF"/>
<path d="M1206.53 580.021C1206.05 580.021 1205.67 579.634 1205.67 579.156C1205.67 578.678 1206.05 578.291 1206.53 578.291C1207.01 578.291 1207.4 578.678 1207.4 579.156C1207.4 579.634 1207.01 580.021 1206.53 580.021Z" fill="#19AABF"/>
<path d="M1311.33 586.654C1310.85 586.654 1310.46 586.267 1310.46 585.789C1310.46 585.311 1310.85 584.924 1311.33 584.924C1311.81 584.924 1312.2 585.311 1312.2 585.789C1312.2 586.267 1311.81 586.654 1311.33 586.654Z" fill="#19AABF"/>
<path d="M1124.83 602.804C1124.35 602.804 1123.96 602.417 1123.96 601.939C1123.96 601.461 1124.35 601.074 1124.83 601.074C1125.31 601.074 1125.69 601.461 1125.69 601.939C1125.69 602.417 1125.31 602.804 1124.83 602.804Z" fill="#19AABF"/>
<path d="M1266.29 603.381C1265.81 603.381 1265.43 602.993 1265.43 602.516C1265.43 602.038 1265.81 601.65 1266.29 601.65C1266.77 601.65 1267.16 602.038 1267.16 602.516C1267.16 602.993 1266.77 603.381 1266.29 603.381Z" fill="#19AABF"/>
<path d="M1119.92 579.156C1119.12 579.156 1118.48 578.511 1118.48 577.714C1118.48 576.918 1119.12 576.272 1119.92 576.272C1120.72 576.272 1121.36 576.918 1121.36 577.714C1121.36 578.511 1120.72 579.156 1119.92 579.156Z" fill="#19AABF"/>
<path d="M1188.63 577.714C1187.83 577.714 1187.19 577.068 1187.19 576.272C1187.19 575.476 1187.83 574.83 1188.63 574.83C1189.43 574.83 1190.08 575.476 1190.08 576.272C1190.08 577.068 1189.43 577.714 1188.63 577.714Z" fill="#19AABF"/>
<path d="M1159.76 399.2C1158.96 399.2 1158.32 398.555 1158.32 397.758C1158.32 396.962 1158.96 396.316 1159.76 396.316C1160.56 396.316 1161.21 396.962 1161.21 397.758C1161.21 398.555 1160.56 399.2 1159.76 399.2Z" fill="#19AABF"/>
<path d="M1216.06 302.012C1215.26 302.012 1214.61 301.367 1214.61 300.57C1214.61 299.774 1215.26 299.128 1216.06 299.128C1216.86 299.128 1217.5 299.774 1217.5 300.57C1217.5 301.367 1216.86 302.012 1216.06 302.012Z" fill="#19AABF"/>
<path d="M1238 627.894C1237.2 627.894 1236.56 627.249 1236.56 626.452C1236.56 625.656 1237.2 625.01 1238 625.01C1238.8 625.01 1239.44 625.656 1239.44 626.452C1239.44 627.249 1238.8 627.894 1238 627.894Z" fill="#19AABF"/>
<path d="M1375.71 343.829C1374.91 343.829 1374.27 343.184 1374.27 342.387C1374.27 341.591 1374.91 340.945 1375.71 340.945C1376.51 340.945 1377.15 341.591 1377.15 342.387C1377.15 343.184 1376.51 343.829 1375.71 343.829Z" fill="#19AABF"/>
<path d="M1250.99 304.897C1250.19 304.897 1249.55 304.251 1249.55 303.455C1249.55 302.658 1250.19 302.013 1250.99 302.013C1251.79 302.013 1252.44 302.658 1252.44 303.455C1252.44 304.251 1251.79 304.897 1250.99 304.897Z" fill="#19AABF"/>
<path d="M1348.86 363.44C1348.06 363.44 1347.42 362.794 1347.42 361.998C1347.42 361.201 1348.06 360.556 1348.86 360.556C1349.66 360.556 1350.31 361.201 1350.31 361.998C1350.31 362.794 1349.66 363.44 1348.86 363.44Z" fill="#19AABF"/>
<path d="M1207.97 507.058C1207.18 507.058 1206.53 506.413 1206.53 505.616C1206.53 504.82 1207.18 504.174 1207.97 504.174C1208.77 504.174 1209.42 504.82 1209.42 505.616C1209.42 506.413 1208.77 507.058 1207.97 507.058Z" fill="#19AABF"/>
<path d="M1234.82 438.421C1234.03 438.421 1233.38 437.776 1233.38 436.98C1233.38 436.183 1234.03 435.538 1234.82 435.538C1235.62 435.538 1236.27 436.183 1236.27 436.98C1236.27 437.776 1235.62 438.421 1234.82 438.421Z" fill="#19AABF"/>
<path d="M1132.33 498.407C1131.54 498.407 1130.89 497.761 1130.89 496.965C1130.89 496.169 1131.54 495.523 1132.33 495.523C1133.13 495.523 1133.78 496.169 1133.78 496.965C1133.78 497.761 1133.13 498.407 1132.33 498.407Z" fill="#19AABF"/>
<path fill-rule="evenodd" clip-rule="evenodd" d="M787.335 376.417C785.602 374.687 782.715 374.687 780.983 376.417C779.251 378.148 779.251 381.032 780.983 382.762C782.715 384.492 785.602 384.492 787.335 382.762C789.067 381.032 789.067 378.148 787.335 376.417Z" fill="#19AABF"/>
<path fill-rule="evenodd" clip-rule="evenodd" d="M973.548 388.818C971.816 387.088 968.929 387.088 967.197 388.818C965.465 390.549 965.465 393.432 967.197 395.163C968.929 396.893 971.816 396.893 973.548 395.163C975.28 393.432 975.28 390.549 973.548 388.818Z" fill="#19AABF"/>
<path fill-rule="evenodd" clip-rule="evenodd" d="M843.92 439.575C842.188 437.845 839.301 437.845 837.569 439.575C835.837 441.305 835.837 444.189 837.569 445.92C839.301 447.65 842.188 447.65 843.92 445.92C845.941 443.901 845.941 441.305 843.92 439.575Z" fill="#19AABF"/>
<path d="M813.318 327.679C811.564 327.679 810.142 326.259 810.142 324.507C810.142 322.755 811.564 321.334 813.318 321.334C815.072 321.334 816.494 322.755 816.494 324.507C816.494 326.259 815.072 327.679 813.318 327.679Z" fill="#19AABF"/>
<path d="M755.866 451.975C754.112 451.975 752.691 450.555 752.691 448.803C752.691 447.051 754.112 445.631 755.866 445.631C757.62 445.631 759.042 447.051 759.042 448.803C759.042 450.555 757.62 451.975 755.866 451.975Z" fill="#19AABF"/>
<path d="M900.506 372.092C898.752 372.092 897.33 370.671 897.33 368.919C897.33 367.167 898.752 365.747 900.506 365.747C902.26 365.747 903.682 367.167 903.682 368.919C903.682 370.671 902.26 372.092 900.506 372.092Z" fill="#19AABF"/>
<path d="M765.682 493.792C764.407 493.792 763.372 492.76 763.372 491.485C763.372 490.211 764.407 489.178 765.682 489.178C766.958 489.178 767.992 490.211 767.992 491.485C767.992 492.76 766.958 493.792 765.682 493.792Z" fill="#19AABF"/>
<path fill-rule="evenodd" clip-rule="evenodd" d="M803.502 385.069C802.925 384.492 802.059 384.492 801.481 385.069C800.904 385.646 800.904 386.511 801.481 387.088C802.059 387.664 802.925 387.664 803.502 387.088C804.079 386.511 804.079 385.646 803.502 385.069Z" fill="#19AABF"/>
<path fill-rule="evenodd" clip-rule="evenodd" d="M752.113 454.86C751.535 454.283 750.669 454.283 750.092 454.86C749.514 455.437 749.514 456.302 750.092 456.879C750.669 457.455 751.535 457.455 752.113 456.879C752.69 456.302 752.69 455.437 752.113 454.86Z" fill="#19AABF"/>
<path fill-rule="evenodd" clip-rule="evenodd" d="M728.439 428.904C727.862 428.327 726.996 428.327 726.418 428.904C725.841 429.481 725.841 430.346 726.418 430.923C726.996 431.5 727.862 431.5 728.439 430.923C729.016 430.635 729.016 429.481 728.439 428.904Z" fill="#19AABF"/>
<path d="M747.205 424.29C746.408 424.29 745.761 423.645 745.761 422.848C745.761 422.052 746.408 421.406 747.205 421.406C748.002 421.406 748.648 422.052 748.648 422.848C748.648 423.645 748.002 424.29 747.205 424.29Z" fill="#19AABF"/>
<path d="M880.008 446.208C879.211 446.208 878.565 445.563 878.565 444.766C878.565 443.97 879.211 443.324 880.008 443.324C880.805 443.324 881.452 443.97 881.452 444.766C881.452 445.563 880.805 446.208 880.008 446.208Z" fill="#19AABF"/>
<path d="M768.569 436.114C768.091 436.114 767.703 435.727 767.703 435.249C767.703 434.771 768.091 434.384 768.569 434.384C769.047 434.384 769.435 434.771 769.435 435.249C769.435 435.727 769.047 436.114 768.569 436.114Z" fill="#19AABF"/>
<path d="M710.251 509.077C709.773 509.077 709.385 508.69 709.385 508.212C709.385 507.734 709.773 507.347 710.251 507.347C710.729 507.347 711.117 507.734 711.117 508.212C711.117 508.69 710.729 509.077 710.251 509.077Z" fill="#19AABF"/>
<path fill-rule="evenodd" clip-rule="evenodd" d="M961.423 309.799C961.134 309.51 960.557 309.51 960.268 309.799C959.979 310.087 959.979 310.664 960.268 310.952C960.557 311.241 961.134 311.241 961.423 310.952C961.711 310.664 961.711 310.087 961.423 309.799Z" fill="#19AABF"/>
<path d="M752.113 435.538C751.635 435.538 751.247 435.15 751.247 434.672C751.247 434.194 751.635 433.807 752.113 433.807C752.591 433.807 752.979 434.194 752.979 434.672C752.979 435.15 752.591 435.538 752.113 435.538Z" fill="#19AABF"/>
<path d="M772.611 449.669C771.814 449.669 771.167 449.023 771.167 448.227C771.167 447.43 771.814 446.785 772.611 446.785C773.408 446.785 774.055 447.43 774.055 448.227C774.055 449.023 773.408 449.669 772.611 449.669Z" fill="#19AABF"/>
<path fill-rule="evenodd" clip-rule="evenodd" d="M726.129 496.676C725.552 496.099 724.686 496.099 724.109 496.676C723.531 497.253 723.531 498.118 724.109 498.695C724.686 499.272 725.552 499.272 726.129 498.695C726.707 498.118 726.707 497.253 726.129 496.676Z" fill="#19AABF"/>
<path fill-rule="evenodd" clip-rule="evenodd" d="M1022.63 310.953C1022.05 310.376 1021.18 310.376 1020.61 310.953C1020.03 311.529 1020.03 312.395 1020.61 312.971C1021.18 313.548 1022.05 313.548 1022.63 312.971C1023.2 312.395 1023.2 311.529 1022.63 310.953Z" fill="#19AABF"/>
<path fill-rule="evenodd" clip-rule="evenodd" d="M762.217 560.411C761.64 559.834 760.774 559.834 760.196 560.411C759.619 560.987 759.619 561.853 760.196 562.429C760.774 563.006 761.64 563.006 762.217 562.429C762.795 561.853 762.795 560.987 762.217 560.411Z" fill="#19AABF"/>
<path d="M820.824 515.422C820.027 515.422 819.381 514.776 819.381 513.98C819.381 513.183 820.027 512.538 820.824 512.538C821.621 512.538 822.268 513.183 822.268 513.98C822.268 514.776 821.621 515.422 820.824 515.422Z" fill="#19AABF"/>
<path fill-rule="evenodd" clip-rule="evenodd" d="M609.782 458.032C608.05 456.302 605.163 456.302 603.431 458.032C601.699 459.762 601.699 462.646 603.431 464.377C605.163 466.107 608.05 466.107 609.782 464.377C611.515 462.646 611.515 459.762 609.782 458.032Z" fill="#B6EBFF"/>
<path fill-rule="evenodd" clip-rule="evenodd" d="M391.234 367.766C389.502 366.035 386.615 366.035 384.883 367.766C383.15 369.496 383.15 372.38 384.883 374.11C386.615 375.84 389.502 375.84 391.234 374.11C392.966 372.38 392.966 369.496 391.234 367.766Z" fill="#19AABF"/>
<path d="M515.954 400.931C513.403 400.931 511.335 398.865 511.335 396.316C511.335 393.768 513.403 391.702 515.954 391.702C518.505 391.702 520.573 393.768 520.573 396.316C520.573 398.865 518.505 400.931 515.954 400.931Z" fill="#B6EBFF"/>
<path d="M663.192 528.687C660.641 528.687 658.573 526.622 658.573 524.073C658.573 521.525 660.641 519.459 663.192 519.459C665.743 519.459 667.812 521.525 667.812 524.073C667.812 526.622 665.743 528.687 663.192 528.687Z" fill="#19AABF"/>
<path d="M649.335 575.407C646.784 575.407 644.716 573.341 644.716 570.793C644.716 568.245 646.784 566.179 649.335 566.179C651.886 566.179 653.954 568.245 653.954 570.793C653.954 573.341 651.886 575.407 649.335 575.407Z" fill="#19AABF"/>
<path d="M635.766 409.294C634.012 409.294 632.59 407.874 632.59 406.122C632.59 404.37 634.012 402.949 635.766 402.949C637.52 402.949 638.941 404.37 638.941 406.122C638.941 407.874 637.52 409.294 635.766 409.294Z" fill="#19AABF"/>
<path d="M459.368 327.102C457.614 327.102 456.192 325.682 456.192 323.93C456.192 322.178 457.614 320.758 459.368 320.758C461.122 320.758 462.544 322.178 462.544 323.93C462.544 325.682 461.122 327.102 459.368 327.102Z" fill="#19AABF"/>
<path d="M484.774 351.616C483.02 351.616 481.598 350.195 481.598 348.443C481.598 346.691 483.02 345.271 484.774 345.271C486.528 345.271 487.95 346.691 487.95 348.443C487.95 350.195 486.528 351.616 484.774 351.616Z" fill="#19AABF"/>
<path d="M578.314 533.59C576.56 533.59 575.138 532.17 575.138 530.418C575.138 528.666 576.56 527.246 578.314 527.246C580.068 527.246 581.49 528.666 581.49 530.418C581.49 532.17 580.068 533.59 578.314 533.59Z" fill="#19AABF"/>
<path d="M722.954 453.706C721.2 453.706 719.778 452.286 719.778 450.534C719.778 448.782 721.2 447.361 722.954 447.361C724.708 447.361 726.13 448.782 726.13 450.534C726.13 452.286 724.708 453.706 722.954 453.706Z" fill="#19AABF"/>
<path d="M588.13 575.407C586.854 575.407 585.82 574.374 585.82 573.1C585.82 571.826 586.854 570.793 588.13 570.793C589.405 570.793 590.439 571.826 590.439 573.1C590.439 574.374 589.405 575.407 588.13 575.407Z" fill="#19AABF"/>
<path fill-rule="evenodd" clip-rule="evenodd" d="M571.385 616.935C570.519 616.07 569.075 616.07 568.209 616.935C567.343 617.8 567.343 619.242 568.209 620.107C569.075 620.973 570.519 620.973 571.385 620.107C572.251 619.242 572.251 617.8 571.385 616.935Z" fill="#19AABF"/>
<path d="M658.862 561.276C657.587 561.276 656.553 560.243 656.553 558.969C656.553 557.695 657.587 556.662 658.862 556.662C660.138 556.662 661.172 557.695 661.172 558.969C661.172 560.243 660.138 561.276 658.862 561.276Z" fill="#19AABF"/>
<path fill-rule="evenodd" clip-rule="evenodd" d="M795.418 642.891C794.552 642.025 793.109 642.025 792.243 642.891C791.376 643.756 791.376 645.198 792.243 646.063C793.109 646.928 794.552 646.928 795.418 646.063C796.284 645.198 796.284 643.756 795.418 642.891Z" fill="#19AABF"/>
<path fill-rule="evenodd" clip-rule="evenodd" d="M625.95 466.684C625.372 466.107 624.506 466.107 623.929 466.684C623.351 467.26 623.351 468.125 623.929 468.702C624.506 469.279 625.372 469.279 625.95 468.702C626.527 468.125 626.527 467.26 625.95 466.684Z" fill="#19AABF"/>
<path d="M573.406 538.781C572.608 538.781 571.962 538.136 571.962 537.339C571.962 536.543 572.608 535.897 573.406 535.897C574.203 535.897 574.849 536.543 574.849 537.339C574.849 538.136 574.203 538.781 573.406 538.781Z" fill="#19AABF"/>
<path d="M648.18 558.104C647.383 558.104 646.737 557.458 646.737 556.662C646.737 555.865 647.383 555.22 648.18 555.22C648.977 555.22 649.624 555.865 649.624 556.662C649.624 557.458 648.977 558.104 648.18 558.104Z" fill="#19AABF"/>
<path fill-rule="evenodd" clip-rule="evenodd" d="M482.464 523.208C481.887 522.632 481.021 522.632 480.444 523.208C479.866 523.785 479.866 524.65 480.444 525.227C481.021 525.804 481.887 525.804 482.464 525.227C483.042 524.65 483.042 523.785 482.464 523.208Z" fill="#19AABF"/>
<path d="M436.272 514.557C435.475 514.557 434.828 513.911 434.828 513.115C434.828 512.318 435.475 511.673 436.272 511.673C437.069 511.673 437.715 512.318 437.715 513.115C437.715 513.911 437.069 514.557 436.272 514.557Z" fill="#19AABF"/>
<path d="M549.732 513.114C548.935 513.114 548.289 512.469 548.289 511.672C548.289 510.876 548.935 510.23 549.732 510.23C550.53 510.23 551.176 510.876 551.176 511.672C551.176 512.469 550.53 513.114 549.732 513.114Z" fill="#19AABF"/>
<path d="M867.883 403.815C867.086 403.815 866.439 403.169 866.439 402.373C866.439 401.576 867.086 400.931 867.883 400.931C868.68 400.931 869.326 401.576 869.326 402.373C869.326 403.169 868.68 403.815 867.883 403.815Z" fill="#19AABF"/>
<path d="M353.125 328.545C352.328 328.545 351.682 327.899 351.682 327.103C351.682 326.306 352.328 325.661 353.125 325.661C353.923 325.661 354.569 326.306 354.569 327.103C354.569 327.899 353.923 328.545 353.125 328.545Z" fill="#19AABF"/>
<path d="M569.653 505.905C568.855 505.905 568.209 505.259 568.209 504.463C568.209 503.667 568.855 503.021 569.653 503.021C570.45 503.021 571.096 503.667 571.096 504.463C571.096 505.259 570.45 505.905 569.653 505.905Z" fill="#19AABF"/>
<path fill-rule="evenodd" clip-rule="evenodd" d="M703.611 525.227C703.034 524.65 702.167 524.65 701.59 525.227C701.013 525.804 701.013 526.669 701.59 527.246C702.167 527.822 703.034 527.822 703.611 527.246C704.188 526.957 704.188 525.804 703.611 525.227Z" fill="#19AABF"/>
<path fill-rule="evenodd" clip-rule="evenodd" d="M1042.84 390.837C1042.26 390.26 1041.39 390.26 1040.82 390.837C1040.24 391.414 1040.24 392.279 1040.82 392.856C1041.39 393.432 1042.26 393.432 1042.84 392.856C1043.41 392.279 1043.41 391.414 1042.84 390.837Z" fill="#19AABF"/>
<path d="M591.017 517.729C590.538 517.729 590.151 517.342 590.151 516.864C590.151 516.386 590.538 515.999 591.017 515.999C591.495 515.999 591.883 516.386 591.883 516.864C591.883 517.342 591.495 517.729 591.017 517.729Z" fill="#19AABF"/>
<path d="M708.808 541.953C708.329 541.953 707.942 541.566 707.942 541.088C707.942 540.611 708.329 540.223 708.808 540.223C709.286 540.223 709.674 540.611 709.674 541.088C709.674 541.566 709.286 541.953 708.808 541.953Z" fill="#19AABF"/>
<path fill-rule="evenodd" clip-rule="evenodd" d="M688.887 526.669C688.598 526.381 688.021 526.381 687.732 526.669C687.444 526.957 687.444 527.534 687.732 527.822C688.021 528.111 688.598 528.111 688.887 527.822C689.176 527.534 689.176 526.957 688.887 526.669Z" fill="#19AABF"/>
<path d="M823.134 396.316C822.656 396.316 822.268 395.929 822.268 395.451C822.268 394.973 822.656 394.586 823.134 394.586C823.612 394.586 824 394.973 824 395.451C824 395.929 823.612 396.316 823.134 396.316Z" fill="#19AABF"/>
<path fill-rule="evenodd" clip-rule="evenodd" d="M533.276 589.25C532.987 588.962 532.41 588.962 532.121 589.25C531.833 589.538 531.833 590.115 532.121 590.404C532.41 590.692 532.987 590.692 533.276 590.404C533.565 590.115 533.565 589.538 533.276 589.25Z" fill="#19AABF"/>
<path d="M531.833 643.179C531.354 643.179 530.967 642.791 530.967 642.313C530.967 641.836 531.354 641.448 531.833 641.448C532.311 641.448 532.699 641.836 532.699 642.313C532.699 642.791 532.311 643.179 531.833 643.179Z" fill="#19AABF"/>
<path d="M992.602 575.984C992.124 575.984 991.736 575.596 991.736 575.119C991.736 574.641 992.124 574.253 992.602 574.253C993.081 574.253 993.469 574.641 993.469 575.119C993.469 575.596 993.081 575.984 992.602 575.984Z" fill="#19AABF"/>
<path d="M560.414 643.756C559.936 643.756 559.548 643.368 559.548 642.891C559.548 642.413 559.936 642.025 560.414 642.025C560.892 642.025 561.28 642.413 561.28 642.891C561.28 643.368 560.892 643.756 560.414 643.756Z" fill="#19AABF"/>
<path fill-rule="evenodd" clip-rule="evenodd" d="M561.569 632.508C561.28 632.22 560.703 632.22 560.414 632.508C560.126 632.797 560.126 633.373 560.414 633.662C560.703 633.95 561.28 633.95 561.569 633.662C561.858 633.373 561.858 632.797 561.569 632.508Z" fill="#19AABF"/>
<path d="M653.954 566.467C653.476 566.467 653.088 566.08 653.088 565.602C653.088 565.124 653.476 564.737 653.954 564.737C654.433 564.737 654.82 565.124 654.82 565.602C654.82 566.08 654.433 566.467 653.954 566.467Z" fill="#19AABF"/>
<path fill-rule="evenodd" clip-rule="evenodd" d="M574.849 515.71C574.561 515.422 573.983 515.422 573.695 515.71C573.406 515.998 573.406 516.575 573.695 516.863C573.983 517.152 574.561 517.152 574.849 516.863C575.138 516.287 575.138 515.998 574.849 515.71Z" fill="#19AABF"/>
<path d="M658.862 555.22C658.384 555.22 657.996 554.832 657.996 554.354C657.996 553.877 658.384 553.489 658.862 553.489C659.34 553.489 659.728 553.877 659.728 554.354C659.728 554.832 659.34 555.22 658.862 555.22Z" fill="#19AABF"/>
<path fill-rule="evenodd" clip-rule="evenodd" d="M595.925 528.687C595.347 528.111 594.481 528.111 593.904 528.687C593.326 529.264 593.326 530.129 593.904 530.706C594.481 531.283 595.347 531.283 595.925 530.706C596.502 530.129 596.502 529.264 595.925 528.687Z" fill="#19AABF"/>
<path d="M686 555.22C685.203 555.22 684.556 554.574 684.556 553.778C684.556 552.982 685.203 552.336 686 552.336C686.797 552.336 687.443 552.982 687.443 553.778C687.443 554.574 686.797 555.22 686 555.22Z" fill="#19AABF"/>
<path fill-rule="evenodd" clip-rule="evenodd" d="M667.234 554.066C666.657 553.49 665.791 553.49 665.213 554.066C664.636 554.643 664.636 555.508 665.213 556.085C665.791 556.662 666.657 556.662 667.234 556.085C667.812 555.797 667.812 554.643 667.234 554.066Z" fill="#19AABF"/>
<path d="M1006.75 432.942C1005.95 432.942 1005.31 432.296 1005.31 431.5C1005.31 430.704 1005.95 430.058 1006.75 430.058C1007.55 430.058 1008.19 430.704 1008.19 431.5C1008.19 432.296 1007.55 432.942 1006.75 432.942Z" fill="#19AABF"/>
<path d="M980.766 386.223C979.012 386.223 977.59 384.802 977.59 383.05C977.59 381.298 979.012 379.878 980.766 379.878C982.52 379.878 983.941 381.298 983.941 383.05C983.941 384.802 982.52 386.223 980.766 386.223Z" fill="#19AABF"/>
<path fill-rule="evenodd" clip-rule="evenodd" d="M953.339 363.151C952.761 362.575 951.895 362.575 951.318 363.151C950.74 363.728 950.74 364.593 951.318 365.17C951.895 365.747 952.761 365.747 953.339 365.17C953.916 364.593 953.916 363.728 953.339 363.151Z" fill="#19AABF"/>
<path d="M972.104 358.537C971.307 358.537 970.661 357.892 970.661 357.095C970.661 356.299 971.307 355.653 972.104 355.653C972.902 355.653 973.548 356.299 973.548 357.095C973.548 357.892 972.902 358.537 972.104 358.537Z" fill="#19AABF"/>
<path d="M993.469 370.361C992.99 370.361 992.603 369.974 992.603 369.496C992.603 369.018 992.99 368.631 993.469 368.631C993.947 368.631 994.335 369.018 994.335 369.496C994.335 369.974 993.947 370.361 993.469 370.361Z" fill="#19AABF"/>
<path d="M976.724 369.496C976.245 369.496 975.858 369.109 975.858 368.631C975.858 368.153 976.245 367.766 976.724 367.766C977.202 367.766 977.59 368.153 977.59 368.631C977.59 369.109 977.202 369.496 976.724 369.496Z" fill="#19AABF"/>
<path d="M997.511 383.916C996.713 383.916 996.067 383.27 996.067 382.474C996.067 381.677 996.713 381.032 997.511 381.032C998.308 381.032 998.954 381.677 998.954 382.474C998.954 383.27 998.308 383.916 997.511 383.916Z" fill="#19AABF"/>
<path d="M547.423 580.598C546.626 580.598 545.979 579.953 545.979 579.156C545.979 578.36 546.626 577.714 547.423 577.714C548.22 577.714 548.866 578.36 548.866 579.156C548.866 579.953 548.22 580.598 547.423 580.598Z" fill="#19AABF"/>
<path fill-rule="evenodd" clip-rule="evenodd" d="M371.603 442.459C371.025 441.882 370.159 441.882 369.582 442.459C369.004 443.036 369.004 443.901 369.582 444.478C370.159 445.054 371.025 445.054 371.603 444.478C372.18 443.901 372.18 443.036 371.603 442.459Z" fill="#36AAFF"/>
<path d="M407.69 582.04C406.893 582.04 406.247 581.395 406.247 580.598C406.247 579.802 406.893 579.156 407.69 579.156C408.488 579.156 409.134 579.802 409.134 580.598C409.134 581.395 408.488 582.04 407.69 582.04Z" fill="#19AABF"/>
<path fill-rule="evenodd" clip-rule="evenodd" d="M612.092 631.355C611.515 630.778 610.649 630.778 610.071 631.355C609.494 631.932 609.494 632.797 610.071 633.374C610.649 633.951 611.515 633.951 612.092 633.374C612.67 632.797 612.67 631.932 612.092 631.355Z" fill="#19AABF"/>
<path fill-rule="evenodd" clip-rule="evenodd" d="M350.816 428.904C350.239 428.327 349.372 428.327 348.795 428.904C348.218 429.481 348.218 430.346 348.795 430.923C349.372 431.5 350.239 431.5 350.816 430.923C351.393 430.635 351.393 429.481 350.816 428.904Z" fill="#36AAFF"/>
<path d="M901.661 563.006C899.907 563.006 898.485 561.586 898.485 559.834C898.485 558.082 899.907 556.662 901.661 556.662C903.415 556.662 904.837 558.082 904.837 559.834C904.837 561.586 903.415 563.006 901.661 563.006Z" fill="#19AABF"/>
<path d="M897.331 466.684C895.577 466.684 894.155 465.263 894.155 463.511C894.155 461.759 895.577 460.339 897.331 460.339C899.084 460.339 900.506 461.759 900.506 463.511C900.506 465.263 899.084 466.684 897.331 466.684Z" fill="#19AABF"/>
<path d="M1439.8 569.351C1438.05 569.351 1436.63 567.931 1436.63 566.179C1436.63 564.427 1438.05 563.006 1439.8 563.006C1441.56 563.006 1442.98 564.427 1442.98 566.179C1442.98 567.931 1441.56 569.351 1439.8 569.351Z" fill="#19AABF"/>
<path d="M911.477 604.823C910.201 604.823 909.167 603.79 909.167 602.516C909.167 601.241 910.201 600.208 911.477 600.208C912.753 600.208 913.787 601.241 913.787 602.516C913.787 603.79 912.753 604.823 911.477 604.823Z" fill="#19AABF"/>
<path d="M896.753 568.197C895.956 568.197 895.309 567.552 895.309 566.755C895.309 565.959 895.956 565.313 896.753 565.313C897.55 565.313 898.196 565.959 898.196 566.755C898.196 567.552 897.55 568.197 896.753 568.197Z" fill="#19AABF"/>
<path d="M873.079 542.53C872.282 542.53 871.636 541.885 871.636 541.088C871.636 540.292 872.282 539.646 873.079 539.646C873.877 539.646 874.523 540.292 874.523 541.088C874.523 541.885 873.877 542.53 873.079 542.53Z" fill="#19AABF"/>
<path d="M845.364 453.418C844.567 453.418 843.921 452.772 843.921 451.976C843.921 451.179 844.567 450.534 845.364 450.534C846.161 450.534 846.808 451.179 846.808 451.976C846.808 452.772 846.161 453.418 845.364 453.418Z" fill="#19AABF"/>
<path d="M893 535.321C892.203 535.321 891.556 534.675 891.556 533.879C891.556 533.083 892.203 532.437 893 532.437C893.797 532.437 894.443 533.083 894.443 533.879C894.443 534.675 893.797 535.321 893 535.321Z" fill="#19AABF"/>
<path d="M914.075 547.145C913.597 547.145 913.209 546.758 913.209 546.28C913.209 545.802 913.597 545.415 914.075 545.415C914.554 545.415 914.941 545.802 914.941 546.28C914.941 546.758 914.554 547.145 914.075 547.145Z" fill="#19AABF"/>
<path d="M942.657 608.284C942.179 608.284 941.791 607.896 941.791 607.418C941.791 606.941 942.179 606.553 942.657 606.553C943.135 606.553 943.523 606.941 943.523 607.418C943.523 607.896 943.135 608.284 942.657 608.284Z" fill="#19AABF"/>
<path d="M856.046 620.108C855.568 620.108 855.18 619.72 855.18 619.243C855.18 618.765 855.568 618.377 856.046 618.377C856.524 618.377 856.912 618.765 856.912 619.243C856.912 619.72 856.524 620.108 856.046 620.108Z" fill="#19AABF"/>
<path d="M897.619 546.28C897.141 546.28 896.753 545.892 896.753 545.414C896.753 544.937 897.141 544.549 897.619 544.549C898.098 544.549 898.485 544.937 898.485 545.414C898.485 545.892 898.098 546.28 897.619 546.28Z" fill="#19AABF"/>
<path fill-rule="evenodd" clip-rule="evenodd" d="M919.272 558.103C918.695 557.527 917.829 557.527 917.251 558.103C916.674 558.68 916.674 559.545 917.251 560.122C917.829 560.699 918.695 560.699 919.272 560.122C919.849 559.545 919.849 558.68 919.272 558.103Z" fill="#19AABF"/>
<path fill-rule="evenodd" clip-rule="evenodd" d="M1021.18 557.238C1020.61 556.661 1019.74 556.661 1019.16 557.238C1018.59 557.815 1018.59 558.68 1019.16 559.257C1019.74 559.834 1020.61 559.834 1021.18 559.257C1021.76 558.68 1021.76 557.815 1021.18 557.238Z" fill="#19AABF"/>
<path fill-rule="evenodd" clip-rule="evenodd" d="M1395.34 398.624C1394.48 398.624 1393.9 399.2 1393.9 400.066C1393.9 400.931 1394.48 401.507 1395.34 401.507C1396.21 401.507 1396.79 400.931 1396.79 400.066C1396.79 399.489 1396.21 398.912 1395.34 398.624Z" fill="#19AABF"/>
<path fill-rule="evenodd" clip-rule="evenodd" d="M871.924 607.418C871.347 606.842 870.481 606.842 869.903 607.418C869.326 607.995 869.326 608.86 869.903 609.437C870.481 610.014 871.347 610.014 871.924 609.437C872.502 609.149 872.502 607.995 871.924 607.418Z" fill="#19AABF"/>
<path fill-rule="evenodd" clip-rule="evenodd" d="M584.666 641.737C584.088 641.16 583.222 641.16 582.645 641.737C582.067 642.314 582.067 643.179 582.645 643.755C583.222 644.332 584.088 644.332 584.666 643.755C585.243 643.467 585.243 642.602 584.666 641.737Z" fill="#19AABF"/>
<path d="M562.724 711.528C561.927 711.528 561.28 710.882 561.28 710.086C561.28 709.289 561.927 708.644 562.724 708.644C563.521 708.644 564.167 709.289 564.167 710.086C564.167 710.882 563.521 711.528 562.724 711.528Z" fill="#19AABF"/>
<path fill-rule="evenodd" clip-rule="evenodd" d="M644.427 594.441C643.849 593.864 642.983 593.864 642.406 594.441C641.829 595.018 641.829 595.883 642.406 596.46C642.983 597.036 643.849 597.036 644.427 596.46C645.004 595.883 645.004 595.018 644.427 594.441Z" fill="#19AABF"/>
<path d="M317.904 486.294C315.353 486.294 313.285 484.229 313.285 481.68C313.285 479.132 315.353 477.066 317.904 477.066C320.455 477.066 322.523 479.132 322.523 481.68C322.523 484.229 320.455 486.294 317.904 486.294Z" fill="#36AAFF"/>
<path d="M322.523 401.507C319.972 401.507 317.904 399.441 317.904 396.893C317.904 394.345 319.972 392.279 322.523 392.279C325.074 392.279 327.142 394.345 327.142 396.893C327.142 399.441 325.074 401.507 322.523 401.507Z" fill="#36AAFF"/>
<path fill-rule="evenodd" clip-rule="evenodd" d="M254.966 499.849C254.966 501.579 256.41 503.021 258.142 503.021C259.874 503.021 261.318 501.579 261.318 499.849C261.318 498.118 259.874 496.676 258.142 496.676C256.41 496.676 254.966 498.118 254.966 499.849Z" fill="#36AAFF"/>
<path fill-rule="evenodd" clip-rule="evenodd" d="M383.728 452.553C383.728 454.283 385.172 455.725 386.904 455.725C388.636 455.725 390.08 454.283 390.08 452.553C390.08 450.822 388.636 449.38 386.904 449.38C385.172 449.38 383.728 450.822 383.728 452.553Z" fill="#19AABF"/>
<path fill-rule="evenodd" clip-rule="evenodd" d="M227.251 272.885C227.251 274.616 228.694 276.057 230.427 276.057C232.159 276.057 233.603 274.616 233.603 272.885C233.603 271.155 232.159 269.713 230.427 269.713C228.694 269.713 227.251 271.155 227.251 272.885Z" fill="#19AABF"/>
<path fill-rule="evenodd" clip-rule="evenodd" d="M224.942 406.987C224.942 408.717 226.385 410.159 228.117 410.159C229.849 410.159 231.293 408.717 231.293 406.987C231.293 405.256 229.849 403.814 228.117 403.814C226.385 403.814 224.942 405.256 224.942 406.987Z" fill="#36AAFF"/>
<path fill-rule="evenodd" clip-rule="evenodd" d="M407.69 415.35C407.69 416.504 408.845 417.657 410 417.657C411.155 417.657 412.31 416.504 412.31 415.35C412.31 414.197 411.155 413.043 410 413.043C408.845 413.043 407.69 414.197 407.69 415.35Z" fill="#19AABF"/>
<path d="M309.531 465.53C308.734 465.53 308.088 464.884 308.088 464.088C308.088 463.292 308.734 462.646 309.531 462.646C310.328 462.646 310.975 463.292 310.975 464.088C310.975 464.884 310.328 465.53 309.531 465.53Z" fill="#36AAFF"/>
<path d="M395.276 452.552C394.479 452.552 393.833 451.907 393.833 451.11C393.833 450.314 394.479 449.668 395.276 449.668C396.073 449.668 396.72 450.314 396.72 451.11C396.72 451.907 396.073 452.552 395.276 452.552Z" fill="#19AABF"/>
<path d="M393.833 487.448C393.036 487.448 392.389 486.802 392.389 486.006C392.389 485.21 393.036 484.564 393.833 484.564C394.63 484.564 395.276 485.21 395.276 486.006C395.276 486.802 394.63 487.448 393.833 487.448Z" fill="#36AAFF"/>
<path d="M374.778 478.508C373.981 478.508 373.335 477.862 373.335 477.066C373.335 476.269 373.981 475.624 374.778 475.624C375.575 475.624 376.222 476.269 376.222 477.066C376.222 477.862 375.575 478.508 374.778 478.508Z" fill="#19AABF"/>
<path d="M414.619 485.141C413.822 485.141 413.176 484.495 413.176 483.699C413.176 482.902 413.822 482.257 414.619 482.257C415.416 482.257 416.062 482.902 416.062 483.699C416.062 484.495 415.416 485.141 414.619 485.141Z" fill="#19AABF"/>
<path d="M296.251 369.208C295.454 369.208 294.807 368.562 294.807 367.766C294.807 366.969 295.454 366.324 296.251 366.324C297.048 366.324 297.694 366.969 297.694 367.766C297.694 368.562 297.048 369.208 296.251 369.208Z" fill="#36AAFF"/>
<path fill-rule="evenodd" clip-rule="evenodd" d="M367.561 453.417C367.561 453.706 367.849 454.283 368.427 454.283C368.715 454.283 369.293 453.994 369.293 453.417C369.293 453.129 369.004 452.552 368.427 452.552C367.849 452.552 367.561 452.841 367.561 453.417Z" fill="#36AAFF"/>
<path d="M379.686 466.395C379.208 466.395 378.82 466.008 378.82 465.53C378.82 465.052 379.208 464.665 379.686 464.665C380.165 464.665 380.552 465.052 380.552 465.53C380.552 466.008 380.165 466.395 379.686 466.395Z" fill="#19AABF"/>
<path d="M374.778 442.747C373.981 442.747 373.335 442.102 373.335 441.305C373.335 440.509 373.981 439.863 374.778 439.863C375.575 439.863 376.222 440.509 376.222 441.305C376.222 442.102 375.575 442.747 374.778 442.747Z" fill="#19AABF"/>
<path d="M414.619 263.08C413.822 263.08 413.176 262.434 413.176 261.638C413.176 260.841 413.822 260.196 414.619 260.196C415.416 260.196 416.062 260.841 416.062 261.638C416.062 262.434 415.416 263.08 414.619 263.08Z" fill="#19AABF"/>
<path d="M386.904 361.998C386.106 361.998 385.46 361.352 385.46 360.556C385.46 359.759 386.106 359.114 386.904 359.114C387.701 359.114 388.347 359.759 388.347 360.556C388.347 361.352 387.701 361.998 386.904 361.998Z" fill="#19AABF"/>
<path d="M38.728 247.795C36.1769 247.795 34.1086 245.729 34.1086 243.181C34.1086 240.632 36.1769 238.566 38.728 238.566C41.2791 238.566 43.3472 240.632 43.3472 243.181C43.3472 245.729 41.2791 247.795 38.728 247.795Z" fill="#19AABF"/>
<path d="M224.941 260.196C222.39 260.196 220.322 258.13 220.322 255.582C220.322 253.033 222.39 250.967 224.941 250.967C227.493 250.967 229.561 253.033 229.561 255.582C229.561 258.13 227.493 260.196 224.941 260.196Z" fill="#19AABF"/>
<path d="M95.6023 310.953C93.0512 310.953 90.9832 308.887 90.9832 306.338C90.9832 303.79 93.0512 301.724 95.6023 301.724C98.1535 301.724 100.222 303.79 100.222 306.338C100.222 308.887 98.1535 310.953 95.6023 310.953Z" fill="#B6EBFF"/>
<path d="M67.8868 191.27C66.1329 191.27 64.7112 189.85 64.7112 188.098C64.7112 186.346 66.1329 184.926 67.8868 184.926C69.6407 184.926 71.0625 186.346 71.0625 188.098C71.0625 189.85 69.6407 191.27 67.8868 191.27Z" fill="#19AABF"/>
<path fill-rule="evenodd" clip-rule="evenodd" d="M12.7452 310.376C11.5903 309.222 9.56923 309.222 8.12566 310.376C6.97081 311.529 6.97081 313.548 8.12566 314.99C9.28052 316.144 11.3016 316.144 12.7452 314.99C13.9 313.548 13.9 311.529 12.7452 310.376Z" fill="#19AABF"/>
<path d="M155.075 235.682C153.321 235.682 151.9 234.262 151.9 232.51C151.9 230.758 153.321 229.338 155.075 229.338C156.829 229.338 158.251 230.758 158.251 232.51C158.251 234.262 156.829 235.682 155.075 235.682Z" fill="#19AABF"/>
<path fill-rule="evenodd" clip-rule="evenodd" d="M21.983 353.346C21.117 352.481 19.6736 352.481 18.8075 353.346C17.9414 354.211 17.9414 355.653 18.8075 356.518C19.6736 357.384 21.117 357.384 21.983 356.518C23.1378 355.942 23.1378 354.5 21.983 353.346Z" fill="#19AABF"/>
<path fill-rule="evenodd" clip-rule="evenodd" d="M58.3599 248.66C57.7825 248.083 56.9164 248.083 56.339 248.66C55.7617 249.237 55.7617 250.102 56.339 250.679C56.9164 251.256 57.7825 251.256 58.3599 250.679C58.9373 250.39 58.9373 249.237 58.3599 248.66Z" fill="#19AABF"/>
<path d="M5.81592 321.046C5.01877 321.046 4.37256 320.4 4.37256 319.604C4.37256 318.808 5.01877 318.162 5.81592 318.162C6.61306 318.162 7.25928 318.808 7.25928 319.604C7.25928 320.4 6.61306 321.046 5.81592 321.046Z" fill="#19AABF"/>
<path d="M1.77393 287.881C0.97678 287.881 0.330566 287.236 0.330566 286.44C0.330566 285.643 0.97678 284.998 1.77393 284.998C2.57107 284.998 3.21729 285.643 3.21729 286.44C3.21729 287.236 2.57107 287.881 1.77393 287.881Z" fill="#19AABF"/>
<path d="M134.577 309.799C133.78 309.799 133.134 309.153 133.134 308.357C133.134 307.561 133.78 306.915 134.577 306.915C135.374 306.915 136.021 307.561 136.021 308.357C136.021 309.153 135.374 309.799 134.577 309.799Z" fill="#19AABF"/>
<path fill-rule="evenodd" clip-rule="evenodd" d="M23.7156 298.263C23.4269 297.975 22.8495 297.975 22.5608 298.263C22.2721 298.552 22.2721 299.128 22.5608 299.417C22.8495 299.705 23.4269 299.705 23.7156 299.417C24.0043 299.128 24.0043 298.552 23.7156 298.263Z" fill="#19AABF"/>
<path fill-rule="evenodd" clip-rule="evenodd" d="M216.281 173.679C215.992 173.39 215.414 173.39 215.126 173.679C214.837 173.967 214.837 174.544 215.126 174.832C215.414 175.121 215.992 175.121 216.281 174.832C216.569 174.255 216.569 173.967 216.281 173.679Z" fill="#19AABF"/>
<path fill-rule="evenodd" clip-rule="evenodd" d="M7.25952 297.687C6.97078 297.398 6.39323 297.398 6.10449 297.687C5.81575 297.975 5.81575 298.552 6.10449 298.84C6.39323 299.128 6.97078 299.128 7.25952 298.84C7.54826 298.552 7.54826 297.975 7.25952 297.687Z" fill="#19AABF"/>
<path d="M27.1801 313.26C26.3828 313.26 25.7366 312.614 25.7366 311.818C25.7366 311.022 26.3828 310.376 27.1801 310.376C27.9773 310.376 28.6235 311.022 28.6235 311.818C28.6235 312.614 27.9773 313.26 27.1801 313.26Z" fill="#19AABF"/>
<path d="M276.33 177.139C275.533 177.139 274.887 176.494 274.887 175.697C274.887 174.901 275.533 174.255 276.33 174.255C277.128 174.255 277.774 174.901 277.774 175.697C277.774 176.494 277.128 177.139 276.33 177.139Z" fill="#19AABF"/>
<path fill-rule="evenodd" clip-rule="evenodd" d="M17.0757 424.002C16.4984 423.425 15.6323 423.425 15.0549 424.002C14.4775 424.579 14.4775 425.444 15.0549 426.021C15.6323 426.597 16.4984 426.597 17.0757 426.021C17.6531 425.444 17.6531 424.579 17.0757 424.002Z" fill="#19AABF"/>
<path d="M75.682 379.013C74.8848 379.013 74.2385 378.367 74.2385 377.571C74.2385 376.774 74.8848 376.129 75.682 376.129C76.4792 376.129 77.1255 376.774 77.1255 377.571C77.1255 378.367 76.4792 379.013 75.682 379.013Z" fill="#19AABF"/>
<path fill-rule="evenodd" clip-rule="evenodd" d="M49.9874 506.481C49.1213 505.616 47.6778 505.616 46.8117 506.481C45.9456 507.347 45.9456 508.788 46.8117 509.654C47.6778 510.519 49.1213 510.519 49.9874 509.654C51.1422 508.788 51.1422 507.347 49.9874 506.481Z" fill="#19AABF"/>
<path d="M122.452 267.405C121.655 267.405 121.008 266.76 121.008 265.963C121.008 265.167 121.655 264.521 122.452 264.521C123.249 264.521 123.896 265.167 123.896 265.963C123.896 266.76 123.249 267.405 122.452 267.405Z" fill="#19AABF"/>
<path d="M296.251 257.024C295.454 257.024 294.807 256.378 294.807 255.582C294.807 254.785 295.454 254.14 296.251 254.14C297.048 254.14 297.694 254.785 297.694 255.582C297.694 256.378 297.048 257.024 296.251 257.024Z" fill="#19AABF"/>
<path d="M77.7033 260.196C77.225 260.196 76.8372 259.808 76.8372 259.331C76.8372 258.853 77.225 258.465 77.7033 258.465C78.1816 258.465 78.5693 258.853 78.5693 259.331C78.5693 259.808 78.1816 260.196 77.7033 260.196Z" fill="#19AABF"/>
<path d="M247.171 439.575C246.693 439.575 246.305 439.188 246.305 438.71C246.305 438.232 246.693 437.845 247.171 437.845C247.65 437.845 248.038 438.232 248.038 438.71C248.038 439.188 247.65 439.575 247.171 439.575Z" fill="#36AAFF"/>
<path d="M261.318 296.533C260.521 296.533 259.875 295.887 259.875 295.091C259.875 294.295 260.521 293.649 261.318 293.649C262.115 293.649 262.762 294.295 262.762 295.091C262.762 295.887 262.115 296.533 261.318 296.533Z" fill="#19AABF"/>
<path d="M235.335 249.814C233.581 249.814 232.159 248.394 232.159 246.642C232.159 244.89 233.581 243.469 235.335 243.469C237.089 243.469 238.51 244.89 238.51 246.642C238.51 248.394 237.089 249.814 235.335 249.814Z" fill="#19AABF"/>
<path fill-rule="evenodd" clip-rule="evenodd" d="M207.908 226.742C207.33 226.165 206.464 226.165 205.887 226.742C205.309 227.319 205.309 228.184 205.887 228.761C206.464 229.338 207.33 229.338 207.908 228.761C208.485 228.473 208.485 227.319 207.908 226.742Z" fill="#19AABF"/>
<path d="M226.674 222.128C225.876 222.128 225.23 221.482 225.23 220.686C225.23 219.89 225.876 219.244 226.674 219.244C227.471 219.244 228.117 219.89 228.117 220.686C228.117 221.482 227.471 222.128 226.674 222.128Z" fill="#19AABF"/>
<path fill-rule="evenodd" clip-rule="evenodd" d="M248.615 232.51C248.326 232.222 247.749 232.222 247.46 232.51C247.172 232.799 247.172 233.375 247.46 233.664C247.749 233.952 248.326 233.952 248.615 233.664C248.904 233.375 248.904 232.799 248.615 232.51Z" fill="#19AABF"/>
<path fill-rule="evenodd" clip-rule="evenodd" d="M231.87 231.934C231.582 231.645 231.004 231.645 230.716 231.934C230.427 232.222 230.427 232.799 230.716 233.087C231.004 233.376 231.582 233.376 231.87 233.087C232.159 232.51 232.159 232.222 231.87 231.934Z" fill="#19AABF"/>
<path fill-rule="evenodd" clip-rule="evenodd" d="M253.234 244.911C252.657 244.334 251.791 244.334 251.213 244.911C250.636 245.488 250.636 246.353 251.213 246.93C251.791 247.507 252.657 247.507 253.234 246.93C253.812 246.353 253.812 245.488 253.234 244.911Z" fill="#19AABF"/>
<path fill-rule="evenodd" clip-rule="evenodd" d="M565.322 267.117C565.322 268.847 566.766 270.289 568.498 270.289C570.23 270.289 571.674 268.847 571.674 267.117C571.674 265.387 570.23 263.945 568.498 263.945C566.766 263.945 565.322 265.387 565.322 267.117Z" fill="#B6EBFF"/>
<path fill-rule="evenodd" clip-rule="evenodd" d="M566.188 246.642C564.456 244.911 561.569 244.911 559.837 246.642C558.104 248.372 558.104 251.256 559.837 252.986C561.569 254.716 564.456 254.716 566.188 252.986C567.92 251.256 567.92 248.372 566.188 246.642Z" fill="#19AABF"/>
<path d="M493.146 230.203C491.392 230.203 489.971 228.783 489.971 227.031C489.971 225.279 491.392 223.858 493.146 223.858C494.9 223.858 496.322 225.279 496.322 227.031C496.322 228.783 494.9 230.203 493.146 230.203Z" fill="#19AABF"/>
<path fill-rule="evenodd" clip-rule="evenodd" d="M554.063 167.911C553.774 167.622 553.197 167.622 552.908 167.911C552.619 168.199 552.619 168.776 552.908 169.064C553.197 169.353 553.774 169.353 554.063 169.064C554.351 168.776 554.351 168.199 554.063 167.911Z" fill="#19AABF"/>
<path fill-rule="evenodd" clip-rule="evenodd" d="M615.268 168.776C614.69 168.199 613.824 168.199 613.247 168.776C612.669 169.353 612.669 170.218 613.247 170.795C613.824 171.371 614.69 171.371 615.268 170.795C615.845 170.506 615.845 169.353 615.268 168.776Z" fill="#19AABF"/>
<path d="M634.322 251.255C633.525 251.255 632.879 250.61 632.879 249.814C632.879 249.017 633.525 248.372 634.322 248.372C635.119 248.372 635.766 249.017 635.766 249.814C635.766 250.61 635.119 251.255 634.322 251.255Z" fill="#19AABF"/>
<path d="M599.389 291.054C598.592 291.054 597.946 290.408 597.946 289.612C597.946 288.816 598.592 288.17 599.389 288.17C600.186 288.17 600.833 288.816 600.833 289.612C600.833 290.408 600.186 291.054 599.389 291.054Z" fill="#19AABF"/>
<path d="M573.406 244.334C571.652 244.334 570.23 242.914 570.23 241.162C570.23 239.41 571.652 237.99 573.406 237.99C575.16 237.99 576.582 239.41 576.582 241.162C576.582 242.914 575.16 244.334 573.406 244.334Z" fill="#19AABF"/>
<path d="M544.824 223.57C544.027 223.57 543.38 222.924 543.38 222.128C543.38 221.332 544.027 220.686 544.824 220.686C545.621 220.686 546.268 221.332 546.268 222.128C546.268 222.924 545.621 223.57 544.824 223.57Z" fill="#19AABF"/>
<path d="M564.745 216.36C563.947 216.36 563.301 215.715 563.301 214.919C563.301 214.122 563.947 213.477 564.745 213.477C565.542 213.477 566.188 214.122 566.188 214.919C566.188 215.715 565.542 216.36 564.745 216.36Z" fill="#19AABF"/>
<path fill-rule="evenodd" clip-rule="evenodd" d="M586.397 227.031C586.109 226.742 585.531 226.742 585.243 227.031C584.954 227.319 584.954 227.896 585.243 228.184C585.531 228.473 586.109 228.473 586.397 228.184C586.686 227.608 586.686 227.319 586.397 227.031Z" fill="#19AABF"/>
<path d="M569.364 227.608C568.886 227.608 568.498 227.22 568.498 226.743C568.498 226.265 568.886 225.877 569.364 225.877C569.842 225.877 570.23 226.265 570.23 226.743C570.23 227.22 569.842 227.608 569.364 227.608Z" fill="#19AABF"/>
<path d="M589.862 241.739C589.065 241.739 588.419 241.093 588.419 240.297C588.419 239.501 589.065 238.855 589.862 238.855C590.659 238.855 591.306 239.501 591.306 240.297C591.306 241.093 590.659 241.739 589.862 241.739Z" fill="#19AABF"/>
<path d="M156.23 426.597C154.476 426.597 153.054 425.177 153.054 423.425C153.054 421.673 154.476 420.252 156.23 420.252C157.984 420.252 159.406 421.673 159.406 423.425C159.406 425.177 157.984 426.597 156.23 426.597Z" fill="#19AABF"/>
<path d="M151.899 330.275C150.145 330.275 148.724 328.854 148.724 327.102C148.724 325.35 150.145 323.93 151.899 323.93C153.653 323.93 155.075 325.35 155.075 327.102C155.075 328.854 153.653 330.275 151.899 330.275Z" fill="#19AABF"/>
<path fill-rule="evenodd" clip-rule="evenodd" d="M167.778 464.376C166.912 463.511 165.469 463.511 164.602 464.376C163.736 465.242 163.736 466.684 164.602 467.549C165.469 468.414 166.912 468.414 167.778 467.549C168.644 466.684 168.644 465.242 167.778 464.376Z" fill="#19AABF"/>
<path d="M151.322 431.788C150.525 431.788 149.878 431.143 149.878 430.346C149.878 429.55 150.525 428.904 151.322 428.904C152.119 428.904 152.766 429.55 152.766 430.346C152.766 431.143 152.119 431.788 151.322 431.788Z" fill="#19AABF"/>
<path fill-rule="evenodd" clip-rule="evenodd" d="M128.803 403.526C128.226 402.949 127.36 402.949 126.782 403.526C126.205 404.103 126.205 404.968 126.782 405.545C127.36 406.121 128.226 406.121 128.803 405.545C129.381 404.968 129.381 404.103 128.803 403.526Z" fill="#19AABF"/>
<path d="M99.9329 317.297C99.1357 317.297 98.4894 316.651 98.4894 315.855C98.4894 315.059 99.1357 314.413 99.9329 314.413C100.73 314.413 101.376 315.059 101.376 315.855C101.376 316.651 100.73 317.297 99.9329 317.297Z" fill="#19AABF"/>
<path fill-rule="evenodd" clip-rule="evenodd" d="M148.724 396.316C148.147 395.74 147.281 395.74 146.703 396.316C146.126 396.893 146.126 397.758 146.703 398.335C147.281 398.912 148.147 398.912 148.724 398.335C149.302 397.758 149.302 396.893 148.724 396.316Z" fill="#19AABF"/>
<path d="M168.933 410.736C168.454 410.736 168.067 410.348 168.067 409.871C168.067 409.393 168.454 409.005 168.933 409.005C169.411 409.005 169.799 409.393 169.799 409.871C169.799 410.348 169.411 410.736 168.933 410.736Z" fill="#19AABF"/>
<path fill-rule="evenodd" clip-rule="evenodd" d="M197.803 470.721C197.515 470.433 196.937 470.433 196.649 470.721C196.36 471.01 196.36 471.586 196.649 471.875C196.937 472.163 197.515 472.163 197.803 471.875C198.092 471.298 198.092 471.01 197.803 470.721Z" fill="#36AAFF"/>
<path fill-rule="evenodd" clip-rule="evenodd" d="M111.193 482.257C110.904 481.968 110.327 481.968 110.038 482.257C109.749 482.545 109.749 483.122 110.038 483.41C110.327 483.699 110.904 483.699 111.193 483.41C111.481 483.122 111.481 482.545 111.193 482.257Z" fill="#19AABF"/>
<path fill-rule="evenodd" clip-rule="evenodd" d="M152.766 408.717C152.477 408.429 151.9 408.429 151.611 408.717C151.322 409.006 151.322 409.582 151.611 409.871C151.9 410.159 152.477 410.159 152.766 409.871C153.055 409.294 153.055 409.006 152.766 408.717Z" fill="#19AABF"/>
<path d="M172.975 424.29C172.178 424.29 171.531 423.645 171.531 422.848C171.531 422.052 172.178 421.406 172.975 421.406C173.772 421.406 174.418 422.052 174.418 422.848C174.418 423.645 173.772 424.29 172.975 424.29Z" fill="#19AABF"/>
<path d="M274.887 423.136C274.09 423.136 273.444 422.491 273.444 421.694C273.444 420.898 274.09 420.252 274.887 420.252C275.684 420.252 276.331 420.898 276.331 421.694C276.331 422.491 275.684 423.136 274.887 423.136Z" fill="#36AAFF"/>
<path fill-rule="evenodd" clip-rule="evenodd" d="M126.494 471.01C125.916 470.433 125.05 470.433 124.473 471.01C123.895 471.586 123.895 472.452 124.473 473.028C125.05 473.605 125.916 473.605 126.494 473.028C127.071 472.74 127.071 471.586 126.494 471.01Z" fill="#19AABF"/>
</g>
<g style="mix-blend-mode:screen" opacity="0.1">
<path fill-rule="evenodd" clip-rule="evenodd" d="M-113.617 117.261C-113.617 117.261 -31.216 153.057 13.83 162.5C58.8761 172.162 76.455 155.692 76.455 155.692C76.455 155.692 112.931 154.374 138.641 163.159C164.35 172.162 171.601 182.923 189.4 194.342C207.198 205.981 246.751 161.841 246.751 161.841L340.799 184.46L464.73 207.519C464.73 207.519 360.575 187.535 337.502 155.033C313.551 121.434 226.975 144.053 208.956 132.414C191.158 120.775 174.677 129.779 154.681 111.771C134.685 93.7635 112.052 73.3403 85.2445 61.2621C58.4366 49.1839 6.35898 34.9096 -20.8884 29.8586C-48.1357 24.8077 -88.5673 24.3685 -88.5673 24.3685L-156.466 31.1763L-229.199 18L-512 111.991C-512 111.991 -341.484 161.182 -270.729 163.817C-243.702 165.135 -113.617 117.261 -113.617 117.261Z" fill="url(#paint2_linear_1122_14013)"/>
</g>
<g style="mix-blend-mode:screen" opacity="0.1">
<path fill-rule="evenodd" clip-rule="evenodd" d="M1602.5 84.1161C1602.5 84.1161 1520.98 122.108 1476.16 132.868C1431.33 143.629 1413.31 127.817 1413.31 127.817C1413.31 127.817 1376.61 127.378 1351.34 137.041C1326.07 146.703 1319.04 157.684 1301.46 169.762C1283.89 181.84 1246.31 165.809 1246.31 165.809L1143.47 185.134L1038 207.973C1038 207.973 1143.25 182.719 1157.54 169.542C1171.82 156.366 1262.79 120.57 1280.37 108.492C1297.95 96.414 1314.43 104.979 1333.99 86.5318C1353.54 68.085 1375.52 47.0029 1402.1 34.0463C1428.69 21.0896 1480.33 5.49768 1507.36 -0.212036C1534.39 -5.92175 1574.82 -7.67859 1574.82 -7.67859L1642.94 -2.84729L1715.45 -18L2000.67 68.085C2000.67 68.085 1831.69 121.888 1760.71 126.719C1733.91 128.476 1602.5 84.1161 1602.5 84.1161Z" fill="url(#paint3_linear_1122_14013)"/>
</g>
<g style="mix-blend-mode:screen" opacity="0.1">
<path fill-rule="evenodd" clip-rule="evenodd" d="M1608.36 503.893C1608.36 503.893 1506.41 494.89 1474.76 496.207C1443.34 497.525 1375.88 456.02 1360.06 450.969C1344.46 445.918 1283.59 463.267 1283.59 463.267C1283.59 463.267 1243.38 479.956 1222.51 498.184C1201.63 516.411 1128.9 498.184 1128.9 498.184L1061 479.517C1061 479.517 1209.76 452.945 1235.69 438.451C1261.4 423.957 1266.23 395.628 1298.32 401.997C1330.4 408.365 1400.71 433.4 1423.57 416.491C1446.42 399.581 1596.06 395.628 1635.39 404.852C1674.72 414.075 1785.03 448.773 1785.03 448.773C1785.03 448.773 1658.68 495.768 1608.36 503.893Z" fill="url(#paint4_linear_1122_14013)"/>
</g>
<g style="mix-blend-mode:screen" opacity="0.1">
<path fill-rule="evenodd" clip-rule="evenodd" d="M-275.588 308.204C-275.588 308.204 -189.451 334.117 -148.8 355.858C-108.149 377.599 -105.292 401.536 -105.292 401.536C-105.292 401.536 -78.2645 426.132 -52.9948 435.794C-27.725 445.457 -3.77374 427.01 17.321 429.865C38.4157 432.5 57.0933 485.425 57.0933 485.425L177.729 508.264L254.856 524.954C254.856 524.954 158.831 514.632 139.495 515.072C120.158 515.291 2.15916 507.385 -18.9356 504.75C-40.0303 502.115 -46.8422 484.766 -73.6501 485.425C-100.458 486.303 -131.001 487.401 -159.347 479.276C-187.694 471.151 -236.695 448.531 -260.646 434.916C-284.598 421.3 -316.02 395.607 -316.02 395.607L-363.483 346.635L-427.646 309.741L-583 55C-583 55 -421.054 127.47 -365.021 171.171C-343.926 187.641 -275.588 308.204 -275.588 308.204Z" fill="url(#paint5_linear_1122_14013)"/>
</g>
</g>
<defs>
<linearGradient id="paint0_linear_1122_14013" x1="0" y1="550" x2="1440" y2="550" gradientUnits="userSpaceOnUse">
<stop offset="0.00041336" stop-color="#080534"/>
<stop offset="0.4132" stop-color="#161148"/>
<stop offset="0.9398" stop-color="#0B0845"/>
<stop offset="1" stop-color="#09063A"/>
</linearGradient>
<linearGradient id="paint1_linear_1122_14013" x1="0" y1="550" x2="1440" y2="550" gradientUnits="userSpaceOnUse">
<stop offset="0.00041336" stop-color="#080534"/>
<stop offset="0.4132" stop-color="#161148"/>
<stop offset="0.9398" stop-color="#0B0845"/>
<stop offset="1" stop-color="#09063A"/>
</linearGradient>
<linearGradient id="paint2_linear_1122_14013" x1="-189" y1="-80.5" x2="86.889" y2="451.807" gradientUnits="userSpaceOnUse">
<stop stop-opacity="0"/>
<stop offset="0.659838" stop-color="#4793FF"/>
<stop offset="1" stop-opacity="0"/>
</linearGradient>
<linearGradient id="paint3_linear_1122_14013" x1="1148" y1="257.5" x2="1696.85" y2="190.211" gradientUnits="userSpaceOnUse">
<stop stop-opacity="0"/>
<stop offset="0.338964" stop-color="#4793FF"/>
<stop offset="1" stop-opacity="0"/>
</linearGradient>
<linearGradient id="paint4_linear_1122_14013" x1="1143.73" y1="529.579" x2="1860.92" y2="394.527" gradientUnits="userSpaceOnUse">
<stop stop-color="#4793FF"/>
<stop offset="1" stop-opacity="0"/>
</linearGradient>
<linearGradient id="paint5_linear_1122_14013" x1="-305.925" y1="-189.253" x2="467.293" y2="326.833" gradientUnits="userSpaceOnUse">
<stop stop-opacity="0"/>
<stop offset="1" stop-color="#4793FF"/>
</linearGradient>
<clipPath id="clip0_1122_14013">
<rect width="2760" height="785" fill="white" transform="matrix(-1 0 0 1 2135 39)"/>
</clipPath>
</defs>
</svg>
