<svg width="100%" viewBox="0 0 1440 900" fill="none" xmlns="http://www.w3.org/2000/svg">
<mask id="mask0_1316_561" style="mask-type:alpha" maskUnits="userSpaceOnUse" x="0" y="0" width="1440" height="900">
<rect width="1440" height="900" fill="#D9D9D9"/>
</mask>
<g mask="url(#mask0_1316_561)">
<path opacity="0.2" fill-rule="evenodd" clip-rule="evenodd" d="M330.712 -7C330.712 -7 396 41.5251 426.051 54.3029C426.051 54.3029 463.729 51.5648 468.763 54.3029C473.797 57.041 496.22 70.8836 498.509 76.3598C500.797 81.6839 502.322 93.2447 507.051 98.7209C511.627 104.045 553.271 124.124 567.915 126.406C582.559 128.688 617.949 135.685 624.966 140.249C631.831 144.812 629.542 155.612 633.509 160.937C637.322 166.261 660.509 175.54 669.661 181.624C678.966 187.709 707.797 186.188 716.492 190.143C725.186 193.946 743.644 205.507 743.644 205.507L750.509 211.591C750.509 211.591 746.695 224.673 750.509 228.476C754.322 232.279 770.492 235.321 770.492 235.321C770.492 235.321 758.136 223 758.136 215.394C758.136 207.636 750.356 201.552 750.356 201.552C750.356 201.552 711.763 183.906 706.424 179.19C701.085 174.627 652.424 134.62 648.61 127.623C644.797 120.778 636.254 101.459 631.678 96.1349C627.102 90.8108 583.17 79.25 572.339 74.6865C561.509 70.123 547.627 56.2804 541.068 44.7196C534.509 33.1587 522.153 1.21429 518.339 -2.89286C514.525 -7 506.288 -7 506.288 -7H330.712Z" fill="url(#paint0_linear_1316_561)"/>
<path opacity="0.2" fill-rule="evenodd" clip-rule="evenodd" d="M1223.39 322.94C1223.39 322.94 1258.32 345.758 1268.08 354.124C1277.85 362.491 1310.03 366.141 1316.29 368.575C1322.54 370.857 1337.64 391.849 1337.64 391.849C1337.64 391.849 1346.34 407.365 1348.47 418.317C1350.61 429.422 1378.53 441.895 1378.53 441.895L1404.92 453C1404.92 453 1363.88 407.061 1359.3 395.956C1354.73 384.852 1360.37 374.66 1348.47 368.575C1336.58 362.491 1307.75 352.755 1304.69 341.651C1301.64 330.546 1254.66 291.452 1239.71 284.607C1224.76 277.61 1180.68 260.877 1180.68 260.877C1180.68 260.877 1209.36 307.729 1223.39 322.94Z" fill="url(#paint1_linear_1316_561)"/>
<path opacity="0.2" fill-rule="evenodd" clip-rule="evenodd" d="M1075.88 83.3571C1075.88 83.3571 1122.41 124.885 1150.02 141.009C1177.63 157.134 1192.73 150.288 1192.73 150.288C1192.73 150.288 1217.14 157.438 1232.08 168.847C1247.03 180.255 1244.75 201.095 1253.9 212.504C1263.2 224.065 1301.34 216.003 1301.34 216.003L1358.54 278.979L1396.37 318.681C1396.37 318.681 1355.64 265.593 1348.78 254.184C1341.92 242.623 1294.47 175.844 1285.32 164.283C1276.02 152.722 1263.36 155.004 1254.05 138.88C1244.59 122.451 1234.22 104.045 1219.27 90.2024C1204.17 76.3598 1173.05 55.672 1156.27 46.3929C1139.49 37.1138 1112.8 27.9868 1112.8 27.9868L1066.58 17.6429L1021.58 -7H814.576C814.576 -7 916.017 62.5172 962.237 79.8585C979.627 86.3995 1075.88 83.3571 1075.88 83.3571Z" fill="url(#paint2_linear_1316_561)"/>
<path opacity="0.2" fill-rule="evenodd" clip-rule="evenodd" d="M1258.78 -0.00292969C1258.78 -0.00292969 1283.95 35.7444 1301.95 46.0883C1319.95 56.4323 1342.68 60.8436 1351.22 71.1876C1359.76 81.5315 1392.71 105.262 1392.71 105.262L1440 124.733C1440 124.733 1375.63 70.427 1368.61 57.8013C1361.59 45.1756 1342.68 34.8317 1342.68 34.8317L1258.78 -0.00292969Z" fill="url(#paint3_linear_1316_561)"/>
<path opacity="0.2" fill-rule="evenodd" clip-rule="evenodd" d="M55.983 281.108C45.1525 271.677 -9 232.583 -9 232.583L-1.67797 -7H297.305C297.305 -7 341.39 46.3929 354.814 55.8241C368.237 65.2553 405 75.295 425.898 76.0556C446.797 76.664 480.203 123.516 480.203 123.516C480.203 123.516 492.559 145.573 507.051 152.266C515.178 155.981 536.227 162.038 554.211 167.214C568.631 171.363 581.082 174.946 583.322 176.3C583.409 176.353 583.495 176.407 583.581 176.462C594.418 180.609 626.651 193.033 639 198.813C653.949 205.659 700.932 244.753 703.983 255.857C706.334 264.413 723.99 272.157 737.412 278.043C741.41 279.797 745.032 281.385 747.763 282.782C755.353 286.663 755.804 292.216 756.324 298.611C756.619 302.241 756.936 306.142 758.593 310.163C763.169 321.267 804.203 367.206 804.203 367.206L777.813 356.102C777.813 356.102 749.898 343.628 747.763 332.524C745.627 321.571 736.932 306.055 736.932 306.055C736.932 306.055 721.83 285.063 715.576 282.782C713.695 282.05 709.469 281.208 704.212 280.16C691.99 277.725 674.199 274.181 667.373 268.331C657.61 259.964 622.678 237.147 622.678 237.147C617.618 231.607 610.653 221.993 603.816 211.963C601.118 210.334 598.205 208.419 595.373 206.267C588.519 200.976 583.107 199.918 575.363 198.406C572.421 197.831 569.143 197.191 565.322 196.228C551.441 192.729 532.22 190.599 532.22 190.599C535.881 211.743 547.932 232.583 547.932 232.583C543.59 228.748 540.408 223.227 536.909 217.156C531.804 208.298 526.025 198.271 514.983 190.599C505.801 184.272 500.491 182.826 495.89 181.573C491.088 180.265 487.058 179.168 480.203 172.954C466.627 160.784 450.153 146.942 444.966 149.071C439.627 151.201 401.186 149.071 401.186 149.071C401.186 149.071 352.983 134.925 346.424 126.254C339.864 117.583 285.102 112.411 285.102 112.411C285.102 112.411 248.949 127.927 253.068 149.071C257.186 170.216 238.424 205.659 230.492 217.828C222.559 229.997 228.051 255.857 239.797 270.308C246.116 278.083 246.784 284.845 247.501 292.111C248.117 298.35 248.769 304.96 253.068 312.901C262.373 330.09 253.068 332.067 253.068 332.067C253.068 332.067 248.949 357.775 256.271 378.615C263.012 397.8 301.167 416.856 307.184 419.762C301.782 417.181 270.496 402.175 259.78 395.652C256.315 393.588 251.841 391.563 246.902 389.329C235.1 383.988 220.645 377.447 210.966 366.294C203.757 357.986 189.27 351.314 175.369 344.913C162.8 339.124 150.71 333.556 144.915 327.2C138.245 319.883 130.024 315.293 122.372 311.02C116.025 307.475 110.069 304.15 105.712 299.667C100.787 294.6 90.696 292.329 80.5687 290.051C70.9324 287.882 61.2638 285.707 55.983 281.108ZM307.983 420.143C307.983 420.143 307.703 420.012 307.184 419.762C307.703 420.01 307.983 420.143 307.983 420.143Z" fill="url(#paint4_linear_1316_561)"/>
</g>
<defs>
<linearGradient id="paint0_linear_1316_561" x1="330.712" y1="-7" x2="593.786" y2="434.804" gradientUnits="userSpaceOnUse">
<stop stop-color="#080534"/>
<stop offset="1" stop-color="#4793FF"/>
</linearGradient>
<linearGradient id="paint1_linear_1316_561" x1="1217.46" y1="234.036" x2="1307.37" y2="508.728" gradientUnits="userSpaceOnUse">
<stop stop-color="#080534"/>
<stop offset="1" stop-color="#4793FF"/>
</linearGradient>
<linearGradient id="paint2_linear_1316_561" x1="910" y1="-52.5" x2="1015.43" y2="440.494" gradientUnits="userSpaceOnUse">
<stop stop-color="#080534"/>
<stop offset="1" stop-color="#4793FF"/>
</linearGradient>
<linearGradient id="paint3_linear_1316_561" x1="1288.5" y1="-17.4294" x2="1337.07" y2="167.252" gradientUnits="userSpaceOnUse">
<stop stop-color="#080534"/>
<stop offset="1" stop-color="#4793FF"/>
</linearGradient>
<linearGradient id="paint4_linear_1316_561" x1="-9" y1="-7" x2="495.238" y2="675.196" gradientUnits="userSpaceOnUse">
<stop stop-color="#080534"/>
<stop offset="1" stop-color="#4793FF"/>
</linearGradient>
</defs>
</svg>
