<svg width="100%" viewBox="0 0 1440 2243" fill="none" xmlns="http://www.w3.org/2000/svg">
<mask id="mask0_1316_564" style="mask-type:alpha" maskUnits="userSpaceOnUse" x="0" y="0" width="1440" height="2243">
<rect width="1440" height="2243" fill="#D9D9D9"/>
</mask>
<g mask="url(#mask0_1316_564)">
<path opacity="0.1" fill-rule="evenodd" clip-rule="evenodd" d="M-132.588 184.204C-132.588 184.204 -46.4514 210.117 -5.80011 231.858C34.8512 253.599 37.7079 277.536 37.7079 277.536C37.7079 277.536 64.7355 302.132 90.0052 311.794C115.275 321.457 139.226 303.01 160.321 305.865C181.416 308.5 200.093 361.425 200.093 361.425L320.729 384.264L397.856 400.954C397.856 400.954 301.831 390.632 282.495 391.072C263.158 391.291 145.159 383.385 124.064 380.75C102.97 378.115 96.1578 360.766 69.3499 361.425C42.542 362.303 11.9986 363.401 -16.3475 355.276C-44.6935 347.151 -93.6949 324.531 -117.646 310.916C-141.598 297.3 -173.02 271.607 -173.02 271.607L-220.483 222.635L-284.646 185.741L-440 -69C-440 -69 -278.054 3.4695 -222.021 47.1708C-200.926 63.6411 -132.588 184.204 -132.588 184.204Z" fill="url(#paint0_linear_1316_564)"/>
<path opacity="0.1" fill-rule="evenodd" clip-rule="evenodd" d="M1445.34 496.523C1445.34 496.523 1349.04 531.204 1320.88 545.698C1292.92 560.1 1214.27 550.79 1197.79 552.856C1181.51 554.83 1133.57 596.153 1133.57 596.153C1133.57 596.153 1104.1 628.198 1092.81 653.511C1081.53 678.823 1007.88 692.852 1007.88 692.852L938.419 704.451C938.419 704.451 1062.24 617.818 1079.67 593.769C1096.91 569.812 1089.39 542.075 1121.18 534.37C1152.96 526.666 1227.29 519.83 1240.92 494.882C1254.55 469.933 1388.67 403.455 1428.24 395.294C1467.81 387.132 1582.48 372.256 1582.48 372.256C1582.48 372.256 1487.58 468.001 1445.34 496.523Z" fill="url(#paint1_linear_1316_564)"/>
<path opacity="0.2" fill-rule="evenodd" clip-rule="evenodd" d="M209.112 154.77C209.112 154.77 290.635 192.762 335.461 203.523C380.287 214.283 398.306 198.472 398.306 198.472C398.306 198.472 435.002 198.033 460.272 207.695C485.541 217.358 492.573 228.338 510.152 240.416C527.731 252.494 565.306 236.463 565.306 236.463L668.143 255.788L773.616 278.627C773.616 278.627 668.362 253.373 654.079 240.197C639.797 227.02 548.825 191.225 531.247 179.147C513.668 167.068 497.187 175.633 477.631 157.186C458.074 138.739 436.101 117.657 409.512 104.701C382.924 91.7439 331.286 76.152 304.258 70.4423C277.231 64.7325 236.799 62.9757 236.799 62.9757L168.681 67.807L96.1676 52.6543L-189.051 138.739C-189.051 138.739 -20.0732 192.542 50.9018 197.374C77.7097 199.131 209.112 154.77 209.112 154.77Z" fill="url(#paint2_linear_1316_564)"/>
<path opacity="0.2" fill-rule="evenodd" clip-rule="evenodd" d="M-22.7974 806.055C-22.7974 806.055 78.7459 818.918 109.386 826.928C139.811 834.891 214.548 808.665 231.081 807.091C247.399 805.47 303.191 835.354 303.191 835.354C303.191 835.354 338.939 860.206 355.465 882.452C371.991 904.698 446.936 902.339 446.936 902.339L517.25 898.524C517.25 898.524 377.53 840.954 355.272 821.282C333.229 801.657 334.524 772.948 301.821 772.355C269.119 771.763 195.09 781.287 176.351 759.909C157.613 738.53 12.2281 702.876 -28.1664 703.532C-68.5609 704.189 -183.722 714.659 -183.722 714.659C-183.722 714.659 -70.2421 787.425 -22.7974 806.055Z" fill="url(#paint3_linear_1316_564)"/>
<path opacity="0.2" fill-rule="evenodd" clip-rule="evenodd" d="M1270.22 426.855C1270.22 426.855 1187.82 462.651 1142.77 472.094C1097.73 481.756 1080.15 465.286 1080.15 465.286C1080.15 465.286 1043.67 463.968 1017.96 472.752C992.254 481.756 985.003 492.517 967.204 503.936C949.406 515.575 909.853 471.435 909.853 471.435L815.806 494.054L691.874 517.112C691.874 517.112 796.029 497.128 819.102 464.627C843.053 431.027 929.629 453.647 947.648 442.008C965.446 430.369 981.927 439.372 1001.92 421.365C1021.92 403.357 1044.55 382.934 1071.36 370.856C1098.17 358.778 1150.25 344.503 1177.49 339.452C1204.74 334.401 1245.17 333.962 1245.17 333.962L1313.07 340.77L1385.8 327.594L1668.6 421.584C1668.6 421.584 1498.09 470.776 1427.33 473.411C1400.31 474.729 1270.22 426.855 1270.22 426.855Z" fill="url(#paint4_linear_1316_564)"/>
</g>
<defs>
<linearGradient id="paint0_linear_1316_564" x1="-57" y1="286.5" x2="389.152" y2="258.706" gradientUnits="userSpaceOnUse">
<stop stop-color="#080534"/>
<stop offset="1" stop-color="#4793FF"/>
</linearGradient>
<linearGradient id="paint1_linear_1316_564" x1="949.663" y1="728.728" x2="1312.72" y2="386.151" gradientUnits="userSpaceOnUse">
<stop stop-color="#4793FF"/>
<stop offset="1" stop-color="#080534"/>
</linearGradient>
<linearGradient id="paint2_linear_1316_564" x1="-189" y1="166" x2="710.743" y2="467.669" gradientUnits="userSpaceOnUse">
<stop stop-color="#080534"/>
<stop offset="1" stop-color="#4793FF"/>
</linearGradient>
<linearGradient id="paint3_linear_1316_564" x1="-184.649" y1="719.102" x2="320.108" y2="1149.65" gradientUnits="userSpaceOnUse">
<stop stop-color="#080534"/>
<stop offset="1" stop-color="#4793FF"/>
</linearGradient>
<linearGradient id="paint4_linear_1316_564" x1="692" y1="517" x2="1654.28" y2="588.266" gradientUnits="userSpaceOnUse">
<stop stop-color="#4793FF"/>
<stop offset="1" stop-color="#080534"/>
</linearGradient>
</defs>
</svg>
