<svg width="100%" viewBox="0 0 1440 900" fill="none" xmlns="http://www.w3.org/2000/svg">
<mask id="mask0_1317_572" style="mask-type:alpha" maskUnits="userSpaceOnUse" x="0" y="0" width="1440" height="900">
<rect width="1440" height="900" fill="#D9D9D9"/>
</mask>
<g mask="url(#mask0_1317_572)">
<path opacity="0.1" d="M1541.85 1216.97C1519.57 1222.08 1502.26 1197.04 1515.27 1178.27C1526.25 1162.37 1545.34 1148.33 1557.5 1140.82C1590.22 1120.71 1642.9 1118.05 1655.79 1073.05C1663.57 1045.94 1647.02 1023.08 1622.35 1013.16C1592.93 1001.24 1572.94 1011.31 1548.56 1026.2C1519.71 1043.84 1486.6 1056.5 1456.62 1072.59C1426.27 1088.89 1394.33 1105.28 1359.12 1106.1C1275.28 1108.37 1353.07 994.22 1364.33 952.202C1390.78 853.484 1295.24 890.931 1237.49 904.756C1145.33 929.549 1122.35 822.14 1195.36 776.48C1250.31 739.442 1369.36 715.126 1422.35 760.796C1492.56 817.913 1424.02 880.508 1457.82 939.051C1509.07 1024.84 1660.58 955.075 1723.72 1021.58C1784.98 1087.38 1588.5 1202.45 1541.85 1216.97Z" fill="url(#paint0_linear_1317_572)"/>
<path opacity="0.2" fill-rule="evenodd" clip-rule="evenodd" d="M1520.17 336.048C1520.17 336.048 1432.49 355.373 1390.3 374.039C1348.11 392.706 1343.5 416.203 1343.5 416.203C1343.5 416.203 1314.71 438.603 1288.78 446.509C1262.86 454.195 1240.44 433.991 1219.13 435.089C1197.81 436.187 1175.18 487.575 1175.18 487.575L1053.23 501.19L975 511.951C975 511.951 1071.46 509.096 1090.8 510.853C1110.14 512.61 1228.36 513.708 1249.67 512.61C1270.99 511.512 1278.9 494.822 1305.7 497.457C1332.51 500.312 1362.84 503.606 1391.62 497.896C1420.41 491.967 1471.17 473.081 1496 461.222C1520.83 449.363 1554.23 426.085 1554.23 426.085L1605.43 380.847L1671.79 348.785L1846.04 107C1846.04 107 1679.04 166.952 1619.93 206.261C1597.51 220.975 1520.17 336.048 1520.17 336.048Z" fill="url(#paint1_linear_1317_572)"/>
<path opacity="0.2" fill-rule="evenodd" clip-rule="evenodd" d="M-48.6169 326.261C-48.6169 326.261 33.7845 362.057 78.8305 371.5C123.877 381.162 141.455 364.692 141.455 364.692C141.455 364.692 177.932 363.374 203.641 372.159C229.35 381.162 236.602 391.923 254.4 403.342C272.199 414.981 311.752 370.841 311.752 370.841L405.799 393.46L529.73 416.519C529.73 416.519 425.575 396.535 402.503 364.033C378.552 330.434 291.975 353.053 273.957 341.414C256.158 329.775 239.678 338.779 219.682 320.771C199.686 302.764 177.053 282.34 150.245 270.262C123.437 258.184 71.3595 243.91 44.1121 238.859C16.8647 233.808 -23.5668 233.369 -23.5668 233.369L-91.4655 240.176L-164.198 227L-447 320.991C-447 320.991 -276.484 370.182 -205.729 372.817C-178.701 374.135 -48.6169 326.261 -48.6169 326.261Z" fill="url(#paint2_linear_1317_572)"/>
</g>
<defs>
<linearGradient id="paint0_linear_1317_572" x1="1630.35" y1="1191.51" x2="1241.06" y2="756.947" gradientUnits="userSpaceOnUse">
<stop stop-color="#4793FF"/>
<stop offset="0.2524" stop-color="#046462" stop-opacity="0"/>
<stop offset="0.468034" stop-color="#4793FF"/>
<stop offset="0.7533" stop-color="#046462" stop-opacity="0"/>
<stop offset="1" stop-color="#4793FF"/>
</linearGradient>
<linearGradient id="paint1_linear_1317_572" x1="975" y1="513" x2="1601.25" y2="447.074" gradientUnits="userSpaceOnUse">
<stop stop-color="#4793FF"/>
<stop offset="1" stop-color="#080534"/>
</linearGradient>
<linearGradient id="paint2_linear_1317_572" x1="-446.999" y1="322" x2="508.842" y2="219.564" gradientUnits="userSpaceOnUse">
<stop stop-color="#080534"/>
<stop offset="1" stop-color="#4793FF"/>
</linearGradient>
</defs>
</svg>
