<svg width="100%" viewBox="0 0 134 30" fill="none" xmlns="http://www.w3.org/2000/svg">
<path fill-rule="evenodd" clip-rule="evenodd" d="M10.6331 28.7038C18.1256 30.6188 25.6617 25.9426 27.5348 18.3271C29.4079 10.7116 24.8776 2.96241 17.385 1.04739C9.89252 -0.86763 2.35644 3.80859 0.483313 11.4241C-1.38982 19.0842 3.1841 26.7888 10.6331 28.7038ZM17.1234 9.2416C19.0401 9.95416 20.434 10.9339 20.1727 12.849C19.9984 14.2741 19.2143 14.9421 18.2995 15.0312C19.6499 15.7438 20.3469 16.8571 19.6935 18.8167C18.8658 21.2216 16.9056 21.3997 14.2919 20.9099L13.6385 23.4929L12.1139 23.0921L12.7237 20.5536C12.3317 20.4645 11.9396 20.3754 11.504 20.2418L10.8941 22.8249L9.3695 22.424L10.0229 19.841C9.84867 19.7965 9.66353 19.7519 9.4784 19.7074C9.29326 19.6629 9.10813 19.6183 8.93389 19.5738L6.93007 19.0839L7.67061 17.3025C7.67061 17.3025 8.80321 17.6142 8.80321 17.5697C9.23882 17.7033 9.41307 17.3916 9.50019 17.2134L10.5021 13.1162L11.1991 10.1768C11.2426 9.86509 11.1119 9.46427 10.5021 9.28613C10.5457 9.28613 9.41306 9.01892 9.41306 9.01892L9.80511 7.32658L11.8961 7.86101C12.066 7.91066 12.236 7.94648 12.4135 7.98388C12.5545 8.01357 12.7002 8.04427 12.8544 8.08369L13.4642 5.50063L14.9889 5.90145L14.379 8.43996C14.7115 8.55326 15.0753 8.63454 15.4172 8.71094C15.4785 8.72464 15.5392 8.73818 15.5988 8.75172L16.2086 6.25774L17.7332 6.65855L17.1234 9.2416ZM12.3004 18.5901C13.5602 18.9349 16.2502 19.671 16.6878 17.8815C17.1157 16.0519 14.5211 15.4656 13.2166 15.1707C13.0604 15.1354 12.9226 15.1043 12.8108 15.0757L11.9832 18.5049C12.0739 18.5281 12.1807 18.5574 12.3004 18.5901ZM13.4467 13.5822C14.4886 13.8661 16.7665 14.4866 17.1669 12.849C17.5738 11.1019 15.1684 10.6369 14.1394 10.438C14.0667 10.424 14.0009 10.4113 13.9434 10.3995L13.2029 13.517C13.2732 13.535 13.3552 13.5573 13.4467 13.5822Z" fill="#B3B7C0"/>
<path d="M40.9518 9.28536C42.0844 9.28536 43.0428 9.50803 43.8704 9.90885C44.6981 10.3097 45.3951 10.8886 45.9178 11.5567C46.4405 12.2692 46.8761 13.0709 47.1375 14.0061C47.3989 14.9413 47.5296 15.9656 47.5296 17.0345C47.5296 18.6823 47.2246 20.241 46.6148 21.7552C46.0049 23.2249 45.2208 24.5164 44.1753 25.6298C43.1299 26.7432 41.9102 27.5894 40.5162 28.2129C39.1223 28.8364 37.5976 29.1481 35.9423 29.1481C35.7245 29.1481 35.376 29.1481 34.8097 29.1481C34.287 29.1481 33.6771 29.1036 32.9801 28.97C32.2832 28.8809 31.5862 28.7473 30.8021 28.5246C30.018 28.3465 29.321 28.0793 28.624 27.723L34.7226 1.49168L40.1677 0.645508L37.9897 9.95339C38.4688 9.73071 38.948 9.55256 39.3836 9.46349C39.9064 9.32989 40.3855 9.28536 40.9518 9.28536ZM36.3779 24.6946C37.2056 24.6946 37.9897 24.4719 38.6867 24.0711C39.4272 23.6703 40.037 23.1358 40.5598 22.4233C41.0825 21.7552 41.5181 20.9536 41.823 20.1074C42.128 19.2613 42.3022 18.326 42.3022 17.3908C42.3022 16.2329 42.128 15.3422 41.7359 14.6741C41.3439 14.0061 40.6469 13.6943 39.645 13.6943C39.2965 13.6943 38.9044 13.7389 38.3382 13.8725C37.8154 14.0061 37.3363 14.2288 36.9006 14.6296L34.5919 24.5164C34.7226 24.561 34.8533 24.561 34.9404 24.6055C35.0275 24.65 35.1582 24.65 35.2889 24.65C35.4196 24.65 35.5502 24.65 35.7245 24.65C35.8987 24.6946 36.1165 24.6946 36.3779 24.6946Z" fill="#B3B7C0"/>
<path d="M53.1922 28.6593H47.9648L52.3645 9.68721H57.6354L53.1922 28.6593ZM55.7187 7.37138C54.9782 7.37138 54.3248 7.14871 53.7585 6.70335C53.1486 6.258 52.8872 5.58997 52.8872 4.65473C52.8872 4.16484 52.9744 3.67494 53.1922 3.22959C53.41 2.78424 53.6713 2.38343 53.9763 2.07168C54.3248 1.75994 54.6733 1.49272 55.1089 1.31458C55.5445 1.13644 56.0237 1.04736 56.5028 1.04736C57.2434 1.04736 57.8968 1.27004 58.4631 1.71539C59.0294 2.16075 59.3343 2.82878 59.3343 3.76402C59.3343 4.25391 59.2472 4.7438 59.0294 5.18916C58.8116 5.63451 58.5502 6.03532 58.2453 6.34706C57.8968 6.65881 57.5483 6.92603 57.1127 7.10417C56.6771 7.28231 56.1979 7.37138 55.7187 7.37138Z" fill="#B3B7C0"/>
<path d="M62.209 4.96581L67.6977 4.11963L66.3473 9.73108H72.1845L71.139 14.1401H65.3018L63.7336 20.7758C63.603 21.3103 63.5158 21.8447 63.4723 22.3346C63.4287 22.8245 63.5158 23.2253 63.6465 23.5816C63.7772 23.9378 64.0386 24.205 64.3871 24.3832C64.7355 24.5613 65.2583 24.6949 65.9552 24.6949C66.5215 24.6949 67.0878 24.6504 67.6106 24.5168C68.1333 24.4277 68.656 24.2496 69.2223 24.0715L69.6144 28.1687C68.9174 28.4359 68.1333 28.6586 67.3056 28.8367C66.478 29.0149 65.5196 29.1039 64.3871 29.1039C62.7753 29.1039 61.512 28.8367 60.5972 28.3468C59.6824 27.857 59.0726 27.1889 58.6805 26.3428C58.2885 25.4966 58.1578 24.5168 58.2014 23.4034C58.2449 22.29 58.4192 21.1321 58.6805 19.8851L62.209 4.96581Z" fill="#B3B7C0"/>
<path d="M71.9668 21.0877C71.9668 19.4399 72.2282 17.9257 72.7509 16.456C73.2736 15.0309 74.0142 13.7394 74.9725 12.6705C75.9309 11.6017 77.107 10.7555 78.501 10.132C79.8514 9.50851 81.4196 9.19678 83.1185 9.19678C84.1639 9.19678 85.1223 9.28584 85.9499 9.50852C86.7776 9.73119 87.5617 9.99841 88.2151 10.3102L86.4291 14.4965C85.9499 14.3183 85.4707 14.1402 84.948 13.962C84.4253 13.7839 83.8154 13.7394 83.1185 13.7394C81.376 13.7394 79.9821 14.3629 78.9801 15.5653C77.9782 16.8123 77.4555 18.4601 77.4555 20.5087C77.4555 21.7557 77.7169 22.7355 78.2396 23.4926C78.7623 24.2497 79.7207 24.6505 81.1146 24.6505C81.8116 24.6505 82.465 24.5615 83.0749 24.4278C83.7283 24.2942 84.2946 24.1161 84.7738 23.8934L85.1658 28.1688C84.5124 28.436 83.7719 28.6587 82.9878 28.8814C82.2037 29.0595 81.2453 29.1931 80.1127 29.1931C78.6752 29.1931 77.4119 28.9705 76.41 28.5251C75.4081 28.0797 74.5805 27.5008 73.927 26.7882C73.2736 26.0311 72.7945 25.1849 72.4895 24.2052C72.0975 23.1809 71.9668 22.1565 71.9668 21.0877Z" fill="#B3B7C0"/>
<path d="M95.142 29.1486C93.8787 29.1486 92.8333 28.9705 91.8749 28.5696C90.9601 28.1688 90.2196 27.6344 89.6097 26.9664C88.9999 26.2538 88.5643 25.4522 88.2593 24.5169C87.9544 23.5817 87.8237 22.5128 87.8237 21.3549C87.8237 19.9298 88.0415 18.4601 88.5207 17.035C88.9563 15.6098 89.6533 14.2738 90.5681 13.1604C91.4393 12.0025 92.5719 11.0673 93.8352 10.3102C95.142 9.5976 96.6231 9.19678 98.2784 9.19678C99.4981 9.19678 100.587 9.37491 101.502 9.77573C102.417 10.1765 103.201 10.711 103.811 11.379C104.421 12.0916 104.856 12.8932 105.161 13.8284C105.466 14.7637 105.64 15.8325 105.64 16.9905C105.64 18.4156 105.422 19.8852 104.987 21.3104C104.551 22.7355 103.898 24.027 103.027 25.1849C102.155 26.3429 101.066 27.2781 99.7595 28.0352C98.3655 28.7923 96.8844 29.1486 95.142 29.1486ZM97.7557 13.6948C96.9716 13.6948 96.3182 13.9175 95.7083 14.3629C95.0984 14.8082 94.6193 15.3872 94.2272 16.0997C93.8352 16.8123 93.5302 17.5694 93.3124 18.371C93.0946 19.2172 93.0075 19.9743 93.0075 20.7314C93.0075 21.9339 93.1818 22.8691 93.5738 23.5371C93.9659 24.2052 94.6193 24.5615 95.6212 24.5615C96.4053 24.5615 97.0587 24.3388 97.6685 23.8934C98.2348 23.4481 98.7576 22.8691 99.1496 22.1565C99.5417 21.444 99.8466 20.6869 100.064 19.8852C100.282 19.0391 100.369 18.282 100.369 17.5249C100.369 16.3224 100.195 15.3872 99.803 14.7192C99.411 14.0511 98.7576 13.6948 97.7557 13.6948Z" fill="#B3B7C0"/>
<path d="M111.259 28.6593H106.032L110.431 9.68721H115.702L111.259 28.6593ZM113.829 7.37138C113.089 7.37138 112.435 7.14871 111.869 6.70335C111.259 6.258 110.998 5.58997 110.998 4.65473C110.998 4.16484 111.085 3.67494 111.303 3.22959C111.52 2.78424 111.782 2.38343 112.087 2.07168C112.435 1.75994 112.784 1.49272 113.219 1.31458C113.655 1.13644 114.134 1.04736 114.613 1.04736C115.354 1.04736 116.007 1.27004 116.574 1.71539C117.14 2.16075 117.445 2.82878 117.445 3.76402C117.445 4.25391 117.358 4.7438 117.14 5.18916C116.922 5.63451 116.661 6.03532 116.356 6.34706C116.007 6.65881 115.659 6.92603 115.223 7.10417C114.788 7.28231 114.308 7.37138 113.829 7.37138Z" fill="#B3B7C0"/>
<path d="M119.492 10.5332C119.884 10.3996 120.32 10.266 120.799 10.1324C121.278 9.9988 121.801 9.82066 122.411 9.68705C123.021 9.55345 123.674 9.46438 124.415 9.37531C125.155 9.28624 125.983 9.2417 126.941 9.2417C129.686 9.2417 131.602 10.0433 132.648 11.6911C133.693 13.3389 133.867 15.5657 133.214 18.416L130.818 28.6591H125.547L127.856 18.6386C127.987 18.0152 128.117 17.3917 128.204 16.8127C128.292 16.2337 128.292 15.6993 128.204 15.254C128.117 14.8086 127.9 14.4523 127.551 14.1851C127.203 13.9179 126.68 13.7843 125.983 13.7843C125.286 13.7843 124.589 13.8734 123.892 14.007L120.451 28.7036H115.18L119.492 10.5332Z" fill="#B3B7C0"/>
</svg>
