<svg width="100%" viewBox="0 0 109 17" fill="none" xmlns="http://www.w3.org/2000/svg">
<path d="M4.23162 9.98882C4.23162 11.1542 4.54595 12.0588 5.17462 12.7028C5.80328 13.3315 6.60062 13.6458 7.56662 13.6458C8.65528 13.6458 9.46028 13.3545 9.98162 12.7718C10.5029 12.1738 10.7636 11.2615 10.7636 10.0348H14.0066C14.0066 11.3842 13.7306 12.5495 13.1786 13.5308C12.6419 14.4968 11.8983 15.2328 10.9476 15.7388C9.99695 16.2295 8.92362 16.4748 7.72762 16.4748H7.40562C6.08695 16.4748 4.90628 16.2065 3.86362 15.6698C2.82095 15.1332 2.00062 14.3435 1.40262 13.3008C0.804615 12.2428 0.505615 10.9702 0.505615 9.48282V7.22882C0.505615 5.78748 0.804615 4.53782 1.40262 3.47982C2.00062 2.42182 2.81328 1.61682 3.84062 1.06482C4.88328 0.512817 6.04095 0.236816 7.31362 0.236816H7.63562C8.86228 0.236816 9.95095 0.48215 10.9016 0.972816C11.8676 1.44815 12.6266 2.17648 13.1786 3.15782C13.7306 4.12382 14.0066 5.31215 14.0066 6.72282H10.6256C10.6256 5.52682 10.3573 4.62215 9.82062 4.00882C9.29928 3.38015 8.54028 3.06582 7.54362 3.06582C6.57762 3.06582 5.78028 3.38782 5.15162 4.03182C4.53828 4.66048 4.23162 5.55748 4.23162 6.72282V9.98882Z" fill="#B3B7C0"/>
<path d="M25.9578 13.1398H19.6788L18.5748 16.2448H15.1478L20.8748 0.466817H25.1068L30.8338 16.2448H27.1078L25.9578 13.1398ZM20.6448 10.4488H25.0148C24.4321 8.71615 23.7268 6.65382 22.8988 4.26182H22.7838L20.6448 10.4488Z" fill="#B3B7C0"/>
<path d="M45.7734 16.1068C45.2674 16.3062 44.6081 16.4058 43.7954 16.4058C43.0134 16.4058 42.3771 16.2142 41.8864 15.8308C41.3957 15.4475 41.1504 14.8035 41.1504 13.8988C41.1504 12.5802 40.9741 11.5528 40.6214 10.8168C40.2841 10.0808 39.6401 9.71282 38.6894 9.71282H36.0214V16.2448H32.5254V0.466817H39.5864C41.0891 0.466817 42.3464 0.773483 43.3584 1.38682C44.3857 2.00015 44.8994 2.99682 44.8994 4.37682C44.8994 4.92882 44.7767 5.47315 44.5314 6.00982C44.2861 6.54648 43.9411 7.00648 43.4964 7.38982C43.0671 7.77315 42.5917 8.01082 42.0704 8.10282V8.21782C42.7451 8.43248 43.3354 8.89248 43.8414 9.59782C44.3474 10.3032 44.6004 11.2462 44.6004 12.4268C44.6004 14.1135 44.9914 15.0795 45.7734 15.3248V16.1068ZM39.4714 6.92982C39.9774 6.92982 40.4067 6.76115 40.7594 6.42382C41.1274 6.08648 41.3114 5.68015 41.3114 5.20482V5.04382C41.3114 4.53782 41.1351 4.12382 40.7824 3.80182C40.4451 3.46448 40.0081 3.29582 39.4714 3.29582H36.0214V6.92982H39.4714Z" fill="#B3B7C0"/>
<path d="M53.8013 0.466817C55.1046 0.466817 56.2853 0.742817 57.3433 1.29482C58.4166 1.84682 59.2676 2.65182 59.8963 3.70982C60.525 4.76782 60.8393 6.01748 60.8393 7.45882V9.25282C60.8393 10.6942 60.525 11.9438 59.8963 13.0018C59.2676 14.0598 58.4166 14.8648 57.3433 15.4168C56.2853 15.9688 55.1046 16.2448 53.8013 16.2448H47.8213V0.466817H53.8013ZM51.3863 13.4158H53.8013C54.7826 13.4158 55.58 13.1015 56.1933 12.4728C56.8066 11.8288 57.1133 10.9242 57.1133 9.75882V6.95282C57.1133 5.78748 56.8066 4.89048 56.1933 4.26182C55.58 3.61782 54.7826 3.29582 53.8013 3.29582H51.3863V13.4158Z" fill="#B3B7C0"/>
<path d="M72.7889 13.1398H66.5099L65.4059 16.2448H61.9789L67.7059 0.466817H71.9379L77.6649 16.2448H73.9389L72.7889 13.1398ZM67.4759 10.4488H71.8459C71.2632 8.71615 70.5579 6.65382 69.7299 4.26182H69.6149L67.4759 10.4488Z" fill="#B3B7C0"/>
<path d="M83.9564 8.97682C83.7878 8.73148 83.5578 8.37115 83.2664 7.89582C82.9751 7.40515 82.7834 7.08315 82.6914 6.92982L82.5994 6.99882V16.2448H79.3564V0.466817H82.3694L87.3374 7.78082L88.0275 8.86182C88.2728 9.29115 88.4644 9.60548 88.6024 9.80482L88.6714 9.73582V0.466817H91.9145V16.2448H88.9015L83.9564 8.97682Z" fill="#B3B7C0"/>
<path d="M108.783 9.48282C108.783 10.9242 108.468 12.1738 107.84 13.2318C107.211 14.2898 106.36 15.0948 105.287 15.6468C104.229 16.1988 103.048 16.4748 101.745 16.4748C100.441 16.4748 99.2531 16.1988 98.1798 15.6468C97.1218 15.0948 96.2785 14.2898 95.6498 13.2318C95.0211 12.1738 94.7068 10.9242 94.7068 9.48282V7.22882C94.7068 5.78748 95.0211 4.53782 95.6498 3.47982C96.2785 2.42182 97.1218 1.61682 98.1798 1.06482C99.2531 0.512817 100.441 0.236816 101.745 0.236816C103.048 0.236816 104.229 0.512817 105.287 1.06482C106.36 1.61682 107.211 2.42182 107.84 3.47982C108.468 4.53782 108.783 5.78748 108.783 7.22882V9.48282ZM105.057 6.72282C105.057 5.55748 104.75 4.66048 104.137 4.03182C103.523 3.38782 102.726 3.06582 101.745 3.06582C100.763 3.06582 99.9661 3.38782 99.3528 4.03182C98.7395 4.66048 98.4328 5.55748 98.4328 6.72282V9.98882C98.4328 11.1542 98.7395 12.0588 99.3528 12.7028C99.9661 13.3315 100.763 13.6458 101.745 13.6458C102.726 13.6458 103.523 13.3315 104.137 12.7028C104.75 12.0588 105.057 11.1542 105.057 9.98882V6.72282Z" fill="#B3B7C0"/>
</svg>
