<svg width="100%" viewBox="0 0 69 65" fill="none" xmlns="http://www.w3.org/2000/svg">
<path d="M33.7115 0.416584C35.2038 -0.373234 37.0255 1.45902 36.2326 2.97229C35.7721 4.20583 34.0261 4.53385 33.1342 3.59358C32.1893 2.69118 32.4974 0.90757 33.7115 0.416584ZM17.6597 2.17274C18.5663 1.79399 19.7139 2.63697 19.6215 3.63979C19.7177 4.72844 18.4061 5.52972 17.482 5.01233C16.2578 4.53107 16.3978 2.51396 17.6597 2.17274ZM50.5355 5.04291C49.1188 4.86917 48.8946 2.60848 50.2586 2.15328C51.3165 1.62963 52.2871 2.6116 52.4418 3.62937C52.22 4.49841 51.5031 5.29413 50.5355 5.04291ZM21.3121 9.10666C22.8277 8.13373 24.9904 9.58271 24.7573 11.3694C24.6785 13.1735 22.3176 14.2188 20.9855 12.9991C19.6975 12.0411 19.8926 9.84332 21.3121 9.10666ZM44.4493 10.139C45.1255 8.37036 47.8655 8.31685 48.6351 10.0386C49.3958 11.3785 48.4601 13.0377 47.1047 13.4932C45.3094 13.8334 43.6041 11.8636 44.4493 10.139ZM31.7785 13.3928C31.7638 11.8726 33.1281 10.7398 34.5516 10.6363C35.4959 10.8284 36.525 11.2367 36.93 12.2037C37.6849 13.5377 37.0146 15.3745 35.6506 15.9867C35.0268 16.3415 34.2894 16.2084 33.6101 16.1671C32.5717 15.6497 31.6973 14.635 31.7785 13.3928ZM7.90717 15.608C9.29168 14.7441 11.1596 16.3207 10.6355 17.8471C10.3468 19.1675 8.59805 19.7047 7.59835 18.8618C6.53121 18.0719 6.70033 16.173 7.90717 15.608ZM59.1676 15.6052C60.3422 14.6795 62.2807 15.7414 62.1406 17.2467C62.2194 18.6192 60.5435 19.6544 59.3774 18.9476C58.0932 18.3617 57.9621 16.3564 59.1676 15.6052ZM38.4915 18.3381C40.43 17.6313 42.7324 18.4771 43.8372 20.2312C45.2946 22.3755 44.5192 25.6411 42.2575 26.8715C39.9141 28.3267 36.4921 27.0932 35.6266 24.4371C34.6441 22.0593 36.0755 19.0835 38.4915 18.3381ZM27.1182 18.572C29.2666 17.5427 32.1578 18.4062 33.1955 20.6367C34.4167 22.8077 33.4725 25.8308 31.2892 26.9518C29.1032 28.2117 26.0192 27.2565 24.9613 24.9256C23.775 22.6715 24.8285 19.6099 27.1182 18.572ZM15.7302 22.5235C15.8935 21.1186 17.1993 20.2044 18.5167 20.1099C19.9361 20.2836 21.07 21.4025 21.2244 22.8605C21.1313 24.304 20.0323 25.7147 18.5252 25.706C16.8672 25.8509 15.4135 24.1768 15.7302 22.5235ZM49.3667 20.4153C51.069 19.4097 53.4326 20.8737 53.357 22.8585C53.4737 24.9614 50.8577 26.4434 49.1627 25.2098C47.4019 24.1827 47.5392 21.2899 49.3667 20.4153ZM22.4898 27.827C24.4806 27.2711 26.757 28.2235 27.7334 30.0808C28.803 31.9502 28.3658 34.5473 26.7046 35.9184C24.5741 37.9296 20.6448 37.1221 19.5109 34.3774C18.2079 31.8613 19.7906 28.4893 22.4898 27.827ZM44.0618 27.8166C45.9972 27.2548 48.2708 28.0119 49.3113 29.8014C50.6869 31.8481 50.0302 34.9007 47.9822 36.22C45.837 37.7521 42.514 36.9477 41.3335 34.5521C39.9024 32.0743 41.3424 28.5724 44.0618 27.8166ZM9.68506 30.1517C11.4048 29.4915 13.311 31.4175 12.6143 33.148C12.1888 34.7245 9.99969 35.3072 8.86887 34.1449C7.54563 33.0535 8.03555 30.6249 9.68506 30.1517ZM56.2979 32.6629C56.2482 31.2167 57.2907 29.9359 58.7519 29.856C59.9297 30.0453 61.0749 31.0096 60.9817 32.3109C61.0896 34.0295 59.0491 35.1978 57.6064 34.3902C56.9302 34.0413 56.5834 33.3374 56.2979 32.6629ZM1.22936 31.0006C2.26399 30.5422 3.54374 31.4523 3.30751 32.6184C3.25205 33.9388 1.33139 34.4465 0.625776 33.3433C0.00233153 32.5771 0.375508 31.3956 1.22936 31.0006ZM66.4644 30.9742C67.1929 30.4477 68.3617 30.8261 68.6504 31.69C69.1399 32.6334 68.2423 33.926 67.196 33.7665C65.7272 33.9024 65.2521 31.6305 66.4644 30.9742ZM28.1094 37.3125C30.8318 36.5939 33.7584 38.898 33.7755 41.7432C33.9532 44.6182 31.0708 47.1677 28.284 46.5037C26.1298 46.1517 24.4396 44.0456 24.5094 41.8363C24.5036 39.7233 26.0747 37.7594 28.1094 37.3125ZM38.8911 37.3066C41.6543 36.5227 44.6681 38.8682 44.6243 41.779C44.7701 44.6009 41.9778 47.0645 39.2492 46.5047C36.6815 46.1676 34.7868 43.3044 35.5037 40.7755C35.8656 39.0902 37.2529 37.7197 38.8911 37.3066ZM18.1031 39.0579C20.0152 38.7267 21.8078 40.8919 21.0324 42.7346C20.4668 44.6982 17.6512 45.2308 16.4063 43.6269C14.9462 42.0865 16.0362 39.2705 18.1031 39.0579ZM49.7221 39.1444C51.4271 38.4196 53.5199 39.9165 53.3888 41.7946C53.4573 43.8621 50.8735 45.2878 49.2062 44.081C47.3177 42.9976 47.6614 39.8091 49.7221 39.1444ZM58.5599 48.1413C57.8923 46.8782 59.1049 45.2041 60.4867 45.4379C61.1745 45.4261 61.6555 45.9762 62.0958 46.4376C62.1862 47.1861 62.3378 48.0791 61.7257 48.6559C60.8944 49.7237 59.0114 49.419 58.5599 48.1413ZM7.90135 45.7896C9.19274 44.9171 11.0511 46.2184 10.7608 47.7508C10.6064 49.1059 8.92433 49.8804 7.81644 49.1115C6.62741 48.4134 6.67123 46.4258 7.90135 45.7896ZM33.4143 48.6264C35.1049 47.8692 37.2587 49.363 37.0985 51.253C37.2238 53.3413 34.5598 54.7875 32.9069 53.5335C31.0708 52.4566 31.3769 49.2887 33.4143 48.6264ZM21.5976 51.4243C23.0376 50.6553 24.9699 51.9834 24.8388 53.619C24.8826 54.962 23.5912 56.1066 22.2854 55.9081C21.2039 55.8845 20.4986 54.9005 20.1518 53.9647C20.1696 52.9449 20.5832 51.8089 21.5976 51.4243ZM45.5336 51.4479C47.0143 50.5191 49.1188 51.8531 48.9788 53.6023C49.0168 55.4304 46.6384 56.6014 45.2597 55.4005C43.9249 54.4592 44.0878 52.1964 45.5336 51.4479ZM49.6961 61.8921C49.0374 60.8806 49.8128 59.6619 50.8824 59.4312C51.7424 59.6088 52.6517 60.2652 52.4709 61.277C52.3456 62.6464 50.3722 63.0665 49.6961 61.8921ZM16.6542 61.0136C16.9165 60.212 17.5519 59.4152 18.4818 59.6237C19.8372 59.7214 20.2394 61.7948 19.0532 62.4338C17.9864 63.1638 16.7487 62.1641 16.6542 61.0136ZM32.595 61.9334C32.8545 60.7475 34.3671 60.1707 35.364 60.8006C36.0228 61.0877 36.2152 61.8358 36.3843 62.4717C36.2939 62.8028 36.2131 63.1343 36.1337 63.4655C35.7256 63.9564 35.2011 64.4474 34.5218 64.4297C33.2595 64.5798 32.1208 63.1315 32.595 61.9334Z" fill="#B3B7C0"/>
</svg>
