<svg width="100%" viewBox="0 0 126 40" fill="none" xmlns="http://www.w3.org/2000/svg">
<path d="M43.312 19.6944C43.1653 15.8779 46.119 12.6763 49.8897 12.5278H50.162C53.6394 12.5278 55.6924 14.5845 56.2999 17.0016L54.1212 17.7437C53.7232 15.8779 52.0264 14.5845 50.162 14.7329C47.9206 14.7329 45.6582 16.3867 45.6582 19.7368C45.6582 23.0868 47.8577 24.677 50.183 24.677C52.0683 24.7194 53.7442 23.4685 54.2469 21.645L56.3627 22.3447C55.6086 25.1435 53.0319 27.0518 50.162 26.9033C46.4332 26.9669 43.3539 23.9773 43.291 20.2032C43.291 20.0336 43.291 19.864 43.312 19.6944Z" fill="#B3B7C0"/>
<path d="M60.5944 26.5852H58.311V12.4854H60.5944V18.0193C61.2438 17.2348 62.2284 16.7895 63.2548 16.8319C65.5591 16.8319 66.6903 18.5069 66.6903 20.5848V26.5852H64.4698V20.9665C64.6165 19.9699 63.9252 19.037 62.9406 18.8886C62.8149 18.8674 62.6683 18.8674 62.5426 18.8886C61.4742 18.8886 60.5944 19.7791 60.5944 20.8605C60.5944 20.9241 60.5944 20.9665 60.5944 21.0301V26.5852Z" fill="#B3B7C0"/>
<path d="M71.6339 21.1573L74.043 20.7757C74.5876 20.7121 74.7343 20.4152 74.7343 20.0972C74.7343 19.2915 74.2106 18.6554 72.9537 18.6554C71.9901 18.5706 71.1312 19.2915 71.0264 20.2668V20.3516L68.9945 19.8852C69.162 18.2525 70.6284 16.7896 72.9327 16.7896C75.8236 16.7896 76.9129 18.4434 76.9129 20.3728V25.0798C76.9129 25.5887 76.9338 26.0976 77.0386 26.6064H74.9647C74.8809 26.2036 74.86 25.8007 74.8809 25.3979C74.2525 26.3732 73.1422 26.9457 71.9901 26.9033C70.377 27.0305 68.9735 25.8431 68.8059 24.2105V24.0621C68.785 22.3023 70.0209 21.3906 71.6339 21.1573ZM74.7133 22.6839V22.2599L72.2624 22.6203C71.5711 22.6415 71.0264 23.214 71.0055 23.9137C71.0055 24.6134 71.5711 25.1647 72.2624 25.1435H72.3671C73.5402 25.2919 74.6086 24.4226 74.7343 23.2352C74.7343 23.214 74.7343 23.214 74.7343 23.1928C74.7762 23.0232 74.7552 22.8535 74.7133 22.6839Z" fill="#B3B7C0"/>
<path d="M80.7048 12.2949C81.5008 12.2949 82.1711 12.931 82.1921 13.7579C82.1921 14.5636 81.5427 15.2209 80.7467 15.2421C79.9506 15.2421 79.3012 14.5848 79.2803 13.7791C79.2593 12.9522 79.9087 12.2949 80.7048 12.2949ZM79.6155 26.628V17.108H81.8569V26.5856L79.6155 26.628Z" fill="#B3B7C0"/>
<path d="M86.9265 26.5854H84.6851V17.1077H86.8637V18.3799C87.4502 17.4046 88.4976 16.8109 89.6288 16.8321C91.9122 16.8321 93.0015 18.5071 93.0015 20.585V26.5854H90.781V20.9666C90.781 19.8005 90.2573 18.8676 88.8538 18.8676C87.7644 18.8676 86.8846 19.7793 86.8846 20.8818C86.8846 20.9666 86.8846 21.0302 86.8846 21.1151L86.9265 26.5854Z" fill="#B3B7C0"/>
<path d="M97.9661 12.4854H95.7456V26.5852H97.9661V12.4854Z" fill="#B3B7C0"/>
<path d="M101.967 12.2949C102.763 12.2949 103.412 12.9522 103.433 13.7579C103.433 14.5636 102.784 15.2209 101.988 15.2421C101.192 15.2421 100.542 14.5848 100.521 13.7791V13.7579C100.521 12.9522 101.15 12.2949 101.967 12.2949ZM100.857 26.628V17.108H103.077V26.5856L100.857 26.628Z" fill="#B3B7C0"/>
<path d="M108.189 26.5854H105.968V17.1077H108.147V18.3799C108.733 17.4046 109.781 16.8109 110.912 16.8321C113.195 16.8321 114.306 18.5071 114.306 20.585V26.5854H112.085V20.9666C112.232 19.9701 111.54 19.0372 110.556 18.8888C110.43 18.8676 110.284 18.8676 110.158 18.8888C109.069 18.8888 108.189 19.7793 108.21 20.8818C108.21 20.9666 108.21 21.0515 108.21 21.1151L108.189 26.5854Z" fill="#B3B7C0"/>
<path d="M121.91 21.0937L125.848 26.5852H123.104L120.359 22.6627L119.207 23.8925V26.5852H116.987V12.4854H119.207V20.9241L122.81 17.1076H125.764L121.91 21.0937Z" fill="#B3B7C0"/>
<path d="M16.8754 8.66948L26.5325 14.2882V25.5469L16.9173 31.1869L7.26014 25.6317V14.3306L16.8754 8.66948ZM16.8754 0.400391L13.3351 2.47827L3.69894 8.13941L0.158691 10.2173V29.7451L3.69894 31.8017L13.3561 37.3993L16.8963 39.456L20.4366 37.3781L30.0518 31.7169L33.592 29.6391V10.0901L30.0518 8.0334L20.3947 2.41466L16.8754 0.400391Z" fill="#B3B7C0"/>
</svg>
