<svg width="100%" viewBox="0 0 151 31" fill="none" xmlns="http://www.w3.org/2000/svg">
<path fill-rule="evenodd" clip-rule="evenodd" d="M13.7785 25.3169C13.809 25.5192 13.7556 25.6324 13.7022 25.7457C12.5351 27.9058 10.2085 28.9657 7.92768 28.9657C4.02207 28.9657 1.23779 25.2603 1.23779 21.2959C1.23779 17.3316 4.02207 13.6262 7.92768 13.6262C11.8333 13.6181 14.6557 17.3155 14.6633 21.2717C14.6633 21.6196 14.3887 21.9027 14.0607 21.9027H2.45067C2.48285 22.2405 2.53808 22.575 2.61499 22.9027C3.23075 25.5268 5.23641 27.7197 7.93531 27.7197C10.0102 27.7197 11.5511 26.8783 12.7105 25.1227C12.8784 24.88 13.1301 24.7263 13.4505 24.8719C13.6259 24.9528 13.748 25.1227 13.7785 25.3169ZM3.64387 22.9027C4.23616 25.0983 5.91738 26.7197 7.93531 26.7197C8.83342 26.7197 9.56781 26.539 10.1881 26.2013C10.8092 25.8632 11.3697 25.3383 11.8761 24.5716L11.882 24.5627L11.888 24.554C12.0408 24.333 12.2844 24.0731 12.6456 23.9258C13.0405 23.7647 13.47 23.7824 13.8643 23.9616L13.8692 23.9638C14.3692 24.1944 14.6876 24.6606 14.7663 25.1617L14.7673 25.1677C14.8431 25.6706 14.684 26.0083 14.6069 26.1718L14.595 26.1969L14.582 26.221C13.2038 28.7719 10.4922 29.9657 7.92768 29.9657C3.30636 29.9657 0.237793 25.6335 0.237793 21.2959C0.237793 16.9587 3.30584 12.627 7.92651 12.6262C12.541 12.6172 15.655 16.9328 15.6633 21.2698L14.6633 21.2717H15.6633C15.6633 22.1325 14.9795 22.9027 14.0607 22.9027H3.64387ZM24.782 7.57519C25.83 7.40083 26.6402 8.21355 26.6402 9.16842V12.9256H28.7525C29.7436 12.9256 30.3323 13.7899 30.3323 14.5404C30.3323 15.4014 29.679 16.1553 28.7525 16.1553H26.6402V28.1081C26.6402 28.8677 26.0358 29.723 25.0605 29.723C24.0694 29.723 23.4808 28.8587 23.4808 28.1081V16.1553H21.4905C20.5396 16.1553 19.9108 15.3754 19.9108 14.5404C19.9108 13.7808 20.5152 12.9256 21.4905 12.9256H23.4808V9.18459C23.4808 8.52129 23.9095 7.72936 24.772 7.5769L24.782 7.57519ZM24.4808 9.18459C24.4808 8.88525 24.6715 8.61018 24.9461 8.56163C25.3351 8.49691 25.6402 8.78008 25.6402 9.16842V13.9256H28.7525C29.0882 13.9256 29.3323 14.233 29.3323 14.5404C29.3323 14.8964 29.0805 15.1553 28.7525 15.1553H25.6402V28.1081C25.6402 28.4155 25.3885 28.723 25.0605 28.723C24.7249 28.723 24.4808 28.4155 24.4808 28.1081V15.1553H21.4905C21.1549 15.1553 20.9108 14.8883 20.9108 14.5404C20.9108 14.233 21.1625 13.9256 21.4905 13.9256H24.4808V9.18459ZM38.4791 21.5649V21.5852C38.4792 21.5853 38.4792 21.5859 38.4793 21.5869C38.4796 21.5917 38.4804 21.6075 38.4826 21.6384C38.4857 21.6826 38.4901 21.7369 38.4948 21.794L38.5081 21.9539C38.5099 21.9769 38.5118 22.0004 38.5132 22.0207C38.5139 22.0308 38.5147 22.0429 38.5154 22.0554C38.5158 22.0626 38.5173 22.0896 38.5173 22.1212V28.011C38.5173 28.6743 38.0885 29.4662 37.226 29.6187L37.2161 29.6205C36.168 29.7948 35.3578 28.982 35.3578 28.0272V2.2511C35.3578 1.49144 35.9622 0.63623 36.9375 0.63623C37.9286 0.63623 38.5173 1.50053 38.5173 2.2511V14.0578C39.5895 13.193 40.9106 12.6667 42.3764 12.6667C44.4291 12.6667 46.0527 13.6353 47.1345 15.0687C48.2002 16.4806 48.739 18.3317 48.739 20.1876V28.0353C48.739 28.939 48.0059 29.6501 47.1593 29.6501C46.2083 29.6501 45.5795 28.8703 45.5795 28.0353V20.1876C45.5795 19.0256 45.2668 17.9163 44.7091 17.1269C44.1719 16.3664 43.4122 15.8964 42.384 15.8964C40.961 15.8964 39.9902 16.532 39.3563 17.5161C38.6953 18.5425 38.3835 19.9904 38.4773 21.5347L38.4791 21.5649ZM37.5173 2.2511C37.5173 1.94366 37.2732 1.63623 36.9375 1.63623C36.6095 1.63623 36.3578 1.94366 36.3578 2.2511V28.0272C36.3578 28.4155 36.6629 28.6987 37.052 28.634C37.3266 28.5854 37.5173 28.3103 37.5173 28.011V22.1212C37.5173 22.1049 37.5111 22.0309 37.5037 21.9424C37.4927 21.8113 37.4791 21.6485 37.4791 21.5953C37.3845 20.0377 37.6587 18.4972 38.329 17.2869C38.3319 17.2817 38.3348 17.2764 38.3377 17.2712C38.6191 16.767 38.9695 16.3207 39.3911 15.9549C40.1527 15.2941 41.1465 14.8964 42.384 14.8964C45.1683 14.8964 46.5795 17.542 46.5795 20.1876V28.0353C46.5795 28.3832 46.8236 28.6501 47.1593 28.6501C47.4491 28.6501 47.739 28.3913 47.739 28.0353V20.1876C47.739 16.8381 45.7862 13.6667 42.3764 13.6667C40.973 13.6667 39.7022 14.2515 38.7175 15.2158C38.6494 15.2825 38.5826 15.3511 38.5173 15.4213C38.1307 15.8371 37.7939 16.3141 37.5173 16.8381V2.2511ZM67.5874 25.7457C66.4203 27.9058 64.0938 28.9657 61.8129 28.9657C57.9073 28.9657 55.123 25.2603 55.123 21.2959C55.123 17.3316 57.9073 13.6262 61.8129 13.6262C65.7262 13.6181 68.5486 17.3155 68.5562 21.2717C68.5562 21.6196 68.2816 21.9027 67.9536 21.9027H56.3359C56.3681 22.2405 56.4233 22.575 56.5002 22.9027C57.116 25.5268 59.1217 27.7197 61.8206 27.7197C63.8954 27.7197 65.4363 26.8783 66.5958 25.1227C66.7636 24.88 67.0153 24.7263 67.3357 24.8719C67.5112 24.9528 67.6332 25.1227 67.6637 25.3169C67.6942 25.5192 67.6408 25.6324 67.5874 25.7457ZM57.5291 22.9027C58.1214 25.0983 59.8026 26.7197 61.8206 26.7197C62.7187 26.7197 63.4531 26.539 64.0733 26.2013C64.6945 25.8632 65.255 25.3383 65.7613 24.5716L65.7672 24.5627L65.7733 24.554C65.926 24.333 66.1696 24.0731 66.5308 23.9258C66.9258 23.7647 67.3553 23.7824 67.7495 23.9616L67.7545 23.9638C68.2545 24.1944 68.5729 24.6606 68.6516 25.1617L68.6526 25.1677C68.7284 25.6706 68.5692 26.0083 68.4921 26.1718L68.4803 26.1969L68.4672 26.221C67.089 28.7719 64.3774 29.9657 61.8129 29.9657C57.1916 29.9657 54.123 25.6335 54.123 21.2959C54.123 16.9587 57.1912 12.6269 61.8119 12.6262C66.4333 12.6173 69.5479 16.9321 69.5562 21.2698L68.5562 21.2717H69.5562C69.5562 22.1326 68.8724 22.9027 67.9536 22.9027H57.5291ZM78.321 15.9038C79.3458 14.7851 80.7431 13.9337 82.1801 13.9337C82.47 13.9256 82.8056 14.1521 82.8056 14.5C82.8056 14.8964 82.5996 15.1149 82.264 15.1634C78.8542 15.6893 77.321 18.6423 77.321 22.0807V27.9705C77.321 28.2699 77.1303 28.545 76.8556 28.5935C76.4666 28.6582 76.1615 28.3751 76.1615 27.9867V14.5647C76.1615 14.2654 76.3522 13.9903 76.6268 13.9418C77.0158 13.877 77.321 14.1602 77.321 14.5485V17.2831C77.5863 16.8059 77.9259 16.335 78.321 15.9038ZM78.3206 14.5155C78.4658 14.3915 78.6154 14.2726 78.7689 14.1597C79.7295 13.453 80.905 12.9367 82.1689 12.9337C82.5622 12.927 82.9452 13.0705 83.2379 13.3119C83.548 13.5677 83.8056 13.9789 83.8056 14.5C83.8056 14.8707 83.7071 15.2742 83.4235 15.6088C83.1397 15.9436 82.7626 16.1006 82.4128 16.1523C80.9957 16.3718 80.0069 17.0772 79.3499 18.0785C78.6754 19.1065 78.321 20.498 78.321 22.0807V27.9705C78.321 28.6338 77.8922 29.4258 77.0297 29.5782L77.0198 29.58C75.9717 29.7543 75.1615 28.9416 75.1615 27.9867V14.5647C75.1615 13.9014 75.5902 13.1095 76.4527 12.957L76.4627 12.9553C77.4986 12.783 78.3022 13.5751 78.3206 14.5155ZM100.915 25.7457C99.7477 27.9058 97.4211 28.9657 95.1403 28.9657C91.2347 28.9657 88.4504 25.2603 88.4504 21.2959C88.4504 17.3316 91.2347 13.6262 95.1403 13.6262C99.0459 13.6181 101.868 17.3155 101.876 21.2717C101.876 21.6196 101.601 21.9027 101.273 21.9027H89.6633C89.6955 22.2405 89.7507 22.575 89.8276 22.9027C90.4434 25.5268 92.4491 27.7197 95.1479 27.7197C97.2228 27.7197 98.7637 26.8783 99.9232 25.1227C100.091 24.88 100.343 24.7263 100.663 24.8719C100.839 24.9528 100.961 25.1227 100.991 25.3169M90.8565 22.9027H101.273C102.192 22.9027 102.876 22.1325 102.876 21.2717H101.876L102.876 21.2698C102.868 16.9328 99.7536 12.6172 95.1391 12.6262C95.1395 12.6262 95.1399 12.6262 95.1403 12.6262V13.6244L95.1391 12.6262C95.1394 12.6262 95.1388 12.6262 95.1391 12.6262C90.5185 12.627 87.4504 16.9587 87.4504 21.2959C87.4504 25.6335 90.519 29.9657 95.1403 29.9657C97.7048 29.9657 100.416 28.7719 101.795 26.221L101.808 26.1969L101.819 26.1721C101.896 26.0086 102.056 25.6706 101.98 25.1677L101.979 25.1617C101.9 24.6606 101.582 24.1944 101.082 23.9638L101.077 23.9616C100.683 23.7824 100.253 23.7647 99.8582 23.9258C99.497 24.0731 99.2534 24.333 99.1006 24.554L99.0946 24.5627L99.0887 24.5716C98.5824 25.3383 98.0218 25.8632 97.4007 26.2013C96.7804 26.539 96.0461 26.7197 95.1479 26.7197C93.13 26.7197 91.4488 25.0983 90.8565 22.9027ZM100.478 19.673C100.553 20.0007 100.605 20.3352 100.633 20.673H89.6633C89.6955 20.3352 89.7507 20.0007 89.8276 19.673C90.4434 17.049 92.4491 14.856 95.1479 14.856C97.8468 14.856 99.8826 17.049 100.478 19.673ZM99.4512 19.673C98.8776 17.4867 97.1744 15.856 95.1479 15.856C93.13 15.856 91.4488 17.4774 90.8565 19.673H99.4512ZM118.593 25.1353C119.241 23.6524 119.451 21.6954 119.451 19.6455V14.6214C119.451 14.2654 119.787 13.9013 120.199 14.0308C120.451 14.1198 120.618 14.3786 120.618 14.6537V28.1081C120.618 28.4641 120.328 28.723 120.039 28.723C119.703 28.723 119.459 28.456 119.459 28.1081V25.5515C119.185 26.1341 118.85 26.6688 118.459 27.1351C118.26 27.3721 118.047 27.5915 117.821 27.7905C116.942 28.5644 115.862 29.0304 114.638 29.0304C111.19 29.0304 109.275 25.8589 109.275 22.5095V14.6214C109.275 14.3139 109.527 14.0065 109.855 14.0065C110.191 14.0065 110.435 14.3139 110.435 14.6214V22.5095C110.435 25.1551 111.846 27.8006 114.63 27.8006C115.691 27.8006 116.532 27.5145 117.193 27.0119C117.798 26.5523 118.253 25.9118 118.59 25.1434C118.591 25.1407 118.592 25.138 118.593 25.1353ZM118.509 28.5159C117.471 29.4425 116.164 30.0304 114.638 30.0304C112.569 30.0304 110.943 29.0639 109.864 27.6264C108.802 26.2124 108.275 24.3611 108.275 22.5095V14.6214C108.275 13.8617 108.88 13.0065 109.855 13.0065C110.846 13.0065 111.435 13.8708 111.435 14.6214V22.5095C111.435 23.6715 111.748 24.7808 112.305 25.5702C112.842 26.3307 113.602 26.8006 114.63 26.8006C115.433 26.8006 116.022 26.6043 116.47 26.3003C116.925 25.9921 117.302 25.529 117.603 24.8976C118.22 23.6024 118.451 21.7496 118.451 19.6455V14.6214C118.451 14.1446 118.667 13.6952 119.009 13.3938C119.376 13.071 119.92 12.895 120.499 13.0768L120.515 13.0821L120.532 13.0879C121.226 13.3331 121.618 14.0013 121.618 14.6537V28.1081C121.618 29.0119 120.885 29.723 120.039 29.723C119.245 29.723 118.676 29.1805 118.509 28.5159ZM130.596 21.7458L130.596 21.7403C130.535 19.8851 130.857 18.3959 131.494 17.404C132.093 16.4718 133.018 15.8964 134.456 15.8964C135.491 15.8964 136.251 16.3612 136.784 17.1074C137.339 17.8828 137.651 18.9775 137.651 20.139V28.0272C137.651 28.8622 138.28 29.6421 139.231 29.6421C140.078 29.6421 140.811 28.9309 140.811 28.0272V21.9432C140.811 20.5199 141.121 18.9386 141.784 17.7514C142.43 16.5949 143.346 15.8964 144.632 15.8964C145.667 15.8964 146.427 16.3612 146.96 17.1074C147.515 17.8828 147.827 18.9775 147.827 20.139V28.0272C147.827 28.8622 148.456 29.6421 149.407 29.6421C150.254 29.6421 150.987 28.9309 150.987 28.0272V20.139C150.987 18.2826 150.448 16.4417 149.379 15.0405C148.295 13.6178 146.671 12.6667 144.624 12.6667C142.425 12.6667 140.655 13.7916 139.461 15.4287C138.359 13.7601 136.606 12.6667 134.448 12.6667C132.957 12.6667 131.61 13.1981 130.524 14.0852C130.311 13.3494 129.603 12.8101 128.731 12.9553L128.721 12.957C127.858 13.1095 127.43 13.9014 127.43 14.5647V28.0272C127.43 28.982 128.24 29.7948 129.288 29.6204L129.293 29.6195C130.161 29.4703 130.597 28.6818 130.597 28.011V22.2126C130.604 22.1686 130.608 22.1312 130.61 22.1032C130.618 22.0004 130.611 21.9095 130.608 21.8669C130.605 21.8306 130.6 21.7865 130.598 21.7647L130.597 21.7538C130.597 21.7507 130.597 21.748 130.596 21.7458ZM129.597 22.0807C129.623 22.0531 129.613 21.9616 129.605 21.8779C129.601 21.8389 129.597 21.8016 129.597 21.7733C129.538 20.0107 129.8 18.444 130.427 17.2529C130.428 17.2495 130.43 17.2461 130.432 17.2426C130.716 16.7062 131.073 16.2464 131.509 15.8796C132.255 15.2518 133.231 14.8964 134.456 14.8964C137.24 14.8964 138.651 17.4935 138.651 20.139V28.0272C138.651 28.3751 138.895 28.6421 139.231 28.6421C139.521 28.6421 139.811 28.3832 139.811 28.0272V21.9432C139.811 18.8607 141.138 14.8964 144.632 14.8964C147.416 14.8964 148.827 17.4935 148.827 20.139V28.0272C148.827 28.3751 149.071 28.6421 149.407 28.6421C149.697 28.6421 149.987 28.3832 149.987 28.0272V20.139C149.987 16.7896 148.034 13.6667 144.624 13.6667C142.654 13.6667 141.046 14.7582 140.003 16.4068C139.77 16.7755 139.565 17.1721 139.391 17.5905C139.252 17.1566 139.076 16.7485 138.867 16.3717C137.946 14.7184 136.374 13.6667 134.448 13.6667C133.074 13.6667 131.827 14.2095 130.852 15.126C130.762 15.2104 130.674 15.2979 130.589 15.3885C130.203 15.7997 129.866 16.2736 129.589 16.7977V14.5485C129.589 14.1602 129.284 13.877 128.895 13.9418C128.62 13.9903 128.43 14.2654 128.43 14.5647V28.0272C128.43 28.4155 128.735 28.6987 129.124 28.634C129.406 28.5854 129.597 28.3103 129.597 28.011V22.0807ZM12.2385 19.673C11.665 17.4867 9.96173 15.856 7.93531 15.856C5.91738 15.856 4.23616 17.4774 3.64387 19.673H12.2385ZM13.2657 19.673C12.67 17.049 10.6342 14.856 7.93531 14.856C5.23641 14.856 3.23075 17.049 2.61499 19.673C2.53808 20.0007 2.48285 20.3352 2.45067 20.673H13.4199C13.392 20.3352 13.3401 20.0007 13.2657 19.673ZM66.1238 19.673C65.5502 17.4867 63.847 15.856 61.8206 15.856C59.8026 15.856 58.1214 17.4774 57.5291 19.673H66.1238ZM67.1509 19.673C66.5553 17.049 64.5195 14.856 61.8206 14.856C59.1217 14.856 57.116 17.049 56.5002 19.673C56.4233 20.0007 56.3681 20.3352 56.3359 20.673H67.3052C67.2772 20.3352 67.2253 20.0007 67.1509 19.673Z" fill="#B3B7C0"/>
</svg>
