<svg width="100%" viewBox="0 0 88 39" fill="none" xmlns="http://www.w3.org/2000/svg">
<path d="M87.0919 31.0391C83.7073 31.7298 81.6879 30.3196 80.152 27.1826C78.4455 23.6715 76.1702 20.4769 73.8664 17.1961C73.8664 21.7432 73.8664 26.3192 73.8664 30.9528C72.4443 30.9528 71.1644 30.9528 69.8276 30.9528C69.8276 23.6139 69.8276 16.3327 69.8276 8.87871C71.0506 8.87871 72.2168 8.79238 73.3829 8.93627C73.8379 8.99383 74.3499 9.45431 74.6059 9.88601C77.0519 13.8864 79.4694 17.8868 81.887 21.8871C82.1145 22.2901 82.399 22.6642 82.8825 23.4125C82.8825 18.3472 82.8825 13.7137 82.8825 8.87871C84.4183 8.87871 85.7835 8.87871 87.1203 8.87871C87.0919 16.2751 87.0919 23.6427 87.0919 31.0391Z" fill="#B3B7C0"/>
<path d="M47.1593 21.5133C47.1593 24.7079 47.1593 27.7585 47.1593 30.9243C45.6519 30.9243 44.2583 30.9243 42.7793 30.9243C42.7793 23.643 42.7793 16.3617 42.7793 8.99414C47.6429 8.99414 52.5349 8.99414 57.5406 8.99414C57.5406 10.1165 57.5406 11.2677 57.5406 12.5628C54.1276 12.5628 50.7146 12.5628 47.2162 12.5628C47.2162 14.3472 47.2162 15.9588 47.2162 17.7144C50.1458 17.7144 53.0468 17.7144 56.0617 17.7144C56.0617 19.0383 56.0617 20.1895 56.0617 21.4845C53.1322 21.5133 50.2026 21.5133 47.1593 21.5133Z" fill="#B3B7C0"/>
<path d="M65.3337 30.9818C63.8831 30.9818 62.5179 30.9818 61.0674 30.9818C61.0674 23.6142 61.0674 16.3329 61.0674 8.96533C62.4895 8.96533 63.8547 8.96533 65.3337 8.96533C65.3337 16.2466 65.3337 23.5566 65.3337 30.9818Z" fill="#B3B7C0"/>
<path d="M29.326 14.4908C29.07 13.944 28.7571 13.3972 28.4727 12.8504C25.8561 8.24563 22.1871 4.59061 18.2336 1.1946C16.8115 -0.0141491 15.6739 -0.0717087 14.3086 1.22338C11.7773 3.58332 9.21754 5.97203 6.97063 8.59099C4.89437 11.0373 3.24474 13.6562 2.19239 16.6493C1.25381 18.7214 0.798741 21.0814 0.827183 23.6716C0.969392 32.7372 7.56791 39.3277 16.8115 38.9248C17.0106 38.9248 17.2097 38.896 17.4373 38.896C18.319 38.8385 19.2007 38.6946 20.0255 38.5219C26.9084 37.0829 31.772 32.0752 31.8289 23.4701C31.8289 20.0165 30.9187 16.9371 29.326 14.4908ZM17.8354 35.241C17.295 35.3561 16.6978 35.3561 16.4987 35.3561C8.53494 35.2122 3.30163 27.8446 5.29256 20.1029C6.2027 16.563 8.10831 13.5123 10.3837 10.7207C11.0378 9.94363 11.7204 9.16658 12.4315 8.44709C13.3132 7.52614 14.1949 6.63397 15.0481 5.71302C15.7592 4.93596 16.4987 4.96474 17.2666 5.65546C18.2336 6.51885 19.1722 7.4398 20.0823 8.36075C23.0687 11.469 25.5148 14.9801 26.9084 19.2683C29.2975 26.492 25.1735 33.7445 17.8354 35.241Z" fill="#B3B7C0"/>
<path d="M16.186 16.0741C20.6798 15.9877 23.8937 19.0384 23.8653 23.6143C23.8368 28.3054 20.8504 30.838 16.8401 31.1258C12.1757 31.4712 8.81952 28.2191 8.73419 23.7007C8.67731 19.2686 11.6921 16.1892 16.186 16.0741Z" fill="#B3B7C0"/>
</svg>
